{
.appVersion = "1098";
classes = (
{
automatic = 1;
code = "A Aacute Abreve Abreveacute Abrevedotbelow Abrevegrave Abrevehookabove Abrevetilde Acircumflex Acircumflexacute Acircumflexdotbelow Acircumflexgrave Acircumflexhookabove Acircumflextilde Adblgrave Adieresis Adotbelow Agrave Ahookabove Ainvertedbreve Amacron Aogonek Aring Aringacute Atilde AE AEacute B C Cacute Ccaron Ccedilla Ccircumflex Cdotaccent D DZcaron Eth Dcaron Dcroat Dzcaron E Eacute Ebreve Ecaron Ecircumflex Ecircumflexacute Ecircumflexdotbelow Ecircumflexgrave Ecircumflexhookabove Ecircumflextilde Edblgrave Edieresis Edotaccent Edotbelow Egrave Ehookabove Einvertedbreve Emacron Eogonek Etilde F G Gbreve Gcaron Gcircumflex Gcommaaccent Gdotaccent H Hbar Hcircumflex I IJ Iacute Ibreve Icircumflex Idblgrave Idieresis Idotaccent Idotbelow Igrave Ihookabove Iinvertedbreve Imacron Iogonek Itilde J Jcircumflex K Kcommaaccent L LJ Lacute Lcaron Lcommaaccent Ldot Lj Lslash M N NJ Nacute Ncaron Ncommaaccent Eng Nj Ntilde O Oacute Obreve Ocircumflex Ocircumflexacute Ocircumflexdotbelow Ocircumflexgrave Ocircumflexhookabove Ocircumflextilde Odblgrave Odieresis Odieresismacron Odotaccentmacron Odotbelow Ograve Ohookabove Ohorn Ohornacute Ohorndotbelow Ohorngrave Ohornhookabove Ohorntilde Ohungarumlaut Oinvertedbreve Omacron Oogonek Oslash Oslashacute Otilde Otildemacron OE P Thorn Q R Racute Rcaron Rcommaaccent Rdblgrave Rinvertedbreve S Sacute Scaron Scedilla Scircumflex Scommaaccent Germandbls Schwa T Tbar Tcaron Tcedilla Tcommaaccent U Uacute Ubreve Ucircumflex Udblgrave Udieresis Udotbelow Ugrave Uhookabove Uhorn Uhornacute Uhorndotbelow Uhorngrave Uhornhookabove Uhorntilde Uhungarumlaut Uinvertedbreve Umacron Uogonek Uring Utilde V W Wacute Wcircumflex Wdieresis Wgrave X Y Yacute Ycircumflex Ydieresis Ydotbelow Ygrave Yhookabove Ymacron Ytilde Z Zacute Zcaron Zdotaccent Delta Omega";
name = Uppercase;
}
);

glyphs = (
{
glyphname = A;
lastChange = "2017-11-28 19:00:22 +0000";
layers = (
{
anchors = (
{
name = bottom;
position = "{312, 0}";
},
{
name = ogonek;
position = "{603, 0}";
},
{
name = top;
position = "{312, 730}";
}
);
hints = (
{
horizontal = 1;
place = "{226, 59}";
},
{
horizontal = 1;
place = "{730, -20}";
target = down;
type = TopGhost;
},
{
horizontal = 1;
place = "{21, 21}";
target = up;
type = BottomGhost;
}
);
layerId = UUID0;
paths = (
{
closed = 1;
nodes = (
"149 226 LINE",
"476 226 LINE",
"476 285 LINE",
"149 285 LINE"
);
},
{
closed = 1;
nodes = (
"291 730 LINE",
"531 0 LINE",
"603 0 LINE",
"360 730 LINE"
);
},
{
closed = 1;
nodes = (
"263 730 LINE",
"20 0 LINE",
"92 0 LINE",
"332 730 LINE"
);
}
);
width = 623;
},
{
anchors = (
{
name = bottom;
position = "{324, 0}";
},
{
name = ogonek;
position = "{642, 0}";
},
{
name = top;
position = "{324, 730}";
}
);
layerId = UUID1;
paths = (
{
closed = 1;
nodes = (
"169 196 LINE",
"480 196 LINE",
"480 310 LINE",
"169 310 LINE"
);
},
{
closed = 1;
nodes = (
"280 730 LINE",
"496 0 LINE",
"642 0 LINE",
"422 730 LINE"
);
},
{
closed = 1;
nodes = (
"225 730 LINE",
"5 0 LINE",
"152 0 LINE",
"367 730 LINE"
);
}
);
width = 647;
}
);
leftKerningGroup = A;
rightKerningGroup = A;
unicode = 0041;
},
{
glyphname = AE;
lastChange = "2017-11-28 17:57:31 +0000";
layers = (
{
anchors = (
{
name = bottom;
position = "{592, 0}";
},
{
name = top;
position = "{592, 730}";
}
);
hints = (
{
place = "{453, 72}";
},
{
horizontal = 1;
place = "{0, 59}";
},
{
horizontal = 1;
place = "{321, 60}";
},
{
horizontal = 1;
place = "{670, 60}";
}
);
layerId = UUID0;
paths = (
{
closed = 1;
nodes = (
"348 730 LINE",
"35 0 LINE",
"107 0 LINE",
"417 730 LINE"
);
},
{
closed = 1;
nodes = (
"215 321 LINE",
"813 321 LINE",
"813 381 LINE",
"215 381 LINE"
);
},
{
closed = 1;
nodes = (
"453 671 LINE",
"833 671 LINE",
"833 730 LINE",
"453 730 LINE",
"453 0 LINE",
"525 0 LINE",
"525 671 LINE"
);
},
{
closed = 1;
nodes = (
"453 0 LINE",
"853 0 LINE",
"853 59 LINE",
"453 59 LINE"
);
},
{
closed = 1;
nodes = (
"373 670 LINE",
"453 670 LINE",
"453 730 LINE",
"373 730 LINE"
);
}
);
width = 903;
},
{
anchors = (
{
name = bottom;
position = "{593, 0}";
},
{
name = top;
position = "{593, 730}";
}
);
layerId = UUID1;
paths = (
{
closed = 1;
nodes = (
"308 730 LINE",
"5 0 LINE",
"152 0 LINE",
"450 730 LINE"
);
},
{
closed = 1;
nodes = (
"195 294 LINE",
"867 294 LINE",
"867 408 LINE",
"195 408 LINE"
);
},
{
closed = 1;
nodes = (
"473 614 LINE",
"893 614 LINE",
"893 730 LINE",
"473 730 LINE",
"473 0 LINE",
"625 0 LINE",
"625 614 LINE"
);
},
{
closed = 1;
nodes = (
"473 0 LINE",
"913 0 LINE",
"913 116 LINE",
"473 116 LINE"
);
},
{
closed = 1;
nodes = (
"369 614 LINE",
"473 614 LINE",
"473 730 LINE",
"369 730 LINE"
);
}
);
width = 943;
}
);
leftKerningGroup = AE;
unicode = 00C6;
},
{
glyphname = B;
lastChange = "2017-11-28 17:57:31 +0000";
layers = (
{
anchors = (
{
name = bottom;
position = "{305, 0}";
},
{
name = top;
position = "{305, 730}";
}
);
hints = (
{
place = "{110, 72}";
},
{
place = "{447, 72}";
},
{
place = "{487, 72}";
},
{
horizontal = 1;
place = "{0, 59}";
},
{
horizontal = 1;
place = "{343, 42}";
},
{
horizontal = 1;
place = "{361, 24}";
},
{
horizontal = 1;
place = "{671, 59}";
},
{
horizontal = 1;
place = "{361, 43}";
}
);
layerId = UUID0;
paths = (
{
closed = 1;
nodes = (
"110 730 LINE",
"110 0 LINE",
"182 0 LINE",
"182 730 LINE"
);
},
{
closed = 1;
nodes = (
"340 0 LINE SMOOTH",
"513 0 OFFCURVE",
"559 93 OFFCURVE",
"559 195 CURVE SMOOTH",
"559 297 OFFCURVE",
"513 385 OFFCURVE",
"340 385 CURVE SMOOTH",
"110 385 LINE",
"110 0 LINE"
);
},
{
closed = 1;
nodes = (
"182 59 LINE",
"182 343 LINE",
"340 343 LINE SMOOTH",
"448 343 OFFCURVE",
"487 280 OFFCURVE",
"487 199 CURVE SMOOTH",
"487 120 OFFCURVE",
"448 59 OFFCURVE",
"340 59 CURVE SMOOTH"
);
},
{
closed = 1;
nodes = (
"300 361 LINE SMOOTH",
"473 361 OFFCURVE",
"519 446 OFFCURVE",
"519 543 CURVE SMOOTH",
"519 640 OFFCURVE",
"473 730 OFFCURVE",
"300 730 CURVE SMOOTH",
"110 730 LINE",
"110 361 LINE"
);
},
{
closed = 1;
nodes = (
"182 404 LINE",
"182 671 LINE",
"300 671 LINE SMOOTH",
"408 671 OFFCURVE",
"447 614 OFFCURVE",
"447 537 CURVE SMOOTH",
"447 462 OFFCURVE",
"408 404 OFFCURVE",
"300 404 CURVE SMOOTH"
);
}
);
width = 609;
},
{
anchors = (
{
name = bottom;
position = "{315, 0}";
},
{
name = top;
position = "{315, 730}";
}
);
layerId = UUID1;
paths = (
{
closed = 1;
nodes = (
"90 730 LINE",
"90 0 LINE",
"242 0 LINE",
"242 730 LINE"
);
},
{
closed = 1;
nodes = (
"362 0 LINE SMOOTH",
"551 0 OFFCURVE",
"599 103 OFFCURVE",
"599 195 CURVE SMOOTH",
"599 287 OFFCURVE",
"541 390 OFFCURVE",
"362 390 CURVE SMOOTH",
"90 390 LINE",
"90 0 LINE"
);
},
{
closed = 1;
nodes = (
"242 116 LINE",
"242 316 LINE",
"353 316 LINE SMOOTH",
"415 316 OFFCURVE",
"447 277 OFFCURVE",
"447 215 CURVE SMOOTH",
"447 156 OFFCURVE",
"416 116 OFFCURVE",
"353 116 CURVE SMOOTH"
);
},
{
closed = 1;
nodes = (
"330 356 LINE SMOOTH",
"531 356 OFFCURVE",
"569 456 OFFCURVE",
"569 543 CURVE SMOOTH",
"569 630 OFFCURVE",
"521 730 OFFCURVE",
"330 730 CURVE SMOOTH",
"90 730 LINE",
"90 356 LINE"
);
},
{
closed = 1;
nodes = (
"242 430 LINE",
"242 614 LINE",
"327 614 LINE SMOOTH",
"382 614 OFFCURVE",
"417 579 OFFCURVE",
"417 521 CURVE SMOOTH",
"417 464 OFFCURVE",
"382 430 OFFCURVE",
"327 430 CURVE SMOOTH"
);
}
);
width = 629;
}
);
unicode = 0042;
},
{
glyphname = C;
lastChange = "2017-11-28 17:57:31 +0000";
layers = (
{
anchors = (
{
name = bottom;
position = "{351, 0}";
},
{
name = top;
position = "{351, 730}";
}
);
hints = (
{
place = "{80, 72}";
},
{
place = "{523, 59}";
},
{
horizontal = 1;
place = "{-14, 60}";
},
{
horizontal = 1;
place = "{684, 60}";
}
);
layerId = UUID0;
paths = (
{
closed = 1;
nodes = (
"578 562 LINE",
"563 671 OFFCURVE",
"502 744 OFFCURVE",
"356 744 CURVE SMOOTH",
"131 744 OFFCURVE",
"80 601 OFFCURVE",
"80 366 CURVE SMOOTH",
"80 130 OFFCURVE",
"131 -14 OFFCURVE",
"356 -14 CURVE SMOOTH",
"514 -14 OFFCURVE",
"573 77 OFFCURVE",
"582 209 CURVE",
"523 212 LINE",
"520 120 OFFCURVE",
"474 46 OFFCURVE",
"356 46 CURVE SMOOTH",
"180 46 OFFCURVE",
"152 168 OFFCURVE",
"152 366 CURVE SMOOTH",
"152 563 OFFCURVE",
"180 684 OFFCURVE",
"356 684 CURVE SMOOTH",
"460 684 OFFCURVE",
"507 627 OFFCURVE",
"519 550 CURVE"
);
}
);
width = 642;
},
{
anchors = (
{
name = bottom;
position = "{341, 0}";
},
{
name = top;
position = "{341, 730}";
}
);
layerId = UUID1;
paths = (
{
closed = 1;
nodes = (
"599 518 LINE",
"584 655 OFFCURVE",
"532 744 OFFCURVE",
"351 744 CURVE SMOOTH",
"115 744 OFFCURVE",
"50 610 OFFCURVE",
"50 365 CURVE SMOOTH",
"50 120 OFFCURVE",
"115 -14 OFFCURVE",
"351 -14 CURVE SMOOTH",
"545 -14 OFFCURVE",
"592 94 OFFCURVE",
"602 256 CURVE",
"479 262 LINE",
"477 167 OFFCURVE",
"449 108 OFFCURVE",
"351 108 CURVE SMOOTH",
"231 108 OFFCURVE",
"202 185 OFFCURVE",
"202 365 CURVE SMOOTH",
"202 545 OFFCURVE",
"231 622 OFFCURVE",
"351 622 CURVE SMOOTH",
"437 622 OFFCURVE",
"469 576 OFFCURVE",
"477 500 CURVE"
);
}
);
width = 622;
}
);
unicode = 0043;
},
{
glyphname = D;
lastChange = "2017-11-28 17:57:31 +0000";
layers = (
{
anchors = (
{
name = bottom;
position = "{319, 0}";
},
{
name = center;
position = "{222, 365}";
},
{
name = top;
position = "{319, 730}";
}
);
hints = (
{
place = "{110, 72}";
},
{
place = "{536, 72}";
},
{
horizontal = 1;
place = "{0, 59}";
},
{
horizontal = 1;
place = "{671, 59}";
}
);
layerId = UUID0;
paths = (
{
closed = 1;
nodes = (
"110 730 LINE",
"110 0 LINE",
"182 0 LINE",
"182 730 LINE"
);
},
{
closed = 1;
nodes = (
"182 730 LINE",
"182 671 LINE",
"325 671 LINE SMOOTH",
"505 671 OFFCURVE",
"536 534 OFFCURVE",
"536 365 CURVE SMOOTH",
"536 196 OFFCURVE",
"505 59 OFFCURVE",
"325 59 CURVE SMOOTH",
"182 59 LINE",
"182 0 LINE",
"325 0 LINE SMOOTH",
"560 0 OFFCURVE",
"608 160 OFFCURVE",
"608 365 CURVE SMOOTH",
"608 568 OFFCURVE",
"560 730 OFFCURVE",
"325 730 CURVE SMOOTH"
);
}
);
width = 698;
},
{
anchors = (
{
name = bottom;
position = "{329, 0}";
},
{
name = center;
position = "{242, 365}";
},
{
name = top;
position = "{329, 730}";
}
);
layerId = UUID1;
paths = (
{
closed = 1;
nodes = (
"90 730 LINE",
"90 0 LINE",
"242 0 LINE",
"242 730 LINE"
);
},
{
closed = 1;
nodes = (
"242 730 LINE",
"242 614 LINE",
"318 614 LINE SMOOTH",
"459 614 OFFCURVE",
"486 501 OFFCURVE",
"486 365 CURVE SMOOTH",
"486 229 OFFCURVE",
"459 116 OFFCURVE",
"318 116 CURVE SMOOTH",
"242 116 LINE",
"242 0 LINE",
"340 0 LINE SMOOTH",
"588 0 OFFCURVE",
"638 160 OFFCURVE",
"638 365 CURVE SMOOTH",
"638 568 OFFCURVE",
"588 730 OFFCURVE",
"340 730 CURVE SMOOTH"
);
}
);
width = 698;
}
);
unicode = 0044;
},
{
glyphname = E;
lastChange = "2017-11-28 17:57:31 +0000";
layers = (
{
anchors = (
{
name = bottom;
position = "{310, 0}";
},
{
name = ogonek;
position = "{510, 0}";
},
{
name = top;
position = "{310, 730}";
},
{
name = topleft;
position = "{20, 730}";
}
);
hints = (
{
horizontal = 1;
origin = "{1, 5}";
target = "{1, 8}";
},
{
horizontal = 1;
origin = "{0, 0}";
target = "{0, 3}";
},
{
horizontal = 1;
origin = "{1, 4}";
target = "{1, 1}";
},
{
origin = "{1, 5}";
target = "{1, 9}";
}
);
layerId = UUID0;
paths = (
{
closed = 1;
nodes = (
"167 341 LINE",
"470 341 LINE",
"470 401 LINE",
"167 401 LINE"
);
},
{
closed = 1;
nodes = (
"182 694 LINE",
"159 671 LINE",
"490 671 LINE",
"490 730 LINE",
"110 730 LINE",
"110 0 LINE",
"510 0 LINE",
"510 59 LINE",
"159 59 LINE",
"182 36 LINE"
);
}
);
width = 560;
},
{
anchors = (
{
name = bottom;
position = "{300, 0}";
},
{
name = ogonek;
position = "{530, 0}";
},
{
name = top;
position = "{300, 730}";
},
{
name = topleft;
position = "{20, 730}";
}
);
layerId = UUID1;
paths = (
{
closed = 1;
nodes = (
"226 314 LINE",
"484 314 LINE",
"484 428 LINE",
"226 428 LINE"
);
},
{
closed = 1;
nodes = (
"242 642 LINE",
"214 614 LINE",
"510 614 LINE",
"510 730 LINE",
"90 730 LINE",
"90 0 LINE",
"530 0 LINE",
"530 116 LINE",
"214 116 LINE",
"242 88 LINE"
);
}
);
width = 560;
}
);
unicode = 0045;
},
{
glyphname = F;
lastChange = "2017-11-28 17:57:31 +0000";
layers = (
{
anchors = (
{
name = bottom;
position = "{260, 0}";
},
{
name = top;
position = "{260, 730}";
}
);
hints = (
{
place = "{110, 72}";
},
{
horizontal = 1;
place = "{341, 60}";
},
{
horizontal = 1;
place = "{671, 59}";
},
{
horizontal = 1;
place = "{21, 21}";
target = up;
type = BottomGhost;
}
);
layerId = UUID0;
paths = (
{
closed = 1;
nodes = (
"150 341 LINE",
"450 341 LINE",
"450 401 LINE",
"150 401 LINE"
);
},
{
closed = 1;
nodes = (
"110 0 LINE",
"182 0 LINE",
"182 694 LINE",
"159 671 LINE",
"470 671 LINE",
"470 730 LINE",
"110 730 LINE"
);
}
);
width = 520;
},
{
anchors = (
{
name = bottom;
position = "{255, 0}";
},
{
name = top;
position = "{255, 730}";
}
);
layerId = UUID1;
paths = (
{
closed = 1;
nodes = (
"160 314 LINE",
"454 314 LINE",
"454 428 LINE",
"160 428 LINE"
);
},
{
closed = 1;
nodes = (
"90 0 LINE",
"242 0 LINE",
"242 642 LINE",
"214 614 LINE",
"490 614 LINE",
"490 730 LINE",
"90 730 LINE"
);
}
);
width = 510;
}
);
unicode = 0046;
},
{
glyphname = G;
lastChange = "2017-11-28 17:57:31 +0000";
layers = (
{
anchors = (
{
name = bottom;
position = "{356, 0}";
},
{
name = top;
position = "{356, 730}";
}
);
hints = (
{
horizontal = 1;
origin = "{0, 2}";
target = "{0, 9}";
},
{
horizontal = 1;
origin = "{1, 1}";
target = "{0, 12}";
},
{
horizontal = 1;
origin = "{0, 22}";
target = "{0, 15}";
},
{
origin = "{0, 25}";
target = "{0, 12}";
},
{
origin = "{1, 4}";
target = "{1, 6}";
}
);
layerId = UUID0;
paths = (
{
closed = 1;
nodes = (
"80 131 OFFCURVE",
"121 -14 OFFCURVE",
"347 -14 CURVE SMOOTH",
"509 -14 OFFCURVE",
"569 108 OFFCURVE",
"578 240 CURVE",
"528 212 LINE",
"525 120 OFFCURVE",
"468 46 OFFCURVE",
"347 46 CURVE SMOOTH",
"180 46 OFFCURVE",
"152 158 OFFCURVE",
"152 365 CURVE SMOOTH",
"152 562 OFFCURVE",
"180 684 OFFCURVE",
"356 684 CURVE SMOOTH",
"460 684 OFFCURVE",
"507 627 OFFCURVE",
"519 550 CURVE",
"578 562 LINE",
"563 671 OFFCURVE",
"502 744 OFFCURVE",
"356 744 CURVE SMOOTH",
"131 744 OFFCURVE",
"80 601 OFFCURVE",
"80 366 CURVE SMOOTH"
);
},
{
closed = 1;
nodes = (
"394 365 LINE",
"394 315 LINE",
"551 315 LINE",
"528 338 LINE",
"528 177 LINE",
"551 0 LINE",
"592 0 LINE",
"592 365 LINE"
);
}
);
width = 692;
},
{
anchors = (
{
name = bottom;
position = "{358, 0}";
},
{
name = top;
position = "{358, 730}";
}
);
layerId = UUID1;
paths = (
{
closed = 1;
nodes = (
"50 130 OFFCURVE",
"113 -14 OFFCURVE",
"338 -14 CURVE SMOOTH",
"535 -14 OFFCURVE",
"576 181 OFFCURVE",
"585 269 CURVE",
"486 262 LINE",
"484 150 OFFCURVE",
"437 108 OFFCURVE",
"348 108 CURVE SMOOTH",
"231 108 OFFCURVE",
"202 198 OFFCURVE",
"202 365 CURVE SMOOTH",
"202 545 OFFCURVE",
"231 622 OFFCURVE",
"351 622 CURVE SMOOTH",
"437 622 OFFCURVE",
"469 576 OFFCURVE",
"477 500 CURVE",
"599 518 LINE",
"584 655 OFFCURVE",
"532 744 OFFCURVE",
"351 744 CURVE SMOOTH",
"115 744 OFFCURVE",
"50 610 OFFCURVE",
"50 365 CURVE SMOOTH"
);
},
{
closed = 1;
nodes = (
"374 375 LINE",
"374 279 LINE",
"513 279 LINE",
"485 307 LINE",
"485 151 LINE",
"541 0 LINE",
"616 0 LINE",
"616 375 LINE"
);
}
);
width = 696;
}
);
unicode = 0047;
},
{
glyphname = H;
lastChange = "2017-11-28 17:57:31 +0000";
layers = (
{
anchors = (
{
name = bottom;
position = "{363, 0}";
},
{
name = center;
position = "{363, 547}";
},
{
name = top;
position = "{363, 730}";
},
{
name = topleft;
position = "{20, 730}";
}
);
hints = (
{
horizontal = 1;
origin = "{1, 0}";
target = "{1, 3}";
},
{
horizontal = 1;
origin = "{0, 0}";
target = down;
type = TopGhost;
},
{
origin = "{0, 1}";
target = "{0, 2}";
},
{
origin = "{2, 1}";
target = "{2, 2}";
},
{
horizontal = 1;
origin = "{0, 1}";
target = up;
type = BottomGhost;
}
);
layerId = UUID0;
paths = (
{
closed = 1;
nodes = (
"110 730 LINE",
"110 0 LINE",
"182 0 LINE",
"182 730 LINE"
);
},
{
closed = 1;
nodes = (
"163 335 LINE",
"587 335 LINE",
"587 395 LINE",
"163 395 LINE"
);
},
{
closed = 1;
nodes = (
"543 730 LINE",
"543 0 LINE",
"615 0 LINE",
"615 730 LINE"
);
}
);
width = 725;
},
{
anchors = (
{
name = bottom;
position = "{366, 0}";
},
{
name = center;
position = "{366, 572}";
},
{
name = top;
position = "{366, 730}";
},
{
name = topleft;
position = "{20, 730}";
}
);
layerId = UUID1;
paths = (
{
closed = 1;
nodes = (
"90 730 LINE",
"90 0 LINE",
"242 0 LINE",
"242 730 LINE"
);
},
{
closed = 1;
nodes = (
"171 308 LINE",
"564 308 LINE",
"564 422 LINE",
"171 422 LINE"
);
},
{
closed = 1;
nodes = (
"489 730 LINE",
"489 0 LINE",
"641 0 LINE",
"641 730 LINE"
);
}
);
width = 731;
}
);
unicode = 0048;
},
{
glyphname = I;
lastChange = "2017-11-28 17:57:31 +0000";
layers = (
{
anchors = (
{
name = bottom;
position = "{146, 0}";
},
{
name = ogonek;
position = "{182, 0}";
},
{
name = top;
position = "{146, 730}";
},
{
name = topleft;
position = "{20, 730}";
}
);
hints = (
{
place = "{110, 72}";
},
{
horizontal = 1;
place = "{730, -20}";
target = down;
type = TopGhost;
},
{
horizontal = 1;
place = "{21, 21}";
target = up;
type = BottomGhost;
}
);
layerId = UUID0;
paths = (
{
closed = 1;
nodes = (
"110 730 LINE",
"110 0 LINE",
"182 0 LINE",
"182 730 LINE"
);
}
);
width = 292;
},
{
anchors = (
{
name = bottom;
position = "{166, 0}";
},
{
name = ogonek;
position = "{242, 0}";
},
{
name = top;
position = "{166, 730}";
},
{
name = topleft;
position = "{20, 730}";
}
);
layerId = UUID1;
paths = (
{
closed = 1;
nodes = (
"90 730 LINE",
"90 0 LINE",
"242 0 LINE",
"242 730 LINE"
);
}
);
width = 332;
}
);
unicode = 0049;
},
{
glyphname = J;
lastChange = "2017-11-28 18:11:27 +0000";
layers = (
{
anchors = (
{
name = bottom;
position = "{231, 0}";
},
{
name = top;
position = "{330, 730}";
}
);
hints = (
{
place = "{20, 62}";
},
{
place = "{294, 72}";
},
{
horizontal = 1;
place = "{-14, 60}";
},
{
horizontal = 1;
place = "{730, -20}";
target = down;
type = TopGhost;
}
);
layerId = UUID0;
paths = (
{
closed = 1;
nodes = (
"366 730 LINE",
"294 730 LINE",
"294 183 LINE SMOOTH",
"294 80 OFFCURVE",
"276 46 OFFCURVE",
"190 46 CURVE SMOOTH",
"104 46 OFFCURVE",
"82 83 OFFCURVE",
"82 183 CURVE",
"20 183 LINE",
"20 81 OFFCURVE",
"25 -14 OFFCURVE",
"188 -14 CURVE SMOOTH",
"351 -14 OFFCURVE",
"366 73 OFFCURVE",
"366 183 CURVE SMOOTH"
);
}
);
width = 461;
},
{
anchors = (
{
name = bottom;
position = "{246, 0}";
},
{
name = top;
position = "{340, 730}";
}
);
layerId = UUID1;
paths = (
{
closed = 1;
nodes = (
"416 730 LINE",
"264 730 LINE",
"264 183 LINE SMOOTH",
"264 127 OFFCURVE",
"248 108 OFFCURVE",
"198 108 CURVE SMOOTH",
"148 108 OFFCURVE",
"132 135 OFFCURVE",
"132 213 CURVE",
"0 213 LINE",
"0 81 OFFCURVE",
"7 -14 OFFCURVE",
"195 -14 CURVE SMOOTH",
"397 -14 OFFCURVE",
"416 81 OFFCURVE",
"416 183 CURVE SMOOTH"
);
}
);
width = 491;
}
);
leftKerningGroup = J;
unicode = 004A;
},
{
glyphname = K;
lastChange = "2017-11-28 17:57:31 +0000";
layers = (
{
anchors = (
{
name = bottom;
position = "{315, 0}";
},
{
name = top;
position = "{315, 730}";
}
);
hints = (
{
horizontal = 1;
origin = "{2, 0}";
target = "{2, 3}";
},
{
horizontal = 1;
origin = "{0, 0}";
target = down;
type = TopGhost;
},
{
origin = "{0, 1}";
target = "{0, 2}";
}
);
layerId = UUID0;
paths = (
{
closed = 1;
nodes = (
"110 730 LINE",
"110 0 LINE",
"182 0 LINE",
"182 730 LINE"
);
},
{
closed = 1;
nodes = (
"570 0 LINE",
"316 378 LINE",
"240 378 LINE",
"492 0 LINE"
);
},
{
closed = 1;
nodes = (
"141 343 LINE",
"306 343 LINE",
"306 397 LINE",
"141 397 LINE"
);
},
{
closed = 1;
nodes = (
"482 730 LINE",
"240 353 LINE",
"313 353 LINE",
"558 730 LINE"
);
}
);
width = 590;
},
{
anchors = (
{
name = bottom;
position = "{335, 0}";
},
{
name = top;
position = "{335, 730}";
}
);
layerId = UUID1;
paths = (
{
closed = 1;
nodes = (
"90 730 LINE",
"90 0 LINE",
"242 0 LINE",
"242 730 LINE"
);
},
{
closed = 1;
nodes = (
"639 0 LINE",
"392 387 LINE",
"231 387 LINE",
"477 0 LINE"
);
},
{
closed = 1;
nodes = (
"171 314 LINE",
"356 314 LINE",
"356 428 LINE",
"171 428 LINE"
);
},
{
closed = 1;
nodes = (
"462 730 LINE",
"240 353 LINE",
"392 353 LINE",
"618 730 LINE"
);
}
);
width = 629;
}
);
unicode = 004B;
},
{
glyphname = L;
lastChange = "2017-11-28 17:57:31 +0000";
layers = (
{
anchors = (
{
name = bottom;
position = "{287, 0}";
},
{
name = center;
position = "{146, 365}";
},
{
name = top;
position = "{146, 730}";
},
{
name = topright;
position = "{276, 572}";
}
);
hints = (
{
horizontal = 1;
origin = "{0, 2}";
target = "{0, 5}";
},
{
horizontal = 1;
origin = "{0, 1}";
target = down;
type = TopGhost;
},
{
origin = "{0, 2}";
target = "{0, 6}";
}
);
layerId = UUID0;
paths = (
{
closed = 1;
nodes = (
"182 730 LINE",
"110 730 LINE",
"110 0 LINE",
"462 0 LINE",
"462 59 LINE",
"159 59 LINE",
"182 36 LINE"
);
}
);
width = 482;
},
{
anchors = (
{
name = bottom;
position = "{242, 0}";
},
{
name = center;
position = "{166, 365}";
},
{
name = top;
position = "{166, 730}";
},
{
name = topright;
position = "{286, 572}";
}
);
layerId = UUID1;
paths = (
{
closed = 1;
nodes = (
"242 730 LINE",
"90 730 LINE",
"90 0 LINE",
"483 0 LINE",
"483 116 LINE",
"214 116 LINE",
"242 88 LINE"
);
}
);
width = 483;
}
);
rightKerningGroup = L;
unicode = 004C;
},
{
glyphname = M;
lastChange = "2017-11-28 17:57:31 +0000";
layers = (
{
anchors = (
{
name = bottom;
position = "{438, 0}";
},
{
name = top;
position = "{438, 730}";
}
);
hints = (
{
place = "{100, 89}";
},
{
place = "{705, 50}";
},
{
horizontal = 1;
place = "{730, -20}";
target = down;
type = TopGhost;
},
{
horizontal = 1;
place = "{21, 21}";
target = up;
type = BottomGhost;
}
);
layerId = UUID0;
paths = (
{
closed = 1;
nodes = (
"120 730 LINE",
"100 0 LINE",
"170 0 LINE",
"189 730 LINE"
);
},
{
closed = 1;
nodes = (
"659 730 LINE",
"404 54 LINE",
"470 54 LINE",
"727 730 LINE"
);
},
{
closed = 1;
nodes = (
"687 730 LINE",
"704 0 LINE",
"774 0 LINE",
"755 730 LINE"
);
},
{
closed = 1;
nodes = (
"470 54 LINE",
"216 730 LINE",
"148 730 LINE",
"404 54 LINE"
);
}
);
width = 874;
},
{
anchors = (
{
name = bottom;
position = "{444, 0}";
},
{
name = top;
position = "{444, 730}";
}
);
layerId = UUID1;
paths = (
{
closed = 1;
nodes = (
"98 730 LINE",
"80 0 LINE",
"230 0 LINE",
"243 730 LINE"
);
},
{
closed = 1;
nodes = (
"575 730 LINE",
"377 95 LINE",
"509 95 LINE",
"711 730 LINE"
);
},
{
closed = 1;
nodes = (
"644 730 LINE",
"656 0 LINE",
"806 0 LINE",
"789 730 LINE"
);
},
{
closed = 1;
nodes = (
"509 95 LINE",
"312 730 LINE",
"176 730 LINE",
"377 95 LINE"
);
}
);
width = 886;
}
);
unicode = 004D;
},
{
glyphname = N;
lastChange = "2017-11-28 17:57:31 +0000";
layers = (
{
anchors = (
{
name = bottom;
position = "{370, 0}";
},
{
name = top;
position = "{370, 730}";
}
);
hints = (
{
place = "{110, 72}";
},
{
place = "{558, 72}";
},
{
horizontal = 1;
place = "{730, -20}";
target = down;
type = TopGhost;
},
{
horizontal = 1;
place = "{21, 21}";
target = up;
type = BottomGhost;
}
);
layerId = UUID0;
paths = (
{
closed = 1;
nodes = (
"110 730 LINE",
"110 0 LINE",
"182 0 LINE",
"182 730 LINE"
);
},
{
closed = 1;
nodes = (
"558 730 LINE",
"558 0 LINE",
"630 0 LINE",
"630 730 LINE"
);
},
{
closed = 1;
nodes = (
"110 730 LINE",
"550 0 LINE",
"630 0 LINE",
"190 730 LINE"
);
}
);
width = 740;
},
{
anchors = (
{
name = bottom;
position = "{381, 0}";
},
{
name = top;
position = "{381, 730}";
}
);
layerId = UUID1;
paths = (
{
closed = 1;
nodes = (
"90 730 LINE",
"90 0 LINE",
"242 0 LINE",
"242 730 LINE"
);
},
{
closed = 1;
nodes = (
"519 730 LINE",
"519 0 LINE",
"671 0 LINE",
"671 730 LINE"
);
},
{
closed = 1;
nodes = (
"90 730 LINE",
"511 0 LINE",
"671 0 LINE",
"250 730 LINE"
);
}
);
width = 761;
}
);
unicode = 004E;
},
{
glyphname = Eng;
lastChange = "2017-11-28 17:57:31 +0000";
layers = (
{
hints = (
{
place = "{110, 72}";
},
{
place = "{558, 72}";
},
{
horizontal = 1;
place = "{-231, 55}";
},
{
horizontal = 1;
place = "{21, 21}";
target = up;
type = BottomGhost;
},
{
horizontal = 1;
place = "{730, -20}";
target = down;
type = TopGhost;
}
);
layerId = UUID0;
paths = (
{
closed = 1;
nodes = (
"373 -214 LINE",
"406 -227 OFFCURVE",
"438 -231 OFFCURVE",
"475 -231 CURVE SMOOTH",
"554 -231 OFFCURVE",
"630 -199 OFFCURVE",
"630 -74 CURVE SMOOTH",
"630 0 LINE",
"558 0 LINE",
"558 -74 LINE SMOOTH",
"558 -145 OFFCURVE",
"530 -176 OFFCURVE",
"472 -176 CURVE SMOOTH",
"434 -176 OFFCURVE",
"412 -170 OFFCURVE",
"391 -161 CURVE"
);
},
{
closed = 1;
nodes = (
"110 730 LINE",
"110 0 LINE",
"182 0 LINE",
"182 730 LINE"
);
},
{
closed = 1;
nodes = (
"558 730 LINE",
"558 0 LINE",
"630 0 LINE",
"630 730 LINE"
);
},
{
closed = 1;
nodes = (
"110 730 LINE",
"562 0 LINE",
"630 20 LINE",
"190 730 LINE"
);
}
);
width = 740;
},
{
layerId = UUID1;
paths = (
{
closed = 1;
nodes = (
"373 -186 LINE",
"406 -197 OFFCURVE",
"437 -204 OFFCURVE",
"491 -204 CURVE SMOOTH",
"584 -204 OFFCURVE",
"671 -170 OFFCURVE",
"671 -38 CURVE SMOOTH",
"671 0 LINE",
"519 0 LINE",
"519 -38 LINE SMOOTH",
"519 -68 OFFCURVE",
"507 -86 OFFCURVE",
"474 -86 CURVE SMOOTH",
"453 -86 OFFCURVE",
"433 -82 OFFCURVE",
"410 -73 CURVE"
);
},
{
closed = 1;
nodes = (
"90 730 LINE",
"90 0 LINE",
"242 0 LINE",
"242 730 LINE"
);
},
{
closed = 1;
nodes = (
"519 730 LINE",
"519 0 LINE",
"671 0 LINE",
"671 730 LINE"
);
},
{
closed = 1;
nodes = (
"90 730 LINE",
"523 0 LINE",
"671 20 LINE",
"250 730 LINE"
);
}
);
width = 761;
}
);
unicode = 014A;
},
{
glyphname = O;
lastChange = "2017-11-28 17:57:31 +0000";
layers = (
{
anchors = (
{
name = bottom;
position = "{363, 0}";
},
{
name = center;
position = "{363, 365}";
},
{
name = ogonek;
position = "{419, 0}";
},
{
name = top;
position = "{363, 730}";
},
{
name = topleft;
position = "{20, 730}";
},
{
name = topright;
position = "{456, 730}";
}
);
hints = (
{
place = "{80, 72}";
},
{
place = "{573, 72}";
},
{
horizontal = 1;
place = "{-14, 60}";
},
{
horizontal = 1;
place = "{684, 60}";
}
);
layerId = UUID0;
paths = (
{
closed = 1;
nodes = (
"591 -14 OFFCURVE",
"645 152 OFFCURVE",
"645 365 CURVE SMOOTH",
"645 576 OFFCURVE",
"591 744 OFFCURVE",
"362 744 CURVE SMOOTH",
"132 744 OFFCURVE",
"80 576 OFFCURVE",
"80 365 CURVE SMOOTH",
"80 152 OFFCURVE",
"132 -14 OFFCURVE",
"362 -14 CURVE SMOOTH"
);
},
{
closed = 1;
nodes = (
"191 46 OFFCURVE",
"152 189 OFFCURVE",
"152 365 CURVE SMOOTH",
"152 541 OFFCURVE",
"191 684 OFFCURVE",
"362 684 CURVE SMOOTH",
"532 684 OFFCURVE",
"573 541 OFFCURVE",
"573 365 CURVE SMOOTH",
"573 189 OFFCURVE",
"532 46 OFFCURVE",
"362 46 CURVE SMOOTH"
);
}
);
width = 725;
},
{
anchors = (
{
name = bottom;
position = "{353, 0}";
},
{
name = center;
position = "{353, 365}";
},
{
name = ogonek;
position = "{422, 0}";
},
{
name = top;
position = "{353, 730}";
},
{
name = topleft;
position = "{20, 730}";
},
{
name = topright;
position = "{454, 730}";
}
);
layerId = UUID1;
paths = (
{
closed = 1;
nodes = (
"597 -14 OFFCURVE",
"655 152 OFFCURVE",
"655 365 CURVE SMOOTH",
"655 576 OFFCURVE",
"597 744 OFFCURVE",
"352 744 CURVE SMOOTH",
"106 744 OFFCURVE",
"50 576 OFFCURVE",
"50 365 CURVE SMOOTH",
"50 152 OFFCURVE",
"106 -14 OFFCURVE",
"352 -14 CURVE SMOOTH"
);
},
{
closed = 1;
nodes = (
"230 107 OFFCURVE",
"202 222 OFFCURVE",
"202 365 CURVE SMOOTH",
"202 508 OFFCURVE",
"230 623 OFFCURVE",
"352 623 CURVE SMOOTH",
"473 623 OFFCURVE",
"503 508 OFFCURVE",
"503 365 CURVE SMOOTH",
"503 222 OFFCURVE",
"473 107 OFFCURVE",
"352 107 CURVE SMOOTH"
);
}
);
width = 705;
}
);
unicode = 004F;
},
{
glyphname = OE;
lastChange = "2017-11-28 17:57:31 +0000";
layers = (
{
anchors = (
{
name = bottom;
position = "{517, 0}";
},
{
name = top;
position = "{517, 730}";
}
);
hints = (
{
place = "{80, 72}";
},
{
place = "{563, 72}";
},
{
horizontal = 1;
place = "{0, 59}";
},
{
horizontal = 1;
place = "{341, 60}";
},
{
horizontal = 1;
place = "{671, 59}";
}
);
layerId = UUID0;
paths = (
{
closed = 1;
nodes = (
"582 0 OFFCURVE",
"635 137 OFFCURVE",
"635 365 CURVE SMOOTH",
"635 591 OFFCURVE",
"582 730 OFFCURVE",
"357 730 CURVE SMOOTH",
"132 730 OFFCURVE",
"80 591 OFFCURVE",
"80 365 CURVE SMOOTH",
"80 137 OFFCURVE",
"132 0 OFFCURVE",
"357 0 CURVE SMOOTH"
);
},
{
closed = 1;
nodes = (
"190 59 OFFCURVE",
"152 176 OFFCURVE",
"152 365 CURVE SMOOTH",
"152 554 OFFCURVE",
"190 671 OFFCURVE",
"357 671 CURVE SMOOTH",
"523 671 OFFCURVE",
"563 554 OFFCURVE",
"563 365 CURVE SMOOTH",
"563 176 OFFCURVE",
"523 59 OFFCURVE",
"357 59 CURVE SMOOTH"
);
},
{
closed = 1;
nodes = (
"357 671 LINE",
"903 671 LINE",
"903 730 LINE",
"357 730 LINE"
);
},
{
closed = 1;
nodes = (
"357 0 LINE",
"923 0 LINE",
"923 59 LINE",
"357 59 LINE"
);
},
{
closed = 1;
nodes = (
"625 341 LINE",
"883 341 LINE",
"883 401 LINE",
"625 401 LINE"
);
}
);
width = 973;
},
{
anchors = (
{
name = bottom;
position = "{492, 0}";
},
{
name = top;
position = "{492, 730}";
}
);
layerId = UUID1;
paths = (
{
closed = 1;
nodes = (
"588 0 OFFCURVE",
"645 160 OFFCURVE",
"645 365 CURVE SMOOTH",
"645 568 OFFCURVE",
"588 730 OFFCURVE",
"347 730 CURVE SMOOTH",
"106 730 OFFCURVE",
"50 568 OFFCURVE",
"50 365 CURVE SMOOTH",
"50 160 OFFCURVE",
"106 0 OFFCURVE",
"347 0 CURVE SMOOTH"
);
},
{
closed = 1;
nodes = (
"229 121 OFFCURVE",
"202 228 OFFCURVE",
"202 365 CURVE SMOOTH",
"202 502 OFFCURVE",
"229 609 OFFCURVE",
"347 609 CURVE SMOOTH",
"465 609 OFFCURVE",
"493 502 OFFCURVE",
"493 365 CURVE SMOOTH",
"493 228 OFFCURVE",
"465 121 OFFCURVE",
"347 121 CURVE SMOOTH"
);
},
{
closed = 1;
nodes = (
"348 614 LINE",
"893 614 LINE",
"893 730 LINE",
"348 730 LINE"
);
},
{
closed = 1;
nodes = (
"347 0 LINE",
"913 0 LINE",
"913 116 LINE",
"347 116 LINE"
);
},
{
closed = 1;
nodes = (
"635 314 LINE",
"867 314 LINE",
"867 428 LINE",
"635 428 LINE"
);
}
);
width = 943;
}
);
leftMetricsKey = O;
rightMetricsKey = E;
unicode = 0152;
},
{
glyphname = P;
lastChange = "2017-11-28 17:57:31 +0000";
layers = (
{
anchors = (
{
name = bottom;
position = "{293, 0}";
},
{
name = top;
position = "{293, 730}";
}
);
hints = (
{
place = "{110, 72}";
},
{
place = "{464, 72}";
},
{
horizontal = 1;
place = "{275, 59}";
},
{
horizontal = 1;
place = "{671, 59}";
},
{
horizontal = 1;
place = "{21, 21}";
target = up;
type = BottomGhost;
}
);
layerId = UUID0;
paths = (
{
closed = 1;
nodes = (
"182 694 LINE",
"159 671 LINE",
"313 671 LINE SMOOTH",
"429 671 OFFCURVE",
"464 597 OFFCURVE",
"464 502 CURVE SMOOTH",
"464 408 OFFCURVE",
"429 334 OFFCURVE",
"313 334 CURVE SMOOTH",
"167 334 LINE",
"167 275 LINE",
"313 275 LINE SMOOTH",
"494 275 OFFCURVE",
"536 385 OFFCURVE",
"536 502 CURVE SMOOTH",
"536 620 OFFCURVE",
"494 730 OFFCURVE",
"313 730 CURVE SMOOTH",
"110 730 LINE",
"110 0 LINE",
"182 0 LINE"
);
}
);
width = 586;
},
{
anchors = (
{
name = bottom;
position = "{300, 0}";
},
{
name = top;
position = "{300, 730}";
}
);
layerId = UUID1;
paths = (
{
closed = 1;
nodes = (
"242 642 LINE",
"214 614 LINE",
"328 614 LINE SMOOTH",
"404 614 OFFCURVE",
"438 571 OFFCURVE",
"438 492 CURVE SMOOTH",
"438 414 OFFCURVE",
"404 371 OFFCURVE",
"328 371 CURVE SMOOTH",
"226 371 LINE",
"226 255 LINE",
"354 255 LINE SMOOTH",
"538 255 OFFCURVE",
"590 370 OFFCURVE",
"590 492 CURVE SMOOTH",
"590 615 OFFCURVE",
"538 730 OFFCURVE",
"354 730 CURVE SMOOTH",
"90 730 LINE",
"90 0 LINE",
"242 0 LINE"
);
}
);
width = 600;
}
);
unicode = 0050;
},
{
glyphname = Thorn;
lastChange = "2017-11-28 17:57:31 +0000";
layers = (
{
hints = (
{
place = "{110, 72}";
},
{
place = "{457, 72}";
},
{
horizontal = 1;
place = "{137, 64}";
},
{
horizontal = 1;
place = "{528, 64}";
},
{
horizontal = 1;
place = "{730, -20}";
target = down;
type = TopGhost;
},
{
horizontal = 1;
place = "{21, 21}";
target = up;
type = BottomGhost;
}
);
layerId = UUID0;
paths = (
{
closed = 1;
nodes = (
"110 730 LINE",
"110 0 LINE",
"182 0 LINE",
"182 730 LINE"
);
},
{
closed = 1;
nodes = (
"310 137 LINE SMOOTH",
"488 137 OFFCURVE",
"529 247 OFFCURVE",
"529 364 CURVE SMOOTH",
"529 482 OFFCURVE",
"488 592 OFFCURVE",
"310 592 CURVE SMOOTH",
"110 592 LINE",
"110 137 LINE"
);
},
{
closed = 1;
nodes = (
"182 201 LINE",
"182 528 LINE",
"310 528 LINE SMOOTH",
"433 528 OFFCURVE",
"457 449 OFFCURVE",
"457 364 CURVE SMOOTH",
"457 280 OFFCURVE",
"433 201 OFFCURVE",
"310 201 CURVE SMOOTH"
);
}
);
width = 579;
},
{
layerId = UUID1;
paths = (
{
closed = 1;
nodes = (
"90 730 LINE",
"90 0 LINE",
"242 0 LINE",
"242 730 LINE"
);
},
{
closed = 1;
nodes = (
"350 137 LINE SMOOTH",
"528 137 OFFCURVE",
"579 247 OFFCURVE",
"579 364 CURVE SMOOTH",
"579 482 OFFCURVE",
"528 592 OFFCURVE",
"350 592 CURVE SMOOTH",
"90 592 LINE",
"90 137 LINE"
);
},
{
closed = 1;
nodes = (
"242 259 LINE",
"242 470 LINE",
"323 470 LINE SMOOTH",
"404 470 OFFCURVE",
"427 427 OFFCURVE",
"427 364 CURVE SMOOTH",
"427 302 OFFCURVE",
"404 259 OFFCURVE",
"323 259 CURVE SMOOTH"
);
}
);
width = 589;
}
);
unicode = 00DE;
},
{
glyphname = Q;
lastChange = "2017-11-28 17:57:31 +0000";
layers = (
{
anchors = (
{
name = bottom;
position = "{358, 0}";
},
{
name = top;
position = "{358, 730}";
}
);
hints = (
{
place = "{80, 72}";
},
{
place = "{563, 72}";
},
{
horizontal = 1;
place = "{-14, 60}";
},
{
horizontal = 1;
place = "{684, 60}";
},
{
horizontal = 1;
place = "{-117, 21}";
target = up;
type = BottomGhost;
}
);
layerId = UUID0;
paths = (
{
closed = 1;
nodes = (
"327 -12 LINE",
"581 -138 LINE",
"611 -83 LINE",
"351 35 LINE"
);
},
{
closed = 1;
nodes = (
"582 -14 OFFCURVE",
"635 128 OFFCURVE",
"635 365 CURVE SMOOTH",
"635 600 OFFCURVE",
"582 744 OFFCURVE",
"357 744 CURVE SMOOTH",
"132 744 OFFCURVE",
"80 600 OFFCURVE",
"80 365 CURVE SMOOTH",
"80 128 OFFCURVE",
"132 -14 OFFCURVE",
"357 -14 CURVE SMOOTH"
);
},
{
closed = 1;
nodes = (
"190 46 OFFCURVE",
"152 168 OFFCURVE",
"152 365 CURVE SMOOTH",
"152 562 OFFCURVE",
"190 684 OFFCURVE",
"357 684 CURVE SMOOTH",
"523 684 OFFCURVE",
"563 562 OFFCURVE",
"563 365 CURVE SMOOTH",
"563 168 OFFCURVE",
"523 46 OFFCURVE",
"357 46 CURVE SMOOTH"
);
}
);
width = 715;
},
{
anchors = (
{
name = bottom;
position = "{348, 0}";
},
{
name = top;
position = "{348, 730}";
}
);
layerId = UUID1;
paths = (
{
closed = 1;
nodes = (
"317 -12 LINE",
"586 -145 LINE",
"646 -28 LINE",
"368 90 LINE"
);
},
{
closed = 1;
nodes = (
"588 -14 OFFCURVE",
"645 128 OFFCURVE",
"645 365 CURVE SMOOTH",
"645 600 OFFCURVE",
"588 744 OFFCURVE",
"347 744 CURVE SMOOTH",
"106 744 OFFCURVE",
"50 600 OFFCURVE",
"50 365 CURVE SMOOTH",
"50 128 OFFCURVE",
"106 -14 OFFCURVE",
"347 -14 CURVE SMOOTH"
);
},
{
closed = 1;
nodes = (
"229 108 OFFCURVE",
"202 205 OFFCURVE",
"202 365 CURVE SMOOTH",
"202 525 OFFCURVE",
"229 622 OFFCURVE",
"347 622 CURVE SMOOTH",
"465 622 OFFCURVE",
"493 525 OFFCURVE",
"493 365 CURVE SMOOTH",
"493 205 OFFCURVE",
"465 108 OFFCURVE",
"347 108 CURVE SMOOTH"
);
}
);
width = 695;
}
);
unicode = 0051;
},
{
glyphname = R;
lastChange = "2017-11-28 17:57:31 +0000";
layers = (
{
anchors = (
{
name = bottom;
position = "{327, 0}";
},
{
name = top;
position = "{317, 730}";
}
);
hints = (
{
horizontal = 1;
origin = "{1, 10}";
target = "{1, 9}";
},
{
horizontal = 1;
origin = "{1, 18}";
target = "{1, 1}";
},
{
origin = "{1, 19}";
target = "{1, 20}";
},
{
origin = "{1, 5}";
target = "{1, 14}";
}
);
layerId = UUID0;
paths = (
{
closed = 1;
nodes = (
"261 305 LINE",
"327 305 OFFCURVE",
"366 295 OFFCURVE",
"391 237 CURVE SMOOTH",
"492 0 LINE",
"569 0 LINE",
"461 249 LINE SMOOTH",
"424 333 OFFCURVE",
"378 340 OFFCURVE",
"261 340 CURVE"
);
},
{
closed = 1;
nodes = (
"182 694 LINE",
"159 671 LINE",
"320 671 LINE SMOOTH",
"433 671 OFFCURVE",
"467 593 OFFCURVE",
"467 517 CURVE SMOOTH",
"467 441 OFFCURVE",
"433 364 OFFCURVE",
"320 364 CURVE SMOOTH",
"167 364 LINE",
"167 305 LINE",
"320 305 LINE SMOOTH",
"498 305 OFFCURVE",
"539 419 OFFCURVE",
"539 517 CURVE SMOOTH",
"539 616 OFFCURVE",
"498 730 OFFCURVE",
"320 730 CURVE SMOOTH",
"110 730 LINE",
"110 0 LINE",
"182 0 LINE"
);
}
);
width = 634;
},
{
anchors = (
{
name = bottom;
position = "{343, 0}";
},
{
name = top;
position = "{333, 730}";
}
);
layerId = UUID1;
paths = (
{
closed = 1;
nodes = (
"284 285 LINE",
"333 285 OFFCURVE",
"347 278 OFFCURVE",
"365 237 CURVE SMOOTH",
"469 0 LINE",
"631 0 LINE",
"520 249 LINE SMOOTH",
"479 342 OFFCURVE",
"428 360 OFFCURVE",
"284 360 CURVE"
);
},
{
closed = 1;
nodes = (
"242 642 LINE",
"214 614 LINE",
"336 614 LINE SMOOTH",
"415 614 OFFCURVE",
"448 563 OFFCURVE",
"448 507 CURVE SMOOTH",
"448 452 OFFCURVE",
"415 401 OFFCURVE",
"336 401 CURVE SMOOTH",
"226 401 LINE",
"226 285 LINE",
"356 285 LINE SMOOTH",
"556 285 OFFCURVE",
"600 404 OFFCURVE",
"600 507 CURVE SMOOTH",
"600 610 OFFCURVE",
"556 730 OFFCURVE",
"356 730 CURVE SMOOTH",
"90 730 LINE",
"90 0 LINE",
"242 0 LINE"
);
}
);
width = 666;
}
);
unicode = 0052;
},
{
glyphname = S;
lastChange = "2017-11-28 17:57:31 +0000";
layers = (
{
anchors = (
{
name = bottom;
position = "{309, 0}";
},
{
name = top;
position = "{309, 730}";
}
);
hints = (
{
place = "{75, 72}";
},
{
place = "{465, 72}";
},
{
horizontal = 1;
place = "{-14, 60}";
},
{
horizontal = 1;
place = "{684, 60}";
}
);
layerId = UUID0;
paths = (
{
closed = 1;
nodes = (
"157 744 OFFCURVE",
"75 674 OFFCURVE",
"75 544 CURVE SMOOTH",
"75 428 OFFCURVE",
"119 380 OFFCURVE",
"262 339 CURVE SMOOTH",
"332 319 LINE SMOOTH",
"432 291 OFFCURVE",
"465 257 OFFCURVE",
"465 183 CURVE SMOOTH",
"465 92 OFFCURVE",
"407 46 OFFCURVE",
"291 46 CURVE SMOOTH",
"193 46 OFFCURVE",
"133 93 OFFCURVE",
"119 180 CURVE",
"60 168 LINE",
"79 45 OFFCURVE",
"154 -14 OFFCURVE",
"291 -14 CURVE SMOOTH",
"451 -14 OFFCURVE",
"537 56 OFFCURVE",
"537 186 CURVE SMOOTH",
"537 301 OFFCURVE",
"491 349 OFFCURVE",
"342 391 CURVE SMOOTH",
"271 411 LINE SMOOTH",
"179 437 OFFCURVE",
"147 472 OFFCURVE",
"147 547 CURVE SMOOTH",
"147 639 OFFCURVE",
"202 684 OFFCURVE",
"312 684 CURVE SMOOTH",
"404 684 OFFCURVE",
"459 638 OFFCURVE",
"473 550 CURVE",
"532 562 LINE",
"513 686 OFFCURVE",
"443 744 OFFCURVE",
"311 744 CURVE SMOOTH"
);
}
);
width = 597;
},
{
anchors = (
{
name = bottom;
position = "{317, 0}";
},
{
name = top;
position = "{317, 730}";
}
);
layerId = UUID1;
paths = (
{
closed = 1;
nodes = (
"148 744 OFFCURVE",
"55 670 OFFCURVE",
"55 526 CURVE SMOOTH",
"55 399 OFFCURVE",
"108 337 OFFCURVE",
"246 305 CURVE SMOOTH",
"301 292 LINE SMOOTH",
"396 269 OFFCURVE",
"422 249 OFFCURVE",
"422 196 CURVE SMOOTH",
"422 136 OFFCURVE",
"376 103 OFFCURVE",
"295 103 CURVE SMOOTH",
"216 103 OFFCURVE",
"170 146 OFFCURVE",
"162 225 CURVE",
"40 207 LINE",
"58 56 OFFCURVE",
"138 -14 OFFCURVE",
"294 -14 CURVE SMOOTH",
"477 -14 OFFCURVE",
"574 61 OFFCURVE",
"574 203 CURVE SMOOTH",
"574 327 OFFCURVE",
"522 387 OFFCURVE",
"381 422 CURVE SMOOTH",
"319 438 LINE SMOOTH",
"232 460 OFFCURVE",
"207 481 OFFCURVE",
"207 533 CURVE SMOOTH",
"207 593 OFFCURVE",
"250 627 OFFCURVE",
"325 627 CURVE SMOOTH",
"398 627 OFFCURVE",
"441 584 OFFCURVE",
"449 505 CURVE",
"570 523 LINE",
"551 674 OFFCURVE",
"475 744 OFFCURVE",
"326 744 CURVE SMOOTH"
);
}
);
width = 614;
}
);
unicode = 0053;
},
{
glyphname = Germandbls;
lastChange = "2017-11-28 17:57:31 +0000";
layers = (
{
hints = (
{
horizontal = 1;
origin = "{1, 18}";
target = "{1, 11}";
},
{
horizontal = 1;
origin = "{1, 4}";
target = "{0, 10}";
},
{
horizontal = 1;
origin = "{0, 3}";
target = "{0, 18}";
},
{
origin = "{0, 22}";
target = "{0, 23}";
},
{
origin = "{1, 15}";
target = "{1, 14}";
},
{
origin = "{1, 8}";
target = "{1, 21}";
},
{
origin = "{0, 6}";
target = "{0, 15}";
}
);
layerId = UUID0;
paths = (
{
closed = 1;
nodes = (
"165 550 LINE SMOOTH",
"165 631 OFFCURVE",
"213 685 OFFCURVE",
"307 685 CURVE SMOOTH",
"410 685 OFFCURVE",
"454 632 OFFCURVE",
"454 551 CURVE SMOOTH",
"454 477 OFFCURVE",
"418 410 OFFCURVE",
"336 410 CURVE SMOOTH",
"268 410 LINE",
"268 366 LINE",
"336 366 LINE SMOOTH",
"441 366 OFFCURVE",
"524 443 OFFCURVE",
"524 550 CURVE SMOOTH",
"524 668 OFFCURVE",
"453 744 OFFCURVE",
"307 744 CURVE SMOOTH",
"175 744 OFFCURVE",
"95 668 OFFCURVE",
"95 550 CURVE SMOOTH",
"95 0 LINE",
"165 0 LINE"
);
},
{
closed = 1;
nodes = (
"581 331 OFFCURVE",
"500 400 OFFCURVE",
"395 400 CURVE SMOOTH",
"268 400 LINE",
"268 356 LINE",
"383 356 LINE SMOOTH",
"485 356 OFFCURVE",
"511 284 OFFCURVE",
"511 196 CURVE SMOOTH",
"511 120 OFFCURVE",
"482 45 OFFCURVE",
"395 45 CURVE SMOOTH",
"307 45 OFFCURVE",
"282 98 OFFCURVE",
"282 179 CURVE",
"223 179 LINE",
"223 61 OFFCURVE",
"267 -14 OFFCURVE",
"396 -14 CURVE SMOOTH",
"527 -14 OFFCURVE",
"581 81 OFFCURVE",
"581 197 CURVE SMOOTH"
);
}
);
width = 629;
},
{
layerId = UUID1;
paths = (
{
closed = 1;
nodes = (
"225 520 LINE SMOOTH",
"225 595 OFFCURVE",
"258 626 OFFCURVE",
"316 626 CURVE SMOOTH",
"377 626 OFFCURVE",
"412 594 OFFCURVE",
"412 520 CURVE SMOOTH",
"412 461 OFFCURVE",
"390 417 OFFCURVE",
"335 417 CURVE SMOOTH",
"287 417 LINE",
"287 325 LINE",
"314 325 LINE SMOOTH",
"440 325 OFFCURVE",
"562 416 OFFCURVE",
"562 540 CURVE SMOOTH",
"562 658 OFFCURVE",
"483 744 OFFCURVE",
"330 744 CURVE SMOOTH",
"166 744 OFFCURVE",
"75 678 OFFCURVE",
"75 520 CURVE SMOOTH",
"75 0 LINE",
"225 0 LINE"
);
},
{
closed = 1;
nodes = (
"631 318 OFFCURVE",
"550 389 OFFCURVE",
"414 389 CURVE SMOOTH",
"287 389 LINE",
"287 307 LINE",
"384 307 LINE SMOOTH",
"449 307 OFFCURVE",
"481 288 OFFCURVE",
"481 210 CURVE SMOOTH",
"481 149 OFFCURVE",
"468 104 OFFCURVE",
"428 104 CURVE SMOOTH",
"389 104 OFFCURVE",
"377 124 OFFCURVE",
"377 199 CURVE",
"255 199 LINE",
"255 41 OFFCURVE",
"315 -14 OFFCURVE",
"429 -14 CURVE SMOOTH",
"576 -14 OFFCURVE",
"631 81 OFFCURVE",
"631 187 CURVE SMOOTH"
);
}
);
width = 669;
}
);
leftMetricsKey = U;
rightMetricsKey = "=U*.5";
unicode = 1E9E;
},
{
glyphname = Schwa;
lastChange = "2017-11-28 17:57:31 +0000";
layers = (
{
hints = (
{
horizontal = 1;
origin = "{0, 25}";
target = "{0, 18}";
},
{
horizontal = 1;
origin = "{1, 3}";
target = "{1, 2}";
},
{
horizontal = 1;
origin = "{0, 5}";
target = "{0, 12}";
},
{
place = "{80, 73}";
},
{
origin = "{0, 15}";
target = "{0, 2}";
}
);
layerId = UUID0;
paths = (
{
closed = 1;
nodes = (
"533 -14 OFFCURVE",
"604 88 OFFCURVE",
"604 366 CURVE SMOOTH",
"604 638 OFFCURVE",
"526 744 OFFCURVE",
"328 744 CURVE SMOOTH",
"182 744 OFFCURVE",
"101 681 OFFCURVE",
"82 552 CURVE",
"145 540 LINE",
"160 634 OFFCURVE",
"223 684 OFFCURVE",
"328 684 CURVE SMOOTH",
"479 684 OFFCURVE",
"532 601 OFFCURVE",
"532 365 CURVE SMOOTH",
"532 125 OFFCURVE",
"484 46 OFFCURVE",
"337 46 CURVE SMOOTH",
"198 46 OFFCURVE",
"152 125 OFFCURVE",
"152 365 CURVE",
"80 366 LINE",
"80 87 OFFCURVE",
"149 -14 OFFCURVE",
"337 -14 CURVE SMOOTH"
);
},
{
closed = 1;
nodes = (
"568 315 LINE",
"568 365 LINE",
"102 365 LINE",
"143 315 LINE"
);
}
);
width = 684;
},
{
layerId = UUID1;
paths = (
{
closed = 1;
nodes = (
"540 -14 OFFCURVE",
"626 99 OFFCURVE",
"626 365 CURVE SMOOTH",
"626 636 OFFCURVE",
"540 744 OFFCURVE",
"325 744 CURVE SMOOTH",
"151 744 OFFCURVE",
"72 676 OFFCURVE",
"53 511 CURVE",
"179 490 LINE",
"189 581 OFFCURVE",
"234 622 OFFCURVE",
"325 622 CURVE SMOOTH",
"437 622 OFFCURVE",
"474 558 OFFCURVE",
"474 365 CURVE SMOOTH",
"474 179 OFFCURVE",
"434 108 OFFCURVE",
"328 108 CURVE SMOOTH",
"237 108 OFFCURVE",
"202 178 OFFCURVE",
"202 365 CURVE",
"50 365 LINE",
"50 89 OFFCURVE",
"128 -14 OFFCURVE",
"338 -14 CURVE SMOOTH"
);
},
{
closed = 1;
nodes = (
"550 269 LINE",
"550 365 LINE",
"60 365 LINE",
"163 269 LINE"
);
}
);
width = 676;
}
);
leftMetricsKey = O;
rightMetricsKey = O;
unicode = 018F;
},
{
glyphname = T;
lastChange = "2017-11-28 17:57:31 +0000";
layers = (
{
anchors = (
{
name = bottom;
position = "{244, 0}";
},
{
name = center;
position = "{244, 365}";
},
{
name = top;
position = "{244, 730}";
}
);
hints = (
{
horizontal = 1;
origin = "{0, 9}";
target = "{0, 0}";
},
{
origin = "{0, 3}";
target = "{0, 4}";
}
);
layerId = UUID0;
paths = (
{
closed = 1;
nodes = (
"10 671 LINE",
"231 671 LINE",
"208 694 LINE",
"208 0 LINE",
"280 0 LINE",
"280 694 LINE",
"257 671 LINE",
"477 671 LINE",
"477 730 LINE",
"10 730 LINE"
);
}
);
width = 487;
},
{
anchors = (
{
name = bottom;
position = "{261, 0}";
},
{
name = center;
position = "{261, 365}";
},
{
name = top;
position = "{261, 730}";
}
);
layerId = UUID1;
paths = (
{
closed = 1;
nodes = (
"10 616 LINE",
"213 616 LINE",
"185 644 LINE",
"185 0 LINE",
"337 0 LINE",
"337 644 LINE",
"309 616 LINE",
"512 616 LINE",
"512 730 LINE",
"10 730 LINE"
);
}
);
width = 522;
}
);
leftKerningGroup = T;
rightKerningGroup = T;
unicode = 0054;
},
{
glyphname = U;
lastChange = "2017-11-28 17:57:31 +0000";
layers = (
{
anchors = (
{
name = bottom;
position = "{348, 0}";
},
{
name = ogonek;
position = "{409, 0}";
},
{
name = top;
position = "{348, 730}";
},
{
name = topright;
position = "{548, 730}";
}
);
hints = (
{
place = "{95, 72}";
},
{
place = "{528, 72}";
},
{
horizontal = 1;
place = "{-14, 61}";
},
{
horizontal = 1;
place = "{730, -20}";
target = down;
type = TopGhost;
}
);
layerId = UUID0;
paths = (
{
closed = 1;
nodes = (
"528 730 LINE",
"528 241 LINE SMOOTH",
"528 68 OFFCURVE",
"432 47 OFFCURVE",
"347 47 CURVE SMOOTH",
"264 47 OFFCURVE",
"167 68 OFFCURVE",
"167 241 CURVE SMOOTH",
"167 730 LINE",
"95 730 LINE",
"95 241 LINE SMOOTH",
"95 10 OFFCURVE",
"230 -14 OFFCURVE",
"347 -14 CURVE SMOOTH",
"464 -14 OFFCURVE",
"600 10 OFFCURVE",
"600 241 CURVE SMOOTH",
"600 730 LINE"
);
}
);
width = 695;
},
{
anchors = (
{
name = bottom;
position = "{353, 0}";
},
{
name = ogonek;
position = "{422, 0}";
},
{
name = top;
position = "{353, 730}";
},
{
name = topright;
position = "{547, 730}";
}
);
layerId = UUID1;
paths = (
{
closed = 1;
nodes = (
"478 730 LINE",
"478 254 LINE SMOOTH",
"478 126 OFFCURVE",
"420 110 OFFCURVE",
"352 110 CURVE SMOOTH",
"285 110 OFFCURVE",
"227 126 OFFCURVE",
"227 254 CURVE SMOOTH",
"227 730 LINE",
"75 730 LINE",
"75 241 LINE SMOOTH",
"75 10 OFFCURVE",
"223 -14 OFFCURVE",
"352 -14 CURVE SMOOTH",
"482 -14 OFFCURVE",
"630 10 OFFCURVE",
"630 241 CURVE SMOOTH",
"630 730 LINE"
);
}
);
width = 705;
}
);
unicode = 0055;
},
{
glyphname = V;
lastChange = "2017-11-28 17:57:31 +0000";
layers = (
{
anchors = (
{
name = bottom;
position = "{304, 0}";
},
{
name = top;
position = "{304, 730}";
}
);
hints = (
{
horizontal = 1;
place = "{21, 21}";
target = up;
type = BottomGhost;
},
{
horizontal = 1;
place = "{730, -20}";
target = down;
type = TopGhost;
}
);
layerId = UUID0;
paths = (
{
closed = 1;
nodes = (
"324 0 LINE",
"104 730 LINE",
"30 730 LINE",
"255 0 LINE"
);
},
{
closed = 1;
nodes = (
"352 0 LINE",
"577 730 LINE",
"503 730 LINE",
"283 0 LINE"
);
}
);
width = 607;
},
{
anchors = (
{
name = bottom;
position = "{317, 0}";
},
{
name = top;
position = "{317, 730}";
}
);
layerId = UUID1;
paths = (
{
closed = 1;
nodes = (
"358 0 LINE",
"157 730 LINE",
"5 730 LINE",
"219 0 LINE"
);
},
{
closed = 1;
nodes = (
"415 0 LINE",
"629 730 LINE",
"477 730 LINE",
"276 0 LINE"
);
}
);
width = 634;
}
);
leftKerningGroup = V;
rightKerningGroup = V;
unicode = 0056;
},
{
glyphname = W;
lastChange = "2017-11-28 17:57:31 +0000";
layers = (
{
anchors = (
{
name = bottom;
position = "{430, 0}";
},
{
name = top;
position = "{430, 730}";
}
);
hints = (
{
horizontal = 1;
place = "{21, 21}";
target = up;
type = BottomGhost;
},
{
horizontal = 1;
place = "{730, -20}";
target = down;
type = TopGhost;
}
);
layerId = UUID0;
paths = (
{
closed = 1;
nodes = (
"264 0 LINE",
"104 730 LINE",
"30 730 LINE",
"195 0 LINE"
);
},
{
closed = 1;
nodes = (
"300 0 LINE",
"460 730 LINE",
"394 730 LINE",
"235 0 LINE"
);
},
{
closed = 1;
nodes = (
"664 0 LINE",
"829 730 LINE",
"755 730 LINE",
"595 0 LINE"
);
},
{
closed = 1;
nodes = (
"624 0 LINE",
"465 730 LINE",
"399 730 LINE",
"559 0 LINE"
);
}
);
width = 859;
},
{
anchors = (
{
name = bottom;
position = "{460, 0}";
},
{
name = top;
position = "{460, 730}";
}
);
layerId = UUID1;
paths = (
{
closed = 1;
nodes = (
"298 0 LINE",
"172 730 LINE",
"20 730 LINE",
"155 0 LINE"
);
},
{
closed = 1;
nodes = (
"375 0 LINE",
"523 730 LINE",
"384 730 LINE",
"240 0 LINE"
);
},
{
closed = 1;
nodes = (
"764 0 LINE",
"899 730 LINE",
"747 730 LINE",
"621 0 LINE"
);
},
{
closed = 1;
nodes = (
"679 0 LINE",
"535 730 LINE",
"396 730 LINE",
"544 0 LINE"
);
}
);
width = 919;
}
);
leftKerningGroup = V;
rightKerningGroup = V;
unicode = 0057;
},
{
glyphname = X;
lastChange = "2017-11-28 20:01:12 +0000";
layers = (
{
anchors = (
{
name = bottom;
position = "{316, 0}";
},
{
name = top;
position = "{316, 730}";
}
);
hints = (
{
horizontal = 1;
origin = "{1, 0}";
target = down;
type = TopGhost;
}
);
layerId = UUID0;
paths = (
{
closed = 1;
nodes = (
"498 730 LINE",
"308 417 LINE",
"350 362 LINE",
"579 730 LINE"
);
},
{
closed = 1;
nodes = (
"51 730 LINE",
"517 0 LINE",
"599 0 LINE",
"133 730 LINE"
);
},
{
closed = 1;
nodes = (
"115 0 LINE",
"325 346 LINE",
"284 401 LINE",
"34 0 LINE"
);
}
);
width = 631;
},
{
anchors = (
{
name = bottom;
position = "{310, 0}";
},
{
name = top;
position = "{310, 730}";
}
);
layerId = UUID1;
paths = (
{
closed = 1;
nodes = (
"471 730 LINE",
"283 417 LINE",
"391 339 LINE",
"629 730 LINE"
);
},
{
closed = 1;
nodes = (
"-6 730 LINE",
"470 0 LINE",
"643 0 LINE",
"167 730 LINE"
);
},
{
closed = 1;
nodes = (
"158 0 LINE",
"348 323 LINE",
"241 401 LINE",
"0 0 LINE"
);
}
);
width = 620;
}
);
unicode = 0058;
},
{
glyphname = Y;
lastChange = "2017-11-28 19:00:30 +0000";
layers = (
{
anchors = (
{
name = bottom;
position = "{271, 0}";
},
{
name = top;
position = "{271, 730}";
},
{
name = topleft;
position = "{20, 730}";
}
);
hints = (
{
place = "{235, 72}";
},
{
horizontal = 1;
place = "{255, 22}";
},
{
horizontal = 1;
place = "{21, 21}";
target = up;
type = BottomGhost;
},
{
horizontal = 1;
place = "{730, -20}";
target = down;
type = TopGhost;
}
);
layerId = UUID0;
paths = (
{
closed = 1;
nodes = (
"235 277 LINE",
"235 0 LINE",
"307 0 LINE",
"307 277 LINE"
);
},
{
closed = 1;
nodes = (
"305 253 LINE",
"84 730 LINE",
"10 730 LINE",
"235 255 LINE"
);
},
{
closed = 1;
nodes = (
"307 255 LINE",
"532 730 LINE",
"458 730 LINE",
"237 253 LINE"
);
}
);
width = 542;
},
{
anchors = (
{
name = bottom;
position = "{291, 0}";
},
{
name = top;
position = "{291, 730}";
},
{
name = topleft;
position = "{20, 730}";
}
);
layerId = UUID1;
paths = (
{
closed = 1;
nodes = (
"215 297 LINE",
"215 0 LINE",
"367 0 LINE",
"367 297 LINE"
);
},
{
closed = 1;
nodes = (
"356 251 LINE",
"142 730 LINE",
"-10 730 LINE",
"216 251 LINE"
);
},
{
closed = 1;
nodes = (
"366 251 LINE",
"592 730 LINE",
"440 730 LINE",
"226 251 LINE"
);
}
);
width = 582;
}
);
leftKerningGroup = Y;
rightKerningGroup = Y;
unicode = 0059;
},
{
glyphname = Z;
lastChange = "2017-11-28 17:57:31 +0000";
layers = (
{
anchors = (
{
name = bottom;
position = "{283, 0}";
},
{
name = top;
position = "{283, 730}";
}
);
hints = (
{
horizontal = 1;
place = "{0, 59}";
},
{
horizontal = 1;
place = "{671, 59}";
}
);
layerId = UUID0;
paths = (
{
closed = 1;
nodes = (
"49 671 LINE",
"440 671 LINE",
"429 691 LINE",
"30 46 LINE",
"30 0 LINE",
"515 0 LINE",
"515 59 LINE",
"95 59 LINE",
"106 39 LINE",
"505 684 LINE",
"505 730 LINE",
"50 730 LINE"
);
}
);
width = 545;
},
{
anchors = (
{
name = bottom;
position = "{293, 0}";
},
{
name = top;
position = "{293, 730}";
}
);
layerId = UUID1;
paths = (
{
closed = 1;
nodes = (
"40 614 LINE",
"382 614 LINE",
"369 638 LINE",
"20 96 LINE",
"20 0 LINE",
"546 0 LINE",
"546 116 LINE",
"174 116 LINE",
"187 92 LINE",
"536 634 LINE",
"536 730 LINE",
"40 730 LINE"
);
}
);
width = 566;
}
);
unicode = 005A;
},
{
glyphname = a;
lastChange = "2017-11-28 17:57:31 +0000";
layers = (
{
anchors = (
{
name = bottom;
position = "{292, 0}";
},
{
name = ogonek;
position = "{483, 0}";
},
{
name = top;
position = "{292, 572}";
}
);
hints = (
{
horizontal = 1;
origin = "{0, 18}";
target = "{0, 3}";
},
{
horizontal = 1;
origin = "{0, 27}";
target = "{0, 34}";
},
{
origin = "{0, 15}";
target = "{0, 6}";
},
{
origin = "{0, 0}";
target = "{0, 23}";
}
);
layerId = UUID0;
paths = (
{
closed = 1;
nodes = (
"413 149 LINE",
"358 90 OFFCURVE",
"297 42 OFFCURVE",
"217 42 CURVE SMOOTH",
"150 42 OFFCURVE",
"125 82 OFFCURVE",
"125 131 CURVE SMOOTH",
"125 185 OFFCURVE",
"152 229 OFFCURVE",
"257 247 CURVE SMOOTH",
"426 276 LINE",
"426 328 LINE",
"253 300 LINE SMOOTH",
"90 273 OFFCURVE",
"55 212 OFFCURVE",
"55 131 CURVE SMOOTH",
"55 50 OFFCURVE",
"91 -14 OFFCURVE",
"200 -14 CURVE SMOOTH",
"300 -14 OFFCURVE",
"375 48 OFFCURVE",
"418 95 CURVE",
"436 0 LINE",
"483 0 LINE",
"483 386 LINE SMOOTH",
"483 550 OFFCURVE",
"396 586 OFFCURVE",
"285 586 CURVE SMOOTH",
"173 586 OFFCURVE",
"107 524 OFFCURVE",
"87 431 CURVE",
"145 414 LINE",
"159 483 OFFCURVE",
"205 527 OFFCURVE",
"285 527 CURVE SMOOTH",
"356 527 OFFCURVE",
"413 502 OFFCURVE",
"413 386 CURVE SMOOTH"
);
}
);
width = 583;
},
{
anchors = (
{
name = bottom;
position = "{310, 0}";
},
{
name = ogonek;
position = "{520, 0}";
},
{
name = top;
position = "{310, 572}";
}
);
layerId = UUID1;
paths = (
{
closed = 1;
nodes = (
"370 151 LINE",
"346 127 OFFCURVE",
"306 94 OFFCURVE",
"251 94 CURVE SMOOTH",
"212 94 OFFCURVE",
"189 117 OFFCURVE",
"189 149 CURVE SMOOTH",
"189 178 OFFCURVE",
"195 219 OFFCURVE",
"289 235 CURVE SMOOTH",
"386 252 LINE",
"386 343 LINE",
"261 325 LINE SMOOTH",
"81 299 OFFCURVE",
"44 233 OFFCURVE",
"44 141 CURVE SMOOTH",
"44 53 OFFCURVE",
"97 -14 OFFCURVE",
"201 -14 CURVE SMOOTH",
"283 -14 OFFCURVE",
"345 27 OFFCURVE",
"381 64 CURVE",
"423 0 LINE",
"520 0 LINE",
"520 387 LINE SMOOTH",
"520 550 OFFCURVE",
"409 586 OFFCURVE",
"298 586 CURVE SMOOTH",
"167 586 OFFCURVE",
"103 528 OFFCURVE",
"78 425 CURVE",
"194 390 LINE",
"204 449 OFFCURVE",
"242 472 OFFCURVE",
"288 472 CURVE SMOOTH",
"328 472 OFFCURVE",
"370 457 OFFCURVE",
"370 386 CURVE SMOOTH"
);
}
);
width = 600;
}
);
leftKerningGroup = a;
unicode = 0061;
},
{
glyphname = ae;
lastChange = "2017-11-28 18:11:56 +0000";
layers = (
{
anchors = (
{
name = bottom;
position = "{469, 0}";
},
{
name = top;
position = "{469, 572}";
}
);
hints = (
{
horizontal = 1;
origin = "{0, 14}";
target = "{3, 6}";
},
{
horizontal = 1;
origin = "{2, 0}";
target = "{2, 4}";
},
{
horizontal = 1;
origin = "{0, 22}";
target = "{0, 3}";
},
{
origin = "{0, 11}";
target = "{1, 2}";
},
{
place = "{413, 73}";
},
{
place = "{811, 71}";
},
{
origin = "{3, 3}";
target = "{3, 2}";
}
);
layerId = UUID0;
paths = (
{
closed = 1;
nodes = (
"143 414 LINE",
"157 483 OFFCURVE",
"205 527 OFFCURVE",
"285 527 CURVE SMOOTH",
"356 527 OFFCURVE",
"413 502 OFFCURVE",
"413 386 CURVE SMOOTH",
"413 331 LINE",
"253 303 LINE SMOOTH",
"90 275 OFFCURVE",
"55 212 OFFCURVE",
"55 131 CURVE SMOOTH",
"55 50 OFFCURVE",
"94 -14 OFFCURVE",
"203 -14 CURVE SMOOTH",
"303 -14 OFFCURVE",
"382 47 OFFCURVE",
"448 129 CURVE",
"483 300 LINE",
"483 386 LINE SMOOTH",
"483 550 OFFCURVE",
"396 586 OFFCURVE",
"285 586 CURVE SMOOTH",
"170 586 OFFCURVE",
"107 524 OFFCURVE",
"87 431 CURVE"
);
},
{
closed = 1;
nodes = (
"149 43 OFFCURVE",
"123 83 OFFCURVE",
"123 131 CURVE SMOOTH",
"123 185 OFFCURVE",
"150 227 OFFCURVE",
"257 247 CURVE SMOOTH",
"413 276 LINE",
"413 240 OFFCURVE",
"418 198 OFFCURVE",
"423 162 CURVE",
"370 97 OFFCURVE",
"298 43 OFFCURVE",
"218 43 CURVE SMOOTH"
);
},
{
closed = 1;
nodes = (
"451 282 LINE",
"882 282 LINE",
"882 298 LINE",
"876 337 LINE",
"451 337 LINE"
);
},
{
closed = 1;
nodes = (
"812 -14 OFFCURVE",
"863 72 OFFCURVE",
"873 168 CURVE",
"815 171 LINE",
"808 99 OFFCURVE",
"769 45 OFFCURVE",
"651 45 CURVE SMOOTH",
"522 45 OFFCURVE",
"484 122 OFFCURVE",
"484 286 CURVE SMOOTH",
"484 405 OFFCURVE",
"507 527 OFFCURVE",
"648 527 CURVE SMOOTH",
"790 527 OFFCURVE",
"812 421 OFFCURVE",
"812 298 CURVE",
"882 298 LINE",
"882 447 OFFCURVE",
"838 586 OFFCURVE",
"649 586 CURVE SMOOTH",
"459 586 OFFCURVE",
"414 441 OFFCURVE",
"414 286 CURVE SMOOTH",
"414 92 OFFCURVE",
"475 -14 OFFCURVE",
"653 -14 CURVE SMOOTH"
);
}
);
width = 937;
},
{
anchors = (
{
name = bottom;
position = "{449, 0}";
},
{
name = top;
position = "{449, 572}";
}
);
layerId = UUID1;
paths = (
{
closed = 1;
nodes = (
"193 390 LINE",
"203 449 OFFCURVE",
"240 472 OFFCURVE",
"284 472 CURVE SMOOTH",
"322 472 OFFCURVE",
"362 457 OFFCURVE",
"362 386 CURVE SMOOTH",
"362 344 LINE",
"257 327 LINE SMOOTH",
"81 297 OFFCURVE",
"44 233 OFFCURVE",
"44 141 CURVE SMOOTH",
"44 53 OFFCURVE",
"96 -14 OFFCURVE",
"198 -14 CURVE SMOOTH",
"317 -14 OFFCURVE",
"381 43 OFFCURVE",
"431 94 CURVE",
"512 300 LINE",
"512 387 LINE SMOOTH",
"512 550 OFFCURVE",
"403 586 OFFCURVE",
"294 586 CURVE SMOOTH",
"164 586 OFFCURVE",
"100 527 OFFCURVE",
"75 421 CURVE"
);
},
{
closed = 1;
nodes = (
"211 90 OFFCURVE",
"189 113 OFFCURVE",
"189 145 CURVE SMOOTH",
"189 174 OFFCURVE",
"195 211 OFFCURVE",
"286 228 CURVE SMOOTH",
"368 243 LINE",
"369 208 OFFCURVE",
"375 177 OFFCURVE",
"383 146 CURVE",
"353 118 OFFCURVE",
"301 90 OFFCURVE",
"248 90 CURVE SMOOTH"
);
},
{
closed = 1;
nodes = (
"424 255 LINE",
"870 255 LINE",
"870 296 LINE",
"864 355 LINE",
"424 355 LINE"
);
},
{
closed = 1;
nodes = (
"800 -14 OFFCURVE",
"853 66 OFFCURVE",
"862 164 CURVE",
"739 169 LINE",
"736 130 OFFCURVE",
"711 100 OFFCURVE",
"633 100 CURVE SMOOTH",
"548 100 OFFCURVE",
"512 139 OFFCURVE",
"512 270 CURVE SMOOTH",
"512 420 OFFCURVE",
"538 472 OFFCURVE",
"622 472 CURVE SMOOTH",
"707 472 OFFCURVE",
"725 413 OFFCURVE",
"725 296 CURVE",
"870 296 LINE",
"870 446 OFFCURVE",
"828 586 OFFCURVE",
"623 586 CURVE SMOOTH",
"416 586 OFFCURVE",
"367 441 OFFCURVE",
"367 286 CURVE SMOOTH",
"367 92 OFFCURVE",
"434 -14 OFFCURVE",
"627 -14 CURVE SMOOTH"
);
}
);
width = 895;
}
);
leftKerningGroup = a;
leftMetricsKey = a;
rightKerningGroup = o;
rightMetricsKey = e;
unicode = 00E6;
},
{
glyphname = b;
lastChange = "2017-11-28 17:57:31 +0000";
layers = (
{
anchors = (
{
name = bottom;
position = "{313, 0}";
},
{
name = top;
position = "{313, 770}";
}
);
hints = (
{
place = "{110, 70}";
},
{
place = "{496, 70}";
},
{
horizontal = 1;
place = "{-14, 59}";
},
{
horizontal = 1;
place = "{527, 59}";
},
{
horizontal = 1;
place = "{770, -20}";
target = down;
type = TopGhost;
},
{
horizontal = 1;
place = "{21, 21}";
target = up;
type = BottomGhost;
}
);
layerId = UUID0;
paths = (
{
closed = 1;
nodes = (
"180 85 LINE",
"180 770 LINE",
"110 760 LINE",
"110 0 LINE",
"157 0 LINE"
);
},
{
closed = 1;
nodes = (
"524 -14 OFFCURVE",
"566 131 OFFCURVE",
"566 286 CURVE SMOOTH",
"566 441 OFFCURVE",
"522 586 OFFCURVE",
"356 586 CURVE SMOOTH",
"279 586 OFFCURVE",
"197 550 OFFCURVE",
"134 500 CURVE",
"150 455 LINE",
"223 508 OFFCURVE",
"280 527 OFFCURVE",
"346 527 CURVE SMOOTH",
"461 527 OFFCURVE",
"496 405 OFFCURVE",
"496 286 CURVE SMOOTH",
"496 154 OFFCURVE",
"464 45 OFFCURVE",
"336 45 CURVE SMOOTH",
"282 45 OFFCURVE",
"202 73 OFFCURVE",
"145 134 CURVE",
"129 90 LINE",
"166 45 OFFCURVE",
"261 -14 OFFCURVE",
"356 -14 CURVE SMOOTH"
);
}
);
width = 626;
},
{
anchors = (
{
name = bottom;
position = "{315, 0}";
},
{
name = top;
position = "{315, 770}";
}
);
layerId = UUID1;
paths = (
{
closed = 1;
nodes = (
"240 85 LINE",
"240 760 LINE",
"90 750 LINE",
"90 0 LINE",
"158 0 LINE"
);
},
{
closed = 1;
nodes = (
"554 -14 OFFCURVE",
"599 131 OFFCURVE",
"599 286 CURVE SMOOTH",
"599 441 OFFCURVE",
"554 586 OFFCURVE",
"363 586 CURVE SMOOTH",
"280 586 OFFCURVE",
"199 552 OFFCURVE",
"144 515 CURVE",
"160 415 LINE",
"216 457 OFFCURVE",
"275 472 OFFCURVE",
"320 472 CURVE SMOOTH",
"417 472 OFFCURVE",
"449 390 OFFCURVE",
"449 286 CURVE SMOOTH",
"449 179 OFFCURVE",
"418 100 OFFCURVE",
"319 100 CURVE SMOOTH",
"255 100 OFFCURVE",
"194 130 OFFCURVE",
"146 189 CURVE",
"129 90 LINE",
"166 42 OFFCURVE",
"261 -14 OFFCURVE",
"363 -14 CURVE SMOOTH"
);
}
);
width = 629;
}
);
unicode = 0062;
},
{
glyphname = c;
lastChange = "2017-11-28 20:02:54 +0000";
layers = (
{
anchors = (
{
name = bottom;
position = "{292, 0}";
},
{
name = top;
position = "{292, 572}";
}
);
hints = (
{
place = "{60, 70}";
},
{
place = "{447, 57}";
},
{
horizontal = 1;
place = "{-14, 59}";
},
{
horizontal = 1;
place = "{527, 59}";
}
);
layerId = UUID0;
paths = (
{
closed = 1;
nodes = (
"130 403 OFFCURVE",
"155 527 OFFCURVE",
"294 527 CURVE SMOOTH",
"407 527 OFFCURVE",
"442 480 OFFCURVE",
"447 407 CURVE",
"504 416 LINE",
"496 516 OFFCURVE",
"446 586 OFFCURVE",
"295 586 CURVE SMOOTH",
"104 586 OFFCURVE",
"60 441 OFFCURVE",
"60 286 CURVE SMOOTH",
"60 131 OFFCURVE",
"104 -14 OFFCURVE",
"295 -14 CURVE SMOOTH",
"446 -14 OFFCURVE",
"496 58 OFFCURVE",
"504 162 CURVE",
"447 165 LINE",
"442 92 OFFCURVE",
"407 45 OFFCURVE",
"294 45 CURVE SMOOTH",
"155 45 OFFCURVE",
"130 169 OFFCURVE",
"130 286 CURVE SMOOTH"
);
}
);
width = 554;
},
{
anchors = (
{
name = bottom;
position = "{276, 0}";
},
{
name = top;
position = "{276, 572}";
}
);
layerId = UUID1;
paths = (
{
closed = 1;
nodes = (
"180 415 OFFCURVE",
"204 472 OFFCURVE",
"287 472 CURVE SMOOTH",
"360 472 OFFCURVE",
"392 440 OFFCURVE",
"394 367 CURVE",
"510 382 LINE",
"501 510 OFFCURVE",
"444 586 OFFCURVE",
"270 586 CURVE SMOOTH",
"68 586 OFFCURVE",
"30 445 OFFCURVE",
"30 286 CURVE SMOOTH",
"30 131 OFFCURVE",
"68 -14 OFFCURVE",
"270 -14 CURVE SMOOTH",
"445 -14 OFFCURVE",
"503 66 OFFCURVE",
"512 200 CURVE",
"394 205 LINE",
"392 132 OFFCURVE",
"360 100 OFFCURVE",
"287 100 CURVE SMOOTH",
"204 100 OFFCURVE",
"180 157 OFFCURVE",
"180 286 CURVE SMOOTH"
);
}
);
width = 532;
}
);
leftKerningGroup = c;
unicode = 0063;
},
{
glyphname = d;
lastChange = "2017-11-28 17:57:31 +0000";
layers = (
{
anchors = (
{
name = bottom;
position = "{313, 0}";
},
{
name = center;
position = "{446, 662}";
},
{
name = top;
position = "{481, 730}";
},
{
name = topright;
position = "{606, 572}";
}
);
hints = (
{
place = "{60, 70}";
},
{
place = "{446, 70}";
},
{
horizontal = 1;
place = "{-14, 59}";
},
{
horizontal = 1;
place = "{529, 57}";
},
{
horizontal = 1;
place = "{21, 21}";
target = up;
type = BottomGhost;
},
{
horizontal = 1;
place = "{770, -20}";
target = down;
type = TopGhost;
}
);
layerId = UUID0;
paths = (
{
closed = 1;
nodes = (
"352 -14 OFFCURVE",
"441 72 OFFCURVE",
"484 136 CURVE",
"468 178 LINE",
"405 94 OFFCURVE",
"344 45 OFFCURVE",
"260 45 CURVE SMOOTH",
"165 45 OFFCURVE",
"130 147 OFFCURVE",
"130 286 CURVE SMOOTH",
"130 425 OFFCURVE",
"165 529 OFFCURVE",
"290 529 CURVE SMOOTH",
"337 529 OFFCURVE",
"405 514 OFFCURVE",
"466 471 CURVE",
"488 517 LINE",
"432 556 OFFCURVE",
"355 586 OFFCURVE",
"280 586 CURVE SMOOTH",
"102 586 OFFCURVE",
"60 441 OFFCURVE",
"60 286 CURVE SMOOTH",
"60 131 OFFCURVE",
"96 -14 OFFCURVE",
"241 -14 CURVE SMOOTH"
);
},
{
closed = 1;
nodes = (
"469 0 LINE",
"516 0 LINE",
"516 770 LINE",
"446 760 LINE",
"446 109 LINE"
);
}
);
width = 626;
},
{
anchors = (
{
name = bottom;
position = "{315, 0}";
},
{
name = center;
position = "{409, 662}";
},
{
name = top;
position = "{464, 730}";
},
{
name = topright;
position = "{609, 572}";
}
);
layerId = UUID1;
paths = (
{
closed = 1;
nodes = (
"342 -14 OFFCURVE",
"429 81 OFFCURVE",
"470 164 CURVE",
"454 250 LINE",
"405 155 OFFCURVE",
"348 100 OFFCURVE",
"288 100 CURVE SMOOTH",
"208 100 OFFCURVE",
"180 179 OFFCURVE",
"180 286 CURVE SMOOTH",
"180 404 OFFCURVE",
"213 472 OFFCURVE",
"308 472 CURVE SMOOTH",
"347 472 OFFCURVE",
"389 463 OFFCURVE",
"448 430 CURVE",
"469 529 LINE",
"415 562 OFFCURVE",
"342 586 OFFCURVE",
"267 586 CURVE SMOOTH",
"74 586 OFFCURVE",
"30 441 OFFCURVE",
"30 286 CURVE SMOOTH",
"30 131 OFFCURVE",
"66 -14 OFFCURVE",
"226 -14 CURVE SMOOTH"
);
},
{
closed = 1;
nodes = (
"442 0 LINE",
"539 0 LINE",
"539 760 LINE",
"389 750 LINE",
"389 85 LINE"
);
}
);
width = 629;
}
);
leftKerningGroup = c;
unicode = 0064;
},
{
glyphname = eth;
lastChange = "2017-11-28 17:57:31 +0000";
layers = (
{
components = (
{
name = slashshortcomb;
transform = "{1, 0, 0, 1, 246, 280}";
}
);
hints = (
{
place = "{60, 70}";
},
{
place = "{481, 67}";
},
{
horizontal = 1;
place = "{-14, 59}";
},
{
horizontal = 1;
place = "{447, 59}";
},
{
horizontal = 1;
place = "{764, -20}";
target = down;
type = TopGhost;
}
);
layerId = UUID0;
paths = (
{
closed = 1;
nodes = (
"155 45 OFFCURVE",
"130 157 OFFCURVE",
"130 246 CURVE SMOOTH",
"130 335 OFFCURVE",
"155 447 OFFCURVE",
"304 447 CURVE SMOOTH",
"452 447 OFFCURVE",
"478 335 OFFCURVE",
"478 246 CURVE SMOOTH",
"478 157 OFFCURVE",
"452 45 OFFCURVE",
"304 45 CURVE SMOOTH"
);
},
{
closed = 1;
nodes = (
"502 -14 OFFCURVE",
"548 124 OFFCURVE",
"548 246 CURVE SMOOTH",
"548 291 OFFCURVE",
"545 343 OFFCURVE",
"530 384 CURVE SMOOTH",
"527 393 OFFCURVE",
"503 383 OFFCURVE",
"498 391 CURVE SMOOTH",
"467 448 OFFCURVE",
"413 506 OFFCURVE",
"304 506 CURVE SMOOTH",
"106 506 OFFCURVE",
"60 367 OFFCURVE",
"60 246 CURVE SMOOTH",
"60 124 OFFCURVE",
"106 -14 OFFCURVE",
"304 -14 CURVE SMOOTH"
);
},
{
closed = 1;
nodes = (
"268 773 LINE",
"376 680 OFFCURVE",
"481 535 OFFCURVE",
"481 277 CURVE",
"548 267 LINE",
"548 573 OFFCURVE",
"395 737 OFFCURVE",
"303 814 CURVE"
);
}
);
width = 608;
},
{
components = (
{
name = slashshortcomb;
transform = "{1, 0, 0, 1, 226, 280}";
}
);
layerId = UUID1;
paths = (
{
closed = 1;
nodes = (
"197 95 OFFCURVE",
"180 179 OFFCURVE",
"180 246 CURVE SMOOTH",
"180 313 OFFCURVE",
"197 397 OFFCURVE",
"294 397 CURVE SMOOTH",
"391 397 OFFCURVE",
"408 313 OFFCURVE",
"408 246 CURVE SMOOTH",
"408 179 OFFCURVE",
"391 95 OFFCURVE",
"294 95 CURVE SMOOTH"
);
},
{
closed = 1;
nodes = (
"508 -14 OFFCURVE",
"558 124 OFFCURVE",
"558 246 CURVE SMOOTH",
"558 291 OFFCURVE",
"555 343 OFFCURVE",
"539 384 CURVE SMOOTH",
"535 393 OFFCURVE",
"469 383 OFFCURVE",
"464 391 CURVE SMOOTH",
"430 448 OFFCURVE",
"376 506 OFFCURVE",
"294 506 CURVE SMOOTH",
"80 506 OFFCURVE",
"30 367 OFFCURVE",
"30 246 CURVE SMOOTH",
"30 124 OFFCURVE",
"80 -14 OFFCURVE",
"294 -14 CURVE SMOOTH"
);
},
{
closed = 1;
nodes = (
"223 730 LINE",
"329 634 OFFCURVE",
"413 514 OFFCURVE",
"413 267 CURVE",
"558 267 LINE",
"558 562 OFFCURVE",
"384 737 OFFCURVE",
"293 814 CURVE"
);
}
);
width = 588;
}
);
leftKerningGroup = o;
unicode = 00F0;
},
{
glyphname = e;
lastChange = "2017-11-28 17:57:31 +0000";
layers = (
{
anchors = (
{
name = bottom;
position = "{302, 0}";
},
{
name = ogonek;
position = "{367, 0}";
},
{
name = top;
position = "{302, 572}";
}
);
hints = (
{
horizontal = 1;
origin = "{0, 10}";
target = "{0, 17}";
},
{
horizontal = 1;
origin = "{0, 29}";
target = "{0, 28}";
},
{
horizontal = 1;
origin = "{0, 4}";
target = "{0, 23}";
},
{
origin = "{0, 7}";
target = "{0, 20}";
},
{
place = "{457, 71}";
},
{
origin = "{0, 14}";
target = "{0, 13}";
}
);
layerId = UUID0;
paths = (
{
closed = 1;
nodes = (
"528 282 LINE",
"528 298 LINE SMOOTH",
"528 447 OFFCURVE",
"484 586 OFFCURVE",
"295 586 CURVE SMOOTH",
"105 586 OFFCURVE",
"60 441 OFFCURVE",
"60 286 CURVE SMOOTH",
"60 92 OFFCURVE",
"121 -14 OFFCURVE",
"299 -14 CURVE SMOOTH",
"458 -14 OFFCURVE",
"509 72 OFFCURVE",
"519 168 CURVE",
"461 171 LINE",
"454 99 OFFCURVE",
"415 45 OFFCURVE",
"297 45 CURVE SMOOTH",
"168 45 OFFCURVE",
"130 122 OFFCURVE",
"130 286 CURVE SMOOTH",
"130 405 OFFCURVE",
"153 527 OFFCURVE",
"294 527 CURVE SMOOTH",
"428 527 OFFCURVE",
"455 434 OFFCURVE",
"458 320 CURVE",
"480 337 LINE",
"98 337 LINE",
"98 282 LINE"
);
}
);
width = 583;
},
{
anchors = (
{
name = bottom;
position = "{289, 0}";
},
{
name = ogonek;
position = "{367, 0}";
},
{
name = top;
position = "{289, 572}";
}
);
layerId = UUID1;
paths = (
{
closed = 1;
nodes = (
"533 255 LINE",
"533 296 LINE SMOOTH",
"533 446 OFFCURVE",
"491 586 OFFCURVE",
"286 586 CURVE SMOOTH",
"79 586 OFFCURVE",
"30 441 OFFCURVE",
"30 286 CURVE SMOOTH",
"30 92 OFFCURVE",
"97 -14 OFFCURVE",
"290 -14 CURVE SMOOTH",
"463 -14 OFFCURVE",
"516 66 OFFCURVE",
"525 164 CURVE",
"402 169 LINE",
"399 130 OFFCURVE",
"374 100 OFFCURVE",
"296 100 CURVE SMOOTH",
"211 100 OFFCURVE",
"175 139 OFFCURVE",
"175 270 CURVE SMOOTH",
"175 420 OFFCURVE",
"201 472 OFFCURVE",
"285 472 CURVE SMOOTH",
"361 472 OFFCURVE",
"384 424 OFFCURVE",
"388 328 CURVE",
"414 355 LINE",
"102 355 LINE",
"102 255 LINE"
);
}
);
width = 558;
}
);
leftKerningGroup = c;
rightKerningGroup = o;
unicode = 0065;
},
{
glyphname = f;
lastChange = "2017-12-05 15:49:01 +0000";
layers = (
{
anchors = (
{
name = bottom;
position = "{167, 0}";
},
{
name = top;
position = "{167, 770}";
}
);
hints = (
{
place = "{128, 70}";
},
{
horizontal = 1;
place = "{522, 50}";
},
{
horizontal = 1;
place = "{720, 55}";
},
{
horizontal = 1;
place = "{21, 21}";
target = up;
type = BottomGhost;
}
);
layerId = UUID0;
paths = (
{
closed = 1;
nodes = (
"60 522 LINE",
"338 522 LINE",
"338 572 LINE",
"60 572 LINE"
);
},
{
closed = 1;
nodes = (
"383 758 LINE",
"350 771 OFFCURVE",
"318 775 OFFCURVE",
"281 775 CURVE SMOOTH",
"202 775 OFFCURVE",
"128 743 OFFCURVE",
"128 618 CURVE SMOOTH",
"128 0 LINE",
"198 0 LINE",
"198 618 LINE SMOOTH",
"198 689 OFFCURVE",
"226 720 OFFCURVE",
"284 720 CURVE SMOOTH",
"322 720 OFFCURVE",
"344 714 OFFCURVE",
"365 705 CURVE"
);
}
);
width = 333;
},
{
anchors = (
{
name = bottom;
position = "{178, 0}";
},
{
name = top;
position = "{178, 770}";
}
);
layerId = UUID1;
paths = (
{
closed = 1;
nodes = (
"40 476 LINE",
"350 476 LINE",
"350 572 LINE",
"40 572 LINE"
);
},
{
closed = 1;
nodes = (
"396 757 LINE",
"363 768 OFFCURVE",
"332 775 OFFCURVE",
"278 775 CURVE SMOOTH",
"185 775 OFFCURVE",
"100 741 OFFCURVE",
"100 609 CURVE SMOOTH",
"100 0 LINE",
"250 0 LINE",
"250 609 LINE SMOOTH",
"250 639 OFFCURVE",
"262 657 OFFCURVE",
"295 657 CURVE SMOOTH",
"316 657 OFFCURVE",
"336 653 OFFCURVE",
"359 644 CURVE"
);
}
);
width = 356;
}
);
leftKerningGroup = f;
rightKerningGroup = f;
unicode = 0066;
},
{
glyphname = g;
lastChange = "2017-11-28 17:57:31 +0000";
layers = (
{
anchors = (
{
name = bottom;
position = "{296, -237}";
},
{
name = top;
position = "{296, 572}";
}
);
hints = (
{
horizontal = 1;
origin = "{1, 14}";
target = "{0, 12}";
},
{
horizontal = 1;
origin = "{0, 5}";
target = "{1, 21}";
},
{
horizontal = 1;
origin = "{1, 2}";
target = "{4, 11}";
},
{
horizontal = 1;
origin = "{3, 0}";
target = "{3, 1}";
},
{
horizontal = 1;
origin = "{2, 5}";
target = "{4, 5}";
},
{
origin = "{2, 8}";
target = "{4, 2}";
},
{
origin = "{0, 9}";
target = "{1, 17}";
},
{
origin = "{1, 5}";
target = "{1, 24}";
},
{
origin = "{4, 8}";
target = "{2, 2}";
},
{
origin = "{1, 11}";
target = "{0, 2}";
}
);
layerId = UUID0;
paths = (
{
closed = 1;
nodes = (
"189 -180 OFFCURVE",
"115 -165 OFFCURVE",
"115 -95 CURVE SMOOTH",
"115 -60 OFFCURVE",
"132 -22 OFFCURVE",
"160 0 CURVE",
"370 0 LINE SMOOTH",
"414 0 OFFCURVE",
"470 -16 OFFCURVE",
"470 -79 CURVE SMOOTH",
"470 -166 OFFCURVE",
"405 -180 OFFCURVE",
"284 -180 CURVE SMOOTH"
);
},
{
closed = 1;
nodes = (
"202 214 LINE",
"163 251 LINE",
"94 184 LINE SMOOTH",
"60 150 OFFCURVE",
"51 119 OFFCURVE",
"51 92 CURVE SMOOTH",
"51 52 OFFCURVE",
"68 24 OFFCURVE",
"106 8 CURVE",
"69 -21 OFFCURVE",
"48 -63 OFFCURVE",
"48 -102 CURVE SMOOTH",
"48 -211 OFFCURVE",
"147 -238 OFFCURVE",
"283 -238 CURVE SMOOTH",
"412 -238 OFFCURVE",
"543 -219 OFFCURVE",
"543 -78 CURVE SMOOTH",
"543 1 OFFCURVE",
"488 58 OFFCURVE",
"392 58 CURVE SMOOTH",
"165 58 LINE SMOOTH",
"138 58 OFFCURVE",
"114 68 OFFCURVE",
"114 99 CURVE SMOOTH",
"114 118 OFFCURVE",
"121 137 OFFCURVE",
"139 154 CURVE SMOOTH"
);
},
{
closed = 1;
nodes = (
"462 184 OFFCURVE",
"501 291 OFFCURVE",
"501 385 CURVE SMOOTH",
"501 479 OFFCURVE",
"462 586 OFFCURVE",
"294 586 CURVE SMOOTH",
"127 586 OFFCURVE",
"88 479 OFFCURVE",
"88 385 CURVE SMOOTH",
"88 291 OFFCURVE",
"127 184 OFFCURVE",
"294 184 CURVE SMOOTH"
);
},
{
closed = 1;
nodes = (
"375 572 LINE",
"375 522 LINE",
"532 522 LINE",
"532 572 LINE"
);
},
{
closed = 1;
nodes = (
"182 237 OFFCURVE",
"156 307 OFFCURVE",
"156 385 CURVE SMOOTH",
"156 463 OFFCURVE",
"182 533 OFFCURVE",
"294 533 CURVE SMOOTH",
"406 533 OFFCURVE",
"433 463 OFFCURVE",
"433 385 CURVE SMOOTH",
"433 307 OFFCURVE",
"406 237 OFFCURVE",
"294 237 CURVE SMOOTH"
);
}
);
width = 591;
},
{
anchors = (
{
name = bottom;
position = "{310, -220}";
},
{
name = top;
position = "{310, 572}";
}
);
layerId = UUID1;
paths = (
{
closed = 1;
nodes = (
"218 -101 OFFCURVE",
"174 -96 OFFCURVE",
"174 -58 CURVE SMOOTH",
"174 -39 OFFCURVE",
"181 -17 OFFCURVE",
"199 0 CURVE",
"360 0 LINE SMOOTH",
"396 0 OFFCURVE",
"433 -11 OFFCURVE",
"433 -50 CURVE SMOOTH",
"433 -96 OFFCURVE",
"391 -101 OFFCURVE",
"301 -101 CURVE SMOOTH"
);
},
{
closed = 1;
nodes = (
"242 215 LINE",
"149 259 LINE",
"78 183 LINE SMOOTH",
"56 159 OFFCURVE",
"43 129 OFFCURVE",
"43 100 CURVE SMOOTH",
"43 50 OFFCURVE",
"67 20 OFFCURVE",
"106 9 CURVE",
"74 -5 OFFCURVE",
"38 -38 OFFCURVE",
"38 -88 CURVE SMOOTH",
"38 -184 OFFCURVE",
"138 -212 OFFCURVE",
"288 -212 CURVE SMOOTH",
"429 -212 OFFCURVE",
"582 -193 OFFCURVE",
"582 -49 CURVE SMOOTH",
"582 36 OFFCURVE",
"518 105 OFFCURVE",
"407 105 CURVE SMOOTH",
"197 105 LINE SMOOTH",
"183 105 OFFCURVE",
"169 108 OFFCURVE",
"169 125 CURVE SMOOTH",
"169 133 OFFCURVE",
"178 147 OFFCURVE",
"184 153 CURVE SMOOTH"
);
},
{
closed = 1;
nodes = (
"498 164 OFFCURVE",
"541 277 OFFCURVE",
"541 375 CURVE SMOOTH",
"541 473 OFFCURVE",
"498 586 OFFCURVE",
"309 586 CURVE SMOOTH",
"121 586 OFFCURVE",
"78 473 OFFCURVE",
"78 375 CURVE SMOOTH",
"78 277 OFFCURVE",
"121 164 OFFCURVE",
"309 164 CURVE SMOOTH"
);
},
{
closed = 1;
nodes = (
"390 572 LINE",
"390 486 LINE",
"582 486 LINE",
"582 572 LINE"
);
},
{
closed = 1;
nodes = (
"238 262 OFFCURVE",
"221 315 OFFCURVE",
"221 375 CURVE SMOOTH",
"221 435 OFFCURVE",
"238 488 OFFCURVE",
"309 488 CURVE SMOOTH",
"381 488 OFFCURVE",
"398 435 OFFCURVE",
"398 375 CURVE SMOOTH",
"398 315 OFFCURVE",
"381 262 OFFCURVE",
"309 262 CURVE SMOOTH"
);
}
);
width = 620;
}
);
leftKerningGroup = c;
unicode = 0067;
},
{
glyphname = h;
lastChange = "2017-11-28 17:57:31 +0000";
layers = (
{
anchors = (
{
name = bottom;
position = "{326, 0}";
},
{
name = center;
position = "{180, 662}";
},
{
name = top;
position = "{145, 730}";
}
);
hints = (
{
place = "{110, 70}";
},
{
place = "{481, 70}";
},
{
horizontal = 1;
place = "{527, 59}";
},
{
horizontal = 1;
place = "{770, -20}";
target = down;
type = TopGhost;
},
{
horizontal = 1;
place = "{21, 21}";
target = up;
type = BottomGhost;
}
);
layerId = UUID0;
paths = (
{
closed = 1;
nodes = (
"180 770 LINE",
"110 760 LINE",
"110 0 LINE",
"180 0 LINE"
);
},
{
closed = 1;
nodes = (
"157 433 LINE",
"222 492 OFFCURVE",
"295 527 OFFCURVE",
"375 527 CURVE SMOOTH",
"451 527 OFFCURVE",
"481 491 OFFCURVE",
"481 408 CURVE SMOOTH",
"481 0 LINE",
"551 0 LINE",
"551 407 LINE SMOOTH",
"551 528 OFFCURVE",
"505 586 OFFCURVE",
"386 586 CURVE SMOOTH",
"286 586 OFFCURVE",
"192 530 OFFCURVE",
"143 482 CURVE"
);
}
);
width = 651;
},
{
anchors = (
{
name = bottom;
position = "{333, 0}";
},
{
name = center;
position = "{220, 662}";
},
{
name = top;
position = "{165, 730}";
}
);
layerId = UUID1;
paths = (
{
closed = 1;
nodes = (
"240 760 LINE",
"90 750 LINE",
"90 0 LINE",
"240 0 LINE"
);
},
{
closed = 1;
nodes = (
"182 383 LINE",
"221 426 OFFCURVE",
"278 472 OFFCURVE",
"359 472 CURVE SMOOTH",
"417 472 OFFCURVE",
"436 449 OFFCURVE",
"436 386 CURVE SMOOTH",
"436 0 LINE",
"586 0 LINE",
"586 403 LINE SMOOTH",
"586 507 OFFCURVE",
"533 586 OFFCURVE",
"401 586 CURVE SMOOTH",
"301 586 OFFCURVE",
"201 530 OFFCURVE",
"162 482 CURVE"
);
}
);
width = 666;
}
);
unicode = 0068;
},
{
glyphname = idotless;
lastChange = "2017-11-28 17:57:31 +0000";
layers = (
{
anchors = (
{
name = bottom;
position = "{145, 0}";
},
{
name = ogonek;
position = "{180, 0}";
},
{
name = top;
position = "{145, 572}";
}
);
hints = (
{
place = "{110, 70}";
},
{
horizontal = 1;
place = "{572, -20}";
target = down;
type = TopGhost;
},
{
horizontal = 1;
place = "{21, 21}";
target = up;
type = BottomGhost;
}
);
layerId = UUID0;
paths = (
{
closed = 1;
nodes = (
"110 572 LINE",
"110 0 LINE",
"180 0 LINE",
"180 572 LINE"
);
}
);
width = 290;
},
{
anchors = (
{
name = bottom;
position = "{165, 0}";
},
{
name = ogonek;
position = "{240, 0}";
},
{
name = top;
position = "{165, 572}";
}
);
layerId = UUID1;
paths = (
{
closed = 1;
nodes = (
"90 572 LINE",
"90 0 LINE",
"240 0 LINE",
"240 572 LINE"
);
}
);
width = 330;
}
);
unicode = 0131;
},
{
glyphname = jdotless;
lastChange = "2017-11-28 17:57:31 +0000";
layers = (
{
anchors = (
{
name = bottom;
position = "{145, -237}";
},
{
name = top;
position = "{145, 572}";
}
);
hints = (
{
horizontal = 1;
origin = "{0, 3}";
target = "{0, 12}";
},
{
horizontal = 1;
origin = "{0, 8}";
target = down;
type = TopGhost;
},
{
origin = "{0, 9}";
target = "{0, 6}";
}
);
layerId = UUID0;
paths = (
{
closed = 1;
nodes = (
"-75 -214 LINE",
"-42 -227 OFFCURVE",
"-10 -231 OFFCURVE",
"27 -231 CURVE SMOOTH",
"106 -231 OFFCURVE",
"180 -199 OFFCURVE",
"180 -74 CURVE SMOOTH",
"180 572 LINE",
"110 572 LINE",
"110 -74 LINE SMOOTH",
"110 -145 OFFCURVE",
"82 -176 OFFCURVE",
"24 -176 CURVE SMOOTH",
"-14 -176 OFFCURVE",
"-36 -170 OFFCURVE",
"-57 -161 CURVE"
);
}
);
width = 290;
},
{
anchors = (
{
name = bottom;
position = "{165, -220}";
},
{
name = top;
position = "{165, 572}";
}
);
layerId = UUID1;
paths = (
{
closed = 1;
nodes = (
"-56 -186 LINE",
"-23 -197 OFFCURVE",
"8 -204 OFFCURVE",
"62 -204 CURVE SMOOTH",
"155 -204 OFFCURVE",
"240 -170 OFFCURVE",
"240 -38 CURVE SMOOTH",
"240 572 LINE",
"90 572 LINE",
"90 -38 LINE SMOOTH",
"90 -68 OFFCURVE",
"78 -86 OFFCURVE",
"45 -86 CURVE SMOOTH",
"24 -86 OFFCURVE",
"4 -82 OFFCURVE",
"-19 -73 CURVE"
);
}
);
width = 330;
}
);
unicode = 0237;
},
{
glyphname = k;
lastChange = "2017-11-28 17:57:31 +0000";
layers = (
{
anchors = (
{
name = bottom;
position = "{296, 0}";
},
{
name = top;
position = "{145, 770}";
}
);
hints = (
{
place = "{110, 70}";
},
{
horizontal = 1;
place = "{282, 23}";
},
{
horizontal = 1;
place = "{282, 54}";
},
{
horizontal = 1;
place = "{21, 21}";
target = up;
type = BottomGhost;
},
{
horizontal = 1;
place = "{770, -20}";
target = down;
type = TopGhost;
},
{
horizontal = 1;
place = "{572, -20}";
target = down;
type = TopGhost;
}
);
layerId = UUID0;
paths = (
{
closed = 1;
nodes = (
"180 0 LINE",
"180 770 LINE",
"110 760 LINE",
"110 0 LINE"
);
},
{
closed = 1;
nodes = (
"144 282 LINE",
"299 282 LINE",
"299 336 LINE",
"144 336 LINE"
);
},
{
closed = 1;
nodes = (
"436 572 LINE",
"256 315 LINE",
"312 287 LINE",
"514 572 LINE"
);
},
{
closed = 1;
nodes = (
"532 0 LINE",
"322 305 LINE",
"244 305 LINE",
"454 0 LINE"
);
}
);
width = 532;
},
{
anchors = (
{
name = bottom;
position = "{323, 0}";
},
{
name = top;
position = "{165, 760}";
}
);
layerId = UUID1;
paths = (
{
closed = 1;
nodes = (
"240 0 LINE",
"240 760 LINE",
"90 750 LINE",
"90 0 LINE"
);
},
{
closed = 1;
nodes = (
"143 259 LINE",
"321 259 LINE",
"321 359 LINE",
"143 359 LINE"
);
},
{
closed = 1;
nodes = (
"416 572 LINE",
"247 327 LINE",
"363 267 LINE",
"578 572 LINE"
);
},
{
closed = 1;
nodes = (
"596 0 LINE",
"382 305 LINE",
"224 305 LINE",
"434 0 LINE"
);
}
);
width = 586;
}
);
unicode = 006B;
},
{
glyphname = kgreenlandic;
lastChange = "2017-11-28 17:57:31 +0000";
layers = (
{
hints = (
{
place = "{110, 70}";
},
{
horizontal = 1;
place = "{282, 23}";
},
{
horizontal = 1;
place = "{282, 54}";
},
{
horizontal = 1;
place = "{21, 21}";
target = up;
type = BottomGhost;
},
{
horizontal = 1;
place = "{770, -20}";
target = down;
type = TopGhost;
},
{
horizontal = 1;
place = "{572, -20}";
target = down;
type = TopGhost;
}
);
layerId = UUID0;
paths = (
{
closed = 1;
nodes = (
"180 0 LINE",
"180 572 LINE",
"110 572 LINE",
"110 0 LINE"
);
},
{
closed = 1;
nodes = (
"144 282 LINE",
"299 282 LINE",
"299 336 LINE",
"144 336 LINE"
);
},
{
closed = 1;
nodes = (
"436 572 LINE",
"256 315 LINE",
"312 287 LINE",
"514 572 LINE"
);
},
{
closed = 1;
nodes = (
"532 0 LINE",
"322 305 LINE",
"244 305 LINE",
"454 0 LINE"
);
}
);
width = 532;
},
{
layerId = UUID1;
paths = (
{
closed = 1;
nodes = (
"240 0 LINE",
"240 572 LINE",
"90 572 LINE",
"90 0 LINE"
);
},
{
closed = 1;
nodes = (
"143 259 LINE",
"321 259 LINE",
"321 359 LINE",
"143 359 LINE"
);
},
{
closed = 1;
nodes = (
"416 572 LINE",
"247 327 LINE",
"363 267 LINE",
"578 572 LINE"
);
},
{
closed = 1;
nodes = (
"596 0 LINE",
"382 305 LINE",
"224 305 LINE",
"434 0 LINE"
);
}
);
width = 586;
}
);
leftMetricsKey = n;
unicode = 0138;
},
{
glyphname = l;
lastChange = "2017-11-28 17:57:31 +0000";
layers = (
{
anchors = (
{
name = bottom;
position = "{145, 0}";
},
{
name = center;
position = "{145, 385}";
},
{
name = top;
position = "{145, 730}";
},
{
name = topright;
position = "{270, 572}";
}
);
hints = (
{
place = "{110, 70}";
},
{
horizontal = 1;
place = "{21, 21}";
target = up;
type = BottomGhost;
},
{
horizontal = 1;
place = "{770, -20}";
target = down;
type = TopGhost;
}
);
layerId = UUID0;
paths = (
{
closed = 1;
nodes = (
"110 760 LINE",
"110 0 LINE",
"180 0 LINE",
"180 770 LINE"
);
}
);
width = 290;
},
{
anchors = (
{
name = bottom;
position = "{165, 0}";
},
{
name = center;
position = "{165, 385}";
},
{
name = top;
position = "{165, 730}";
},
{
name = topright;
position = "{310, 572}";
}
);
layerId = UUID1;
paths = (
{
closed = 1;
nodes = (
"90 750 LINE",
"90 0 LINE",
"240 0 LINE",
"240 770 LINE"
);
}
);
width = 330;
}
);
leftKerningGroup = l;
unicode = 006C;
},
{
glyphname = m;
lastChange = "2017-11-28 17:57:31 +0000";
layers = (
{
anchors = (
{
name = bottom;
position = "{491, 0}";
},
{
name = top;
position = "{491, 572}";
}
);
hints = (
{
place = "{110, 70}";
},
{
place = "{461, 70}";
},
{
place = "{812, 70}";
},
{
horizontal = 1;
place = "{527, 59}";
},
{
horizontal = 1;
place = "{21, 21}";
target = up;
type = BottomGhost;
},
{
horizontal = 1;
place = "{572, -20}";
target = down;
type = TopGhost;
}
);
layerId = UUID0;
paths = (
{
closed = 1;
nodes = (
"157 433 LINE",
"219 498 OFFCURVE",
"280 527 OFFCURVE",
"354 527 CURVE SMOOTH",
"432 527 OFFCURVE",
"461 483 OFFCURVE",
"461 408 CURVE SMOOTH",
"461 0 LINE",
"531 0 LINE",
"531 408 LINE SMOOTH",
"531 515 OFFCURVE",
"486 586 OFFCURVE",
"363 586 CURVE SMOOTH",
"270 586 OFFCURVE",
"184 530 OFFCURVE",
"147 482 CURVE"
);
},
{
closed = 1;
nodes = (
"508 433 LINE",
"570 498 OFFCURVE",
"631 527 OFFCURVE",
"705 527 CURVE SMOOTH",
"783 527 OFFCURVE",
"812 483 OFFCURVE",
"812 408 CURVE SMOOTH",
"812 0 LINE",
"882 0 LINE",
"882 408 LINE SMOOTH",
"882 515 OFFCURVE",
"837 586 OFFCURVE",
"714 586 CURVE SMOOTH",
"621 586 OFFCURVE",
"532 530 OFFCURVE",
"495 482 CURVE"
);
},
{
closed = 1;
nodes = (
"157 572 LINE",
"110 572 LINE",
"110 0 LINE",
"180 0 LINE",
"180 487 LINE"
);
}
);
width = 982;
},
{
anchors = (
{
name = bottom;
position = "{501, 0}";
},
{
name = top;
position = "{501, 572}";
}
);
layerId = UUID1;
paths = (
{
closed = 1;
nodes = (
"177 383 LINE",
"228 443 OFFCURVE",
"287 472 OFFCURVE",
"346 472 CURVE SMOOTH",
"412 472 OFFCURVE",
"431 439 OFFCURVE",
"431 376 CURVE SMOOTH",
"431 0 LINE",
"581 0 LINE",
"581 403 LINE SMOOTH",
"581 510 OFFCURVE",
"520 586 OFFCURVE",
"373 586 CURVE SMOOTH",
"280 586 OFFCURVE",
"194 530 OFFCURVE",
"157 482 CURVE"
);
},
{
closed = 1;
nodes = (
"528 383 LINE",
"579 443 OFFCURVE",
"633 472 OFFCURVE",
"691 472 CURVE SMOOTH",
"755 472 OFFCURVE",
"772 438 OFFCURVE",
"772 376 CURVE SMOOTH",
"772 0 LINE",
"922 0 LINE",
"922 403 LINE SMOOTH",
"922 510 OFFCURVE",
"864 586 OFFCURVE",
"724 586 CURVE SMOOTH",
"631 586 OFFCURVE",
"545 530 OFFCURVE",
"508 482 CURVE"
);
},
{
closed = 1;
nodes = (
"167 572 LINE",
"90 572 LINE",
"90 0 LINE",
"240 0 LINE",
"240 487 LINE"
);
}
);
width = 1002;
}
);
unicode = 006D;
},
{
glyphname = n;
lastChange = "2017-11-28 17:57:31 +0000";
layers = (
{
anchors = (
{
name = bottom;
position = "{326, 0}";
},
{
name = top;
position = "{326, 572}";
}
);
hints = (
{
place = "{110, 70}";
},
{
place = "{481, 70}";
},
{
horizontal = 1;
place = "{527, 59}";
},
{
horizontal = 1;
place = "{572, -20}";
target = down;
type = TopGhost;
},
{
horizontal = 1;
place = "{21, 21}";
target = up;
type = BottomGhost;
}
);
layerId = UUID0;
paths = (
{
closed = 1;
nodes = (
"157 572 LINE",
"110 572 LINE",
"110 0 LINE",
"180 0 LINE",
"180 487 LINE"
);
},
{
closed = 1;
nodes = (
"157 433 LINE",
"226 495 OFFCURVE",
"299 527 OFFCURVE",
"375 527 CURVE SMOOTH",
"450 527 OFFCURVE",
"481 492 OFFCURVE",
"481 408 CURVE SMOOTH",
"481 0 LINE",
"551 0 LINE",
"551 407 LINE SMOOTH",
"551 532 OFFCURVE",
"501 586 OFFCURVE",
"386 586 CURVE SMOOTH",
"304 586 OFFCURVE",
"206 544 OFFCURVE",
"143 482 CURVE"
);
}
);
width = 651;
},
{
anchors = (
{
name = bottom;
position = "{333, 0}";
},
{
name = top;
position = "{333, 572}";
}
);
layerId = UUID1;
paths = (
{
closed = 1;
nodes = (
"157 572 LINE",
"90 572 LINE",
"90 0 LINE",
"240 0 LINE",
"240 487 LINE"
);
},
{
closed = 1;
nodes = (
"182 383 LINE",
"235 442 OFFCURVE",
"295 472 OFFCURVE",
"359 472 CURVE SMOOTH",
"416 472 OFFCURVE",
"436 450 OFFCURVE",
"436 386 CURVE SMOOTH",
"436 0 LINE",
"586 0 LINE",
"586 403 LINE SMOOTH",
"586 520 OFFCURVE",
"520 586 OFFCURVE",
"401 586 CURVE SMOOTH",
"315 586 OFFCURVE",
"209 540 OFFCURVE",
"162 482 CURVE"
);
}
);
width = 666;
}
);
unicode = 006E;
},
{
glyphname = eng;
lastChange = "2017-11-28 17:57:31 +0000";
layers = (
{
components = (
{
name = n;
}
);
hints = (
{
place = "{481, 70}";
},
{
horizontal = 1;
place = "{-231, 55}";
},
{
horizontal = 1;
place = "{0, -20}";
target = down;
type = TopGhost;
}
);
layerId = UUID0;
paths = (
{
closed = 1;
nodes = (
"296 -214 LINE",
"329 -227 OFFCURVE",
"361 -231 OFFCURVE",
"398 -231 CURVE SMOOTH",
"477 -231 OFFCURVE",
"551 -199 OFFCURVE",
"551 -74 CURVE SMOOTH",
"551 0 LINE",
"481 0 LINE",
"481 -74 LINE SMOOTH",
"481 -145 OFFCURVE",
"453 -176 OFFCURVE",
"395 -176 CURVE SMOOTH",
"357 -176 OFFCURVE",
"335 -170 OFFCURVE",
"314 -161 CURVE"
);
}
);
width = 651;
},
{
components = (
{
name = n;
}
);
layerId = UUID1;
paths = (
{
closed = 1;
nodes = (
"290 -186 LINE",
"323 -197 OFFCURVE",
"354 -204 OFFCURVE",
"408 -204 CURVE SMOOTH",
"501 -204 OFFCURVE",
"586 -170 OFFCURVE",
"586 -38 CURVE SMOOTH",
"586 0 LINE",
"436 0 LINE",
"436 -38 LINE SMOOTH",
"436 -68 OFFCURVE",
"424 -86 OFFCURVE",
"391 -86 CURVE SMOOTH",
"370 -86 OFFCURVE",
"350 -82 OFFCURVE",
"327 -73 CURVE"
);
}
);
width = 666;
}
);
unicode = 014B;
},
{
glyphname = o;
lastChange = "2017-12-05 14:07:55 +0000";
layers = (
{
anchors = (
{
name = bottom;
position = "{304, 0}";
},
{
name = center;
position = "{304, 286}";
},
{
name = ogonek;
position = "{367, 0}";
},
{
name = top;
position = "{304, 572}";
},
{
name = topright;
position = "{394, 572}";
}
);
hints = (
{
place = "{60, 70}";
},
{
place = "{478, 70}";
},
{
horizontal = 1;
place = "{-14, 59}";
},
{
horizontal = 1;
place = "{527, 59}";
}
);
layerId = UUID0;
paths = (
{
closed = 1;
nodes = (
"155 45 OFFCURVE",
"130 167 OFFCURVE",
"130 286 CURVE SMOOTH",
"130 405 OFFCURVE",
"155 527 OFFCURVE",
"304 527 CURVE SMOOTH",
"452 527 OFFCURVE",
"478 405 OFFCURVE",
"478 286 CURVE SMOOTH",
"478 167 OFFCURVE",
"452 45 OFFCURVE",
"304 45 CURVE SMOOTH"
);
},
{
closed = 1;
nodes = (
"502 -14 OFFCURVE",
"548 131 OFFCURVE",
"548 286 CURVE SMOOTH",
"548 441 OFFCURVE",
"502 586 OFFCURVE",
"304 586 CURVE SMOOTH",
"106 586 OFFCURVE",
"60 441 OFFCURVE",
"60 286 CURVE SMOOTH",
"60 131 OFFCURVE",
"106 -14 OFFCURVE",
"304 -14 CURVE SMOOTH"
);
}
);
width = 608;
},
{
anchors = (
{
name = bottom;
position = "{294, 0}";
},
{
name = center;
position = "{294, 286}";
},
{
name = ogonek;
position = "{367, 0}";
},
{
name = top;
position = "{294, 572}";
},
{
name = topright;
position = "{382, 572}";
}
);
layerId = UUID1;
paths = (
{
closed = 1;
nodes = (
"197 100 OFFCURVE",
"180 174 OFFCURVE",
"180 286 CURVE SMOOTH",
"180 398 OFFCURVE",
"197 472 OFFCURVE",
"294 472 CURVE SMOOTH",
"391 472 OFFCURVE",
"408 398 OFFCURVE",
"408 286 CURVE SMOOTH",
"408 174 OFFCURVE",
"391 100 OFFCURVE",
"294 100 CURVE SMOOTH"
);
},
{
closed = 1;
nodes = (
"508 -14 OFFCURVE",
"558 131 OFFCURVE",
"558 286 CURVE SMOOTH",
"558 441 OFFCURVE",
"508 586 OFFCURVE",
"294 586 CURVE SMOOTH",
"80 586 OFFCURVE",
"30 441 OFFCURVE",
"30 286 CURVE SMOOTH",
"30 131 OFFCURVE",
"80 -14 OFFCURVE",
"294 -14 CURVE SMOOTH"
);
}
);
width = 588;
}
);
leftKerningGroup = c;
unicode = 006F;
},
{
glyphname = oe;
lastChange = "2017-11-28 17:57:31 +0000";
layers = (
{
anchors = (
{
name = bottom;
position = "{501, 0}";
},
{
name = top;
position = "{501, 572}";
}
);
hints = (
{
place = "{60, 70}";
},
{
place = "{478, 72}";
},
{
place = "{875, 71}";
},
{
horizontal = 1;
place = "{-14, 59}";
},
{
horizontal = 1;
place = "{282, 55}";
},
{
horizontal = 1;
place = "{527, 59}";
}
);
layerId = UUID0;
paths = (
{
closed = 1;
nodes = (
"876 -14 OFFCURVE",
"927 72 OFFCURVE",
"937 168 CURVE",
"879 171 LINE",
"871 98 OFFCURVE",
"830 45 OFFCURVE",
"715 45 CURVE SMOOTH",
"589 45 OFFCURVE",
"550 126 OFFCURVE",
"548 282 CURVE SMOOTH",
"946 282 LINE",
"946 298 LINE SMOOTH",
"946 447 OFFCURVE",
"902 586 OFFCURVE",
"713 586 CURVE SMOOTH",
"606 586 OFFCURVE",
"545 540 OFFCURVE",
"512 473 CURVE",
"478 540 OFFCURVE",
"415 586 OFFCURVE",
"304 586 CURVE SMOOTH",
"106 586 OFFCURVE",
"60 441 OFFCURVE",
"60 286 CURVE SMOOTH",
"60 131 OFFCURVE",
"106 -14 OFFCURVE",
"304 -14 CURVE SMOOTH",
"413 -14 OFFCURVE",
"476 30 OFFCURVE",
"511 96 CURVE",
"545 24 OFFCURVE",
"610 -14 OFFCURVE",
"717 -14 CURVE SMOOTH"
);
},
{
closed = 1;
nodes = (
"155 45 OFFCURVE",
"130 167 OFFCURVE",
"130 286 CURVE SMOOTH",
"130 405 OFFCURVE",
"155 527 OFFCURVE",
"304 527 CURVE SMOOTH",
"459 527 OFFCURVE",
"478 396 OFFCURVE",
"478 271 CURVE SMOOTH",
"478 157 OFFCURVE",
"446 45 OFFCURVE",
"304 45 CURVE SMOOTH"
);
},
{
closed = 1;
nodes = (
"838 527 OFFCURVE",
"869 442 OFFCURVE",
"875 337 CURVE",
"550 337 LINE",
"557 437 OFFCURVE",
"591 527 OFFCURVE",
"712 527 CURVE SMOOTH"
);
}
);
width = 1001;
},
{
anchors = (
{
name = bottom;
position = "{471, 0}";
},
{
name = top;
position = "{471, 572}";
}
);
layerId = UUID1;
paths = (
{
closed = 1;
nodes = (
"846 -14 OFFCURVE",
"899 66 OFFCURVE",
"908 164 CURVE",
"785 169 LINE",
"782 130 OFFCURVE",
"757 100 OFFCURVE",
"679 100 CURVE SMOOTH",
"597 100 OFFCURVE",
"561 136 OFFCURVE",
"558 255 CURVE SMOOTH",
"916 255 LINE",
"916 296 LINE SMOOTH",
"916 446 OFFCURVE",
"874 586 OFFCURVE",
"669 586 CURVE SMOOTH",
"582 586 OFFCURVE",
"524 561 OFFCURVE",
"484 520 CURVE",
"444 561 OFFCURVE",
"383 586 OFFCURVE",
"294 586 CURVE SMOOTH",
"80 586 OFFCURVE",
"30 441 OFFCURVE",
"30 286 CURVE SMOOTH",
"30 131 OFFCURVE",
"80 -14 OFFCURVE",
"294 -14 CURVE SMOOTH",
"382 -14 OFFCURVE",
"442 10 OFFCURVE",
"482 50 CURVE",
"523 8 OFFCURVE",
"585 -14 OFFCURVE",
"673 -14 CURVE SMOOTH"
);
},
{
closed = 1;
nodes = (
"197 100 OFFCURVE",
"180 174 OFFCURVE",
"180 286 CURVE SMOOTH",
"180 398 OFFCURVE",
"197 472 OFFCURVE",
"294 472 CURVE SMOOTH",
"391 472 OFFCURVE",
"408 398 OFFCURVE",
"408 286 CURVE SMOOTH",
"408 174 OFFCURVE",
"391 100 OFFCURVE",
"294 100 CURVE SMOOTH"
);
},
{
closed = 1;
nodes = (
"737 472 OFFCURVE",
"762 432 OFFCURVE",
"769 355 CURVE",
"562 355 LINE",
"572 440 OFFCURVE",
"602 472 OFFCURVE",
"668 472 CURVE SMOOTH"
);
}
);
width = 941;
}
);
leftKerningGroup = c;
leftMetricsKey = o;
rightMetricsKey = e;
unicode = 0153;
},
{
glyphname = p;
lastChange = "2017-11-28 17:57:31 +0000";
layers = (
{
anchors = (
{
name = bottom;
position = "{313, 0}";
},
{
name = top;
position = "{313, 572}";
}
);
hints = (
{
place = "{110, 70}";
},
{
place = "{496, 70}";
},
{
horizontal = 1;
place = "{-14, 59}";
},
{
horizontal = 1;
place = "{527, 59}";
},
{
horizontal = 1;
place = "{572, -20}";
target = down;
type = TopGhost;
},
{
horizontal = 1;
place = "{-216, 21}";
target = up;
type = BottomGhost;
}
);
layerId = UUID0;
paths = (
{
closed = 1;
nodes = (
"461 527 OFFCURVE",
"496 405 OFFCURVE",
"496 286 CURVE SMOOTH",
"496 152 OFFCURVE",
"461 45 OFFCURVE",
"336 45 CURVE SMOOTH",
"289 45 OFFCURVE",
"230 50 OFFCURVE",
"160 87 CURVE",
"140 40 LINE",
"190 13 OFFCURVE",
"265 -14 OFFCURVE",
"346 -14 CURVE SMOOTH",
"524 -14 OFFCURVE",
"566 131 OFFCURVE",
"566 286 CURVE SMOOTH",
"566 441 OFFCURVE",
"524 586 OFFCURVE",
"356 586 CURVE SMOOTH",
"271 586 OFFCURVE",
"180 536 OFFCURVE",
"131 482 CURVE",
"140 433 LINE",
"197 494 OFFCURVE",
"279 527 OFFCURVE",
"346 527 CURVE SMOOTH"
);
},
{
closed = 1;
nodes = (
"157 572 LINE",
"110 572 LINE",
"110 -237 LINE",
"180 -227 LINE",
"180 487 LINE"
);
}
);
width = 626;
},
{
anchors = (
{
name = bottom;
position = "{315, 0}";
},
{
name = top;
position = "{315, 572}";
}
);
layerId = UUID1;
paths = (
{
closed = 1;
nodes = (
"416 472 OFFCURVE",
"449 393 OFFCURVE",
"449 286 CURVE SMOOTH",
"449 168 OFFCURVE",
"416 100 OFFCURVE",
"321 100 CURVE SMOOTH",
"281 100 OFFCURVE",
"240 107 OFFCURVE",
"180 132 CURVE",
"160 33 LINE",
"213 6 OFFCURVE",
"300 -14 OFFCURVE",
"361 -14 CURVE SMOOTH",
"554 -14 OFFCURVE",
"599 131 OFFCURVE",
"599 286 CURVE SMOOTH",
"599 441 OFFCURVE",
"554 586 OFFCURVE",
"363 586 CURVE SMOOTH",
"271 586 OFFCURVE",
"182 530 OFFCURVE",
"144 482 CURVE",
"160 383 LINE",
"209 443 OFFCURVE",
"263 472 OFFCURVE",
"320 472 CURVE SMOOTH"
);
},
{
closed = 1;
nodes = (
"158 572 LINE",
"90 572 LINE",
"90 -220 LINE",
"240 -200 LINE",
"240 487 LINE"
);
}
);
width = 629;
}
);
unicode = 0070;
},
{
glyphname = thorn;
lastChange = "2017-11-28 17:57:31 +0000";
layers = (
{
hints = (
{
place = "{110, 70}";
},
{
place = "{497, 70}";
},
{
horizontal = 1;
place = "{-14, 64}";
},
{
horizontal = 1;
place = "{522, 64}";
},
{
horizontal = 1;
place = "{750, -20}";
target = down;
type = TopGhost;
},
{
horizontal = 1;
place = "{-206, 21}";
target = up;
type = BottomGhost;
}
);
layerId = UUID0;
paths = (
{
closed = 1;
nodes = (
"180 750 LINE",
"110 730 LINE",
"110 -227 LINE",
"180 -227 LINE"
);
},
{
closed = 1;
nodes = (
"472 522 OFFCURVE",
"497 403 OFFCURVE",
"497 286 CURVE SMOOTH",
"497 152 OFFCURVE",
"462 50 OFFCURVE",
"347 50 CURVE SMOOTH",
"300 50 OFFCURVE",
"231 55 OFFCURVE",
"161 92 CURVE",
"141 43 LINE",
"191 16 OFFCURVE",
"260 -14 OFFCURVE",
"347 -14 CURVE SMOOTH",
"525 -14 OFFCURVE",
"567 131 OFFCURVE",
"567 286 CURVE SMOOTH",
"567 441 OFFCURVE",
"525 586 OFFCURVE",
"347 586 CURVE SMOOTH",
"262 586 OFFCURVE",
"179 530 OFFCURVE",
"145 482 CURVE",
"161 433 LINE",
"218 493 OFFCURVE",
"280 522 OFFCURVE",
"347 522 CURVE SMOOTH"
);
}
);
width = 627;
},
{
layerId = UUID1;
paths = (
{
closed = 1;
nodes = (
"240 740 LINE",
"90 730 LINE",
"90 -200 LINE",
"240 -200 LINE"
);
},
{
closed = 1;
nodes = (
"424 472 OFFCURVE",
"456 393 OFFCURVE",
"456 286 CURVE SMOOTH",
"456 168 OFFCURVE",
"424 100 OFFCURVE",
"334 100 CURVE SMOOTH",
"296 100 OFFCURVE",
"257 107 OFFCURVE",
"200 132 CURVE",
"180 33 LINE",
"232 6 OFFCURVE",
"317 -14 OFFCURVE",
"375 -14 CURVE SMOOTH",
"563 -14 OFFCURVE",
"606 131 OFFCURVE",
"606 286 CURVE SMOOTH",
"606 441 OFFCURVE",
"563 586 OFFCURVE",
"376 586 CURVE SMOOTH",
"287 586 OFFCURVE",
"200 530 OFFCURVE",
"164 482 CURVE",
"180 383 LINE",
"227 443 OFFCURVE",
"278 472 OFFCURVE",
"333 472 CURVE SMOOTH"
);
}
);
width = 636;
}
);
unicode = 00FE;
},
{
glyphname = q;
lastChange = "2017-11-28 17:57:31 +0000";
layers = (
{
anchors = (
{
name = bottom;
position = "{313, 0}";
},
{
name = top;
position = "{313, 572}";
}
);
hints = (
{
place = "{60, 70}";
},
{
place = "{446, 70}";
},
{
horizontal = 1;
place = "{-14, 59}";
},
{
horizontal = 1;
place = "{527, 59}";
},
{
horizontal = 1;
place = "{-216, 21}";
target = up;
type = BottomGhost;
},
{
horizontal = 1;
place = "{572, -20}";
target = down;
type = TopGhost;
}
);
layerId = UUID0;
paths = (
{
closed = 1;
nodes = (
"476 102 LINE",
"418 64 OFFCURVE",
"356 45 OFFCURVE",
"290 45 CURVE SMOOTH",
"171 45 OFFCURVE",
"130 147 OFFCURVE",
"130 286 CURVE SMOOTH",
"130 425 OFFCURVE",
"173 527 OFFCURVE",
"290 527 CURVE SMOOTH",
"357 527 OFFCURVE",
"419 510 OFFCURVE",
"476 450 CURVE",
"492 497 LINE",
"456 538 OFFCURVE",
"380 586 OFFCURVE",
"280 586 CURVE SMOOTH",
"102 586 OFFCURVE",
"60 441 OFFCURVE",
"60 286 CURVE SMOOTH",
"60 131 OFFCURVE",
"102 -14 OFFCURVE",
"280 -14 CURVE SMOOTH",
"357 -14 OFFCURVE",
"441 19 OFFCURVE",
"492 52 CURVE"
);
},
{
closed = 1;
nodes = (
"446 487 LINE",
"446 -237 LINE",
"516 -227 LINE",
"516 572 LINE",
"469 572 LINE"
);
}
);
width = 626;
},
{
anchors = (
{
name = bottom;
position = "{315, 0}";
},
{
name = top;
position = "{315, 572}";
}
);
layerId = UUID1;
paths = (
{
closed = 1;
nodes = (
"468 157 LINE",
"418 119 OFFCURVE",
"365 100 OFFCURVE",
"309 100 CURVE SMOOTH",
"213 100 OFFCURVE",
"180 172 OFFCURVE",
"180 286 CURVE SMOOTH",
"180 395 OFFCURVE",
"214 472 OFFCURVE",
"309 472 CURVE SMOOTH",
"366 472 OFFCURVE",
"419 448 OFFCURVE",
"468 388 CURVE",
"485 492 LINE",
"446 534 OFFCURVE",
"374 586 OFFCURVE",
"266 586 CURVE SMOOTH",
"74 586 OFFCURVE",
"30 441 OFFCURVE",
"30 286 CURVE SMOOTH",
"30 131 OFFCURVE",
"74 -14 OFFCURVE",
"266 -14 CURVE SMOOTH",
"350 -14 OFFCURVE",
"430 22 OFFCURVE",
"485 57 CURVE"
);
},
{
closed = 1;
nodes = (
"389 487 LINE",
"389 -220 LINE",
"539 -200 LINE",
"539 572 LINE",
"471 572 LINE"
);
}
);
width = 629;
}
);
leftKerningGroup = c;
unicode = 0071;
},
{
glyphname = r;
lastChange = "2017-11-28 17:57:31 +0000";
layers = (
{
anchors = (
{
name = bottom;
position = "{145, 0}";
},
{
name = top;
position = "{240, 572}";
}
);
hints = (
{
horizontal = 1;
origin = "{0, 4}";
target = "{0, 3}";
},
{
horizontal = 1;
origin = "{1, 1}";
target = down;
type = TopGhost;
},
{
origin = "{1, 2}";
target = "{1, 3}";
}
);
layerId = UUID0;
paths = (
{
closed = 1;
nodes = (
"152 324 LINE",
"180 410 OFFCURVE",
"243 514 OFFCURVE",
"389 519 CURVE",
"389 586 LINE",
"223 580 OFFCURVE",
"172 459 OFFCURVE",
"137 375 CURVE"
);
},
{
closed = 1;
nodes = (
"157 572 LINE",
"110 572 LINE",
"110 0 LINE",
"180 0 LINE",
"180 458 LINE"
);
}
);
width = 399;
},
{
anchors = (
{
name = bottom;
position = "{165, 0}";
},
{
name = top;
position = "{235, 572}";
}
);
layerId = UUID1;
paths = (
{
closed = 1;
nodes = (
"192 324 LINE",
"222 387 OFFCURVE",
"263 456 OFFCURVE",
"409 459 CURVE",
"409 586 LINE",
"243 580 OFFCURVE",
"196 459 OFFCURVE",
"161 375 CURVE"
);
},
{
closed = 1;
nodes = (
"157 572 LINE",
"90 572 LINE",
"90 0 LINE",
"240 0 LINE",
"240 454 LINE"
);
}
);
width = 409;
}
);
unicode = 0072;
},
{
glyphname = s;
lastChange = "2017-11-28 17:57:31 +0000";
layers = (
{
anchors = (
{
name = bottom;
position = "{274, 0}";
},
{
name = top;
position = "{274, 572}";
}
);
hints = (
{
horizontal = 1;
origin = "{0, 33}";
target = "{0, 26}";
},
{
horizontal = 1;
origin = "{0, 13}";
target = "{0, 6}";
},
{
origin = "{0, 16}";
target = "{0, 3}";
},
{
origin = "{0, 23}";
target = "{0, 36}";
}
);
layerId = UUID0;
paths = (
{
closed = 1;
nodes = (
"246 328 LINE SMOOTH",
"167 348 OFFCURVE",
"140 373 OFFCURVE",
"140 429 CURVE SMOOTH",
"140 496 OFFCURVE",
"184 528 OFFCURVE",
"274 528 CURVE SMOOTH",
"352 528 OFFCURVE",
"399 492 OFFCURVE",
"409 425 CURVE",
"469 435 LINE",
"451 539 OFFCURVE",
"390 586 OFFCURVE",
"276 586 CURVE SMOOTH",
"145 586 OFFCURVE",
"68 527 OFFCURVE",
"68 426 CURVE SMOOTH",
"68 333 OFFCURVE",
"107 292 OFFCURVE",
"227 262 CURVE SMOOTH",
"287 247 LINE SMOOTH",
"373 226 OFFCURVE",
"401 201 OFFCURVE",
"401 146 CURVE SMOOTH",
"401 80 OFFCURVE",
"353 47 OFFCURVE",
"258 47 CURVE SMOOTH",
"175 47 OFFCURVE",
"125 83 OFFCURVE",
"114 150 CURVE",
"55 140 LINE",
"73 37 OFFCURVE",
"137 -11 OFFCURVE",
"257 -11 CURVE SMOOTH",
"393 -11 OFFCURVE",
"473 49 OFFCURVE",
"473 149 CURVE SMOOTH",
"473 241 OFFCURVE",
"432 280 OFFCURVE",
"305 313 CURVE SMOOTH"
);
}
);
width = 528;
},
{
anchors = (
{
name = bottom;
position = "{285, 0}";
},
{
name = top;
position = "{278, 572}";
}
);
layerId = UUID1;
paths = (
{
closed = 1;
nodes = (
"292 350 LINE SMOOTH",
"213 369 OFFCURVE",
"195 383 OFFCURVE",
"195 418 CURVE SMOOTH",
"195 458 OFFCURVE",
"226 478 OFFCURVE",
"289 478 CURVE SMOOTH",
"349 478 OFFCURVE",
"384 445 OFFCURVE",
"390 385 CURVE",
"505 401 LINE",
"489 527 OFFCURVE",
"420 586 OFFCURVE",
"290 586 CURVE SMOOTH",
"140 586 OFFCURVE",
"52 522 OFFCURVE",
"52 413 CURVE SMOOTH",
"52 313 OFFCURVE",
"99 263 OFFCURVE",
"219 235 CURVE SMOOTH",
"262 225 LINE SMOOTH",
"349 205 OFFCURVE",
"368 191 OFFCURVE",
"368 157 CURVE SMOOTH",
"368 118 OFFCURVE",
"332 97 OFFCURVE",
"265 97 CURVE SMOOTH",
"199 97 OFFCURVE",
"161 130 OFFCURVE",
"155 191 CURVE",
"40 174 LINE",
"58 47 OFFCURVE",
"127 -11 OFFCURVE",
"264 -11 CURVE SMOOTH",
"417 -11 OFFCURVE",
"510 55 OFFCURVE",
"510 163 CURVE SMOOTH",
"510 260 OFFCURVE",
"462 310 OFFCURVE",
"343 338 CURVE SMOOTH"
);
}
);
width = 550;
}
);
leftKerningGroup = s;
unicode = 0073;
},
{
glyphname = germandbls;
lastChange = "2017-11-28 17:57:31 +0000";
layers = (
{
hints = (
{
horizontal = 1;
origin = "{1, 18}";
target = "{1, 11}";
},
{
horizontal = 1;
origin = "{1, 4}";
target = "{0, 10}";
},
{
horizontal = 1;
origin = "{0, 3}";
target = "{0, 18}";
},
{
origin = "{0, 22}";
target = "{0, 23}";
},
{
origin = "{1, 15}";
target = "{1, 14}";
},
{
origin = "{1, 8}";
target = "{1, 21}";
},
{
origin = "{0, 6}";
target = "{0, 15}";
}
);
layerId = UUID0;
paths = (
{
closed = 1;
nodes = (
"165 561 LINE",
"165 642 OFFCURVE",
"213 696 OFFCURVE",
"307 696 CURVE SMOOTH",
"410 696 OFFCURVE",
"454 643 OFFCURVE",
"454 562 CURVE SMOOTH",
"454 488 OFFCURVE",
"418 410 OFFCURVE",
"336 410 CURVE SMOOTH",
"268 410 LINE",
"268 366 LINE",
"336 366 LINE SMOOTH",
"441 366 OFFCURVE",
"524 454 OFFCURVE",
"524 561 CURVE SMOOTH",
"524 679 OFFCURVE",
"453 755 OFFCURVE",
"307 755 CURVE SMOOTH",
"175 755 OFFCURVE",
"95 679 OFFCURVE",
"95 561 CURVE SMOOTH",
"95 0 LINE",
"165 0 LINE"
);
},
{
closed = 1;
nodes = (
"581 331 OFFCURVE",
"500 400 OFFCURVE",
"395 400 CURVE SMOOTH",
"268 400 LINE",
"268 356 LINE",
"383 356 LINE SMOOTH",
"485 356 OFFCURVE",
"511 284 OFFCURVE",
"511 196 CURVE SMOOTH",
"511 120 OFFCURVE",
"482 45 OFFCURVE",
"395 45 CURVE SMOOTH",
"307 45 OFFCURVE",
"282 98 OFFCURVE",
"282 179 CURVE",
"223 179 LINE",
"223 61 OFFCURVE",
"267 -14 OFFCURVE",
"396 -14 CURVE SMOOTH",
"527 -14 OFFCURVE",
"581 81 OFFCURVE",
"581 197 CURVE SMOOTH"
);
}
);
width = 629;
},
{
layerId = UUID1;
paths = (
{
closed = 1;
nodes = (
"225 520 LINE",
"225 595 OFFCURVE",
"258 626 OFFCURVE",
"316 626 CURVE SMOOTH",
"377 626 OFFCURVE",
"412 594 OFFCURVE",
"412 520 CURVE SMOOTH",
"412 461 OFFCURVE",
"390 417 OFFCURVE",
"335 417 CURVE SMOOTH",
"287 417 LINE",
"287 325 LINE",
"314 325 LINE SMOOTH",
"440 325 OFFCURVE",
"562 416 OFFCURVE",
"562 540 CURVE SMOOTH",
"562 658 OFFCURVE",
"483 744 OFFCURVE",
"330 744 CURVE SMOOTH",
"166 744 OFFCURVE",
"75 678 OFFCURVE",
"75 520 CURVE SMOOTH",
"75 0 LINE",
"225 0 LINE"
);
},
{
closed = 1;
nodes = (
"631 318 OFFCURVE",
"550 389 OFFCURVE",
"414 389 CURVE SMOOTH",
"287 389 LINE",
"287 307 LINE",
"384 307 LINE SMOOTH",
"449 307 OFFCURVE",
"481 288 OFFCURVE",
"481 210 CURVE SMOOTH",
"481 149 OFFCURVE",
"468 104 OFFCURVE",
"428 104 CURVE SMOOTH",
"389 104 OFFCURVE",
"377 124 OFFCURVE",
"377 199 CURVE",
"255 199 LINE",
"255 41 OFFCURVE",
"315 -14 OFFCURVE",
"429 -14 CURVE SMOOTH",
"576 -14 OFFCURVE",
"631 81 OFFCURVE",
"631 187 CURVE SMOOTH"
);
}
);
width = 669;
}
);
leftMetricsKey = U;
rightMetricsKey = "=U*.5";
unicode = 00DF;
},
{
glyphname = t;
lastChange = "2017-11-28 17:57:31 +0000";
layers = (
{
anchors = (
{
name = bottom;
position = "{202, 0}";
},
{
name = center;
position = "{160, 286}";
},
{
name = top;
position = "{160, 676}";
},
{
name = topright;
position = "{244, 572}";
}
);
hints = (
{
place = "{125, 70}";
},
{
horizontal = 1;
place = "{-14, 55}";
},
{
horizontal = 1;
place = "{522, 50}";
},
{
horizontal = 1;
place = "{710, -20}";
target = down;
type = TopGhost;
}
);
layerId = UUID0;
paths = (
{
closed = 1;
nodes = (
"25 522 LINE",
"320 522 LINE",
"320 572 LINE",
"25 572 LINE"
);
},
{
closed = 1;
nodes = (
"304 49 LINE",
"282 44 OFFCURVE",
"264 41 OFFCURVE",
"249 41 CURVE SMOOTH",
"210 41 OFFCURVE",
"195 63 OFFCURVE",
"195 125 CURVE SMOOTH",
"195 710 LINE",
"125 676 LINE",
"125 125 LINE SMOOTH",
"125 55 OFFCURVE",
"133 -14 OFFCURVE",
"227 -14 CURVE SMOOTH",
"250 -14 OFFCURVE",
"277 -10 OFFCURVE",
"313 0 CURVE"
);
}
);
width = 340;
},
{
anchors = (
{
name = bottom;
position = "{203, 0}";
},
{
name = center;
position = "{170, 286}";
},
{
name = top;
position = "{170, 676}";
},
{
name = topright;
position = "{278, 617}";
}
);
layerId = UUID1;
paths = (
{
closed = 1;
nodes = (
"5 476 LINE",
"350 476 LINE",
"350 572 LINE",
"5 572 LINE"
);
},
{
closed = 1;
nodes = (
"347 102 LINE",
"325 97 OFFCURVE",
"314 94 OFFCURVE",
"299 94 CURVE SMOOTH",
"260 94 OFFCURVE",
"245 115 OFFCURVE",
"245 171 CURVE SMOOTH",
"245 710 LINE",
"95 676 LINE",
"95 155 LINE SMOOTH",
"95 85 OFFCURVE",
"98 -14 OFFCURVE",
"247 -14 CURVE SMOOTH",
"275 -14 OFFCURVE",
"321 -7 OFFCURVE",
"365 10 CURVE"
);
}
);
width = 365;
}
);
unicode = 0074;
},
{
glyphname = u;
lastChange = "2017-12-05 14:07:24 +0000";
layers = (
{
anchors = (
{
name = bottom;
position = "{329, 0}";
},
{
name = ogonek;
position = "{548, 0}";
},
{
name = top;
position = "{329, 572}";
},
{
name = topright;
position = "{492, 572}";
}
);
hints = (
{
place = "{100, 70}";
},
{
place = "{478, 70}";
},
{
horizontal = 1;
place = "{-14, 59}";
},
{
horizontal = 1;
place = "{0, 45}";
},
{
horizontal = 1;
place = "{572, -20}";
target = down;
type = TopGhost;
}
);
layerId = UUID0;
paths = (
{
closed = 1;
nodes = (
"506 189 LINE",
"462 131 OFFCURVE",
"385 45 OFFCURVE",
"281 45 CURVE SMOOTH",
"208 45 OFFCURVE",
"170 79 OFFCURVE",
"170 164 CURVE SMOOTH",
"170 572 LINE",
"100 572 LINE",
"100 163 LINE SMOOTH",
"100 44 OFFCURVE",
"149 -14 OFFCURVE",
"266 -14 CURVE SMOOTH",
"386 -14 OFFCURVE",
"475 77 OFFCURVE",
"516 135 CURVE"
);
},
{
closed = 1;
nodes = (
"501 0 LINE",
"548 0 LINE",
"548 572 LINE",
"478 572 LINE",
"478 95 LINE"
);
}
);
width = 658;
},
{
anchors = (
{
name = bottom;
position = "{333, 0}";
},
{
name = ogonek;
position = "{576, 0}";
},
{
name = top;
position = "{333, 572}";
},
{
name = topright;
position = "{496, 572}";
}
);
layerId = UUID1;
paths = (
{
closed = 1;
nodes = (
"493 247 LINE",
"439 148 OFFCURVE",
"378 100 OFFCURVE",
"313 100 CURVE SMOOTH",
"250 100 OFFCURVE",
"230 133 OFFCURVE",
"230 196 CURVE SMOOTH",
"230 572 LINE",
"80 572 LINE",
"80 169 LINE SMOOTH",
"80 65 OFFCURVE",
"124 -14 OFFCURVE",
"259 -14 CURVE SMOOTH",
"391 -14 OFFCURVE",
"456 76 OFFCURVE",
"500 151 CURVE"
);
},
{
closed = 1;
nodes = (
"479 0 LINE",
"576 0 LINE",
"576 572 LINE",
"426 572 LINE",
"426 85 LINE"
);
}
);
width = 666;
}
);
unicode = 0075;
},
{
glyphname = v;
lastChange = "2017-11-28 18:08:07 +0000";
layers = (
{
anchors = (
{
name = bottom;
position = "{264, 0}";
},
{
name = top;
position = "{264, 572}";
}
);
hints = (
{
horizontal = 1;
place = "{21, 21}";
target = up;
type = BottomGhost;
},
{
horizontal = 1;
place = "{572, -20}";
target = down;
type = TopGhost;
}
);
layerId = UUID0;
paths = (
{
closed = 1;
nodes = (
"302 0 LINE",
"508 572 LINE",
"437 572 LINE",
"235 0 LINE"
);
},
{
closed = 1;
nodes = (
"293 0 LINE",
"91 572 LINE",
"20 572 LINE",
"226 0 LINE"
);
}
);
width = 528;
},
{
anchors = (
{
name = bottom;
position = "{275, 0}";
},
{
name = top;
position = "{275, 572}";
}
);
layerId = UUID1;
paths = (
{
closed = 1;
nodes = (
"358 0 LINE",
"549 572 LINE",
"398 572 LINE",
"218 0 LINE"
);
},
{
closed = 1;
nodes = (
"331 0 LINE",
"151 572 LINE",
"0 572 LINE",
"191 0 LINE"
);
}
);
width = 549;
}
);
leftKerningGroup = v;
rightKerningGroup = v;
unicode = 0076;
},
{
glyphname = w;
lastChange = "2017-11-28 18:36:29 +0000";
layers = (
{
anchors = (
{
name = bottom;
position = "{371, 0}";
},
{
name = top;
position = "{371, 572}";
}
);
hints = (
{
horizontal = 1;
origin = "{0, 14}";
target = down;
type = TopGhost;
}
);
layerId = UUID0;
paths = (
{
closed = 1;
nodes = (
"247 0 LINE",
"376 440 LINE",
"363 440 LINE",
"494 0 LINE",
"570 0 LINE",
"714 572 LINE",
"643 572 LINE",
"522 65 LINE",
"533 65 LINE",
"399 522 LINE",
"340 522 LINE",
"208 65 LINE",
"219 65 LINE",
"96 572 LINE",
"25 572 LINE",
"171 0 LINE"
);
}
);
width = 739;
},
{
anchors = (
{
name = bottom;
position = "{381, 0}";
},
{
name = top;
position = "{381, 572}";
}
);
layerId = UUID1;
paths = (
{
closed = 1;
nodes = (
"281 0 LINE",
"389 355 LINE",
"373 355 LINE",
"480 0 LINE",
"619 0 LINE",
"747 572 LINE",
"596 572 LINE",
"523 176 LINE",
"546 176 LINE",
"445 522 LINE",
"317 522 LINE",
"215 176 LINE",
"238 176 LINE",
"166 572 LINE",
"15 572 LINE",
"142 0 LINE"
);
}
);
width = 762;
}
);
leftKerningGroup = v;
rightKerningGroup = v;
unicode = 0077;
},
{
glyphname = x;
lastChange = "2017-11-28 17:57:31 +0000";
layers = (
{
anchors = (
{
name = bottom;
position = "{249, 0}";
},
{
name = top;
position = "{249, 572}";
}
);
hints = (
{
horizontal = 1;
place = "{572, -20}";
target = down;
type = TopGhost;
},
{
horizontal = 1;
place = "{21, 21}";
target = up;
type = BottomGhost;
}
);
layerId = UUID0;
paths = (
{
closed = 1;
nodes = (
"400 572 LINE",
"228 311 LINE",
"274 267 LINE",
"476 572 LINE"
);
},
{
closed = 1;
nodes = (
"487 0 LINE",
"100 572 LINE",
"21 572 LINE",
"408 0 LINE"
);
},
{
closed = 1;
nodes = (
"86 0 LINE",
"264 270 LINE",
"222 320 LINE",
"10 0 LINE"
);
}
);
width = 497;
},
{
anchors = (
{
name = bottom;
position = "{269, 0}";
},
{
name = top;
position = "{269, 572}";
}
);
layerId = UUID1;
paths = (
{
closed = 1;
nodes = (
"380 572 LINE",
"220 327 LINE",
"332 267 LINE",
"530 572 LINE"
);
},
{
closed = 1;
nodes = (
"538 0 LINE",
"172 572 LINE",
"8 572 LINE",
"374 0 LINE"
);
},
{
closed = 1;
nodes = (
"150 0 LINE",
"316 245 LINE",
"206 305 LINE",
"0 0 LINE"
);
}
);
width = 538;
}
);
unicode = 0078;
},
{
glyphname = y;
lastChange = "2017-11-28 18:06:00 +0000";
layers = (
{
anchors = (
{
name = bottom;
position = "{398, -66}";
},
{
name = top;
position = "{272, 572}";
}
);
hints = (
{
horizontal = 1;
place = "{572, -20}";
target = down;
type = TopGhost;
},
{
horizontal = 1;
place = "{-227, 21}";
target = up;
type = BottomGhost;
}
);
layerId = UUID0;
paths = (
{
closed = 1;
nodes = (
"299 21 LINE",
"93 572 LINE",
"20 572 LINE",
"249 -29 LINE"
);
},
{
closed = 1;
nodes = (
"212 -248 LINE",
"523 572 LINE",
"450 572 LINE",
"258 44 LINE",
"148 -235 LINE"
);
}
);
width = 543;
},
{
anchors = (
{
name = bottom;
position = "{434, 13}";
},
{
name = top;
position = "{271, 572}";
}
);
layerId = UUID1;
paths = (
{
closed = 1;
nodes = (
"332 38 LINE",
"151 572 LINE",
"0 572 LINE",
"213 -28 LINE"
);
},
{
closed = 1;
nodes = (
"261 -234 LINE",
"540 572 LINE",
"388 572 LINE",
"245 92 LINE",
"128 -215 LINE"
);
}
);
width = 542;
}
);
leftKerningGroup = v;
rightKerningGroup = v;
unicode = 0079;
},
{
glyphname = z;
lastChange = "2017-11-28 17:57:31 +0000";
layers = (
{
anchors = (
{
name = bottom;
position = "{262, 0}";
},
{
name = top;
position = "{262, 572}";
}
);
hints = (
{
horizontal = 1;
place = "{0, 56}";
},
{
horizontal = 1;
place = "{516, 56}";
}
);
layerId = UUID0;
paths = (
{
closed = 1;
nodes = (
"58 516 LINE",
"379 516 LINE",
"45 50 LINE",
"45 0 LINE",
"478 0 LINE",
"478 56 LINE",
"131 56 LINE",
"465 522 LINE",
"465 572 LINE",
"58 572 LINE"
);
}
);
width = 523;
},
{
anchors = (
{
name = bottom;
position = "{253, 0}";
},
{
name = top;
position = "{253, 572}";
}
);
layerId = UUID1;
paths = (
{
closed = 1;
nodes = (
"39 468 LINE",
"292 468 LINE",
"30 90 LINE",
"30 0 LINE",
"476 0 LINE",
"476 104 LINE",
"209 104 LINE",
"467 482 LINE",
"467 572 LINE",
"39 572 LINE"
);
}
);
width = 506;
}
);
unicode = 007A;
},
{
glyphname = ordfeminine;
lastChange = "2017-11-28 17:57:31 +0000";
layers = (
{
hints = (
{
place = "{38, 71}";
},
{
place = "{291, 63}";
},
{
horizontal = 1;
place = "{236, 43}";
},
{
horizontal = 1;
place = "{350, 39}";
},
{
horizontal = 1;
place = "{709, 51}";
}
);
layerId = UUID0;
paths = (
{
closed = 1;
nodes = (
"120 635 LINE",
"129 682 OFFCURVE",
"160 709 OFFCURVE",
"210 709 CURVE SMOOTH",
"254 709 OFFCURVE",
"291 693 OFFCURVE",
"291 620 CURVE SMOOTH",
"291 581 LINE",
"188 565 LINE SMOOTH",
"71 547 OFFCURVE",
"46 502 OFFCURVE",
"46 444 CURVE SMOOTH",
"46 386 OFFCURVE",
"74 340 OFFCURVE",
"150 340 CURVE SMOOTH",
"216 340 OFFCURVE",
"267 380 OFFCURVE",
"295 411 CURVE",
"312 350 LINE",
"354 350 LINE",
"354 620 LINE SMOOTH",
"354 735 OFFCURVE",
"289 760 OFFCURVE",
"211 760 CURVE SMOOTH",
"130 760 OFFCURVE",
"84 718 OFFCURVE",
"69 651 CURVE"
);
},
{
closed = 1;
nodes = (
"126 389 OFFCURVE",
"109 414 OFFCURVE",
"109 445 CURVE SMOOTH",
"109 478 OFFCURVE",
"123 509 OFFCURVE",
"195 521 CURVE SMOOTH",
"291 537 LINE",
"291 455 LINE",
"258 420 OFFCURVE",
"219 389 OFFCURVE",
"168 389 CURVE SMOOTH"
);
},
{
closed = 1;
nodes = (
"38 236 LINE",
"366 236 LINE",
"366 279 LINE",
"38 279 LINE"
);
}
);
width = 430;
},
{
layerId = UUID1;
paths = (
{
closed = 1;
nodes = (
"165 614 LINE",
"170 651 OFFCURVE",
"194 659 OFFCURVE",
"213 659 CURVE SMOOTH",
"229 659 OFFCURVE",
"253 653 OFFCURVE",
"253 620 CURVE SMOOTH",
"253 595 LINE",
"196 587 LINE SMOOTH",
"64 569 OFFCURVE",
"37 521 OFFCURVE",
"37 453 CURVE SMOOTH",
"37 388 OFFCURVE",
"81 340 OFFCURVE",
"151 340 CURVE SMOOTH",
"207 340 OFFCURVE",
"239 362 OFFCURVE",
"263 383 CURVE",
"302 350 LINE",
"389 350 LINE",
"389 621 LINE SMOOTH",
"389 735 OFFCURVE",
"302 760 OFFCURVE",
"224 760 CURVE SMOOTH",
"125 760 OFFCURVE",
"81 721 OFFCURVE",
"62 645 CURVE"
);
},
{
closed = 1;
nodes = (
"178 436 OFFCURVE",
"167 444 OFFCURVE",
"167 464 CURVE SMOOTH",
"167 479 OFFCURVE",
"172 499 OFFCURVE",
"225 510 CURVE SMOOTH",
"253 516 LINE",
"253 456 LINE",
"244 450 OFFCURVE",
"224 436 OFFCURVE",
"194 436 CURVE SMOOTH"
);
},
{
closed = 1;
nodes = (
"30 196 LINE",
"395 196 LINE",
"395 281 LINE",
"30 281 LINE"
);
}
);
width = 447;
}
);
unicode = 00AA;
},
{
glyphname = ordmasculine;
lastChange = "2017-11-28 17:57:31 +0000";
layers = (
{
hints = (
{
place = "{38, 64}";
},
{
place = "{323, 64}";
},
{
horizontal = 1;
place = "{236, 43}";
},
{
horizontal = 1;
place = "{340, 52}";
},
{
horizontal = 1;
place = "{709, 51}";
}
);
layerId = UUID0;
paths = (
{
closed = 1;
nodes = (
"48 236 LINE",
"376 236 LINE",
"376 279 LINE",
"48 279 LINE"
);
},
{
closed = 1;
nodes = (
"118 392 OFFCURVE",
"102 468 OFFCURVE",
"102 550 CURVE SMOOTH",
"102 632 OFFCURVE",
"118 709 OFFCURVE",
"212 709 CURVE SMOOTH",
"307 709 OFFCURVE",
"323 632 OFFCURVE",
"323 550 CURVE SMOOTH",
"323 468 OFFCURVE",
"307 392 OFFCURVE",
"212 392 CURVE SMOOTH"
);
},
{
closed = 1;
nodes = (
"354 340 OFFCURVE",
"387 442 OFFCURVE",
"387 550 CURVE SMOOTH",
"387 659 OFFCURVE",
"354 760 OFFCURVE",
"212 760 CURVE SMOOTH",
"71 760 OFFCURVE",
"38 659 OFFCURVE",
"38 550 CURVE SMOOTH",
"38 442 OFFCURVE",
"71 340 OFFCURVE",
"212 340 CURVE SMOOTH"
);
}
);
width = 425;
},
{
layerId = UUID1;
paths = (
{
closed = 1;
nodes = (
"20 196 LINE",
"385 196 LINE",
"385 281 LINE",
"20 281 LINE"
);
},
{
closed = 1;
nodes = (
"154 441 OFFCURVE",
"146 474 OFFCURVE",
"146 550 CURVE SMOOTH",
"146 626 OFFCURVE",
"154 659 OFFCURVE",
"202 659 CURVE SMOOTH",
"251 659 OFFCURVE",
"259 626 OFFCURVE",
"259 550 CURVE SMOOTH",
"259 474 OFFCURVE",
"251 441 OFFCURVE",
"202 441 CURVE SMOOTH"
);
},
{
closed = 1;
nodes = (
"358 340 OFFCURVE",
"395 442 OFFCURVE",
"395 550 CURVE SMOOTH",
"395 659 OFFCURVE",
"358 760 OFFCURVE",
"202 760 CURVE SMOOTH",
"47 760 OFFCURVE",
"10 659 OFFCURVE",
"10 550 CURVE SMOOTH",
"10 442 OFFCURVE",
"47 340 OFFCURVE",
"202 340 CURVE SMOOTH"
);
}
);
width = 405;
}
);
unicode = 00BA;
},
{
glyphname = pi;
lastChange = "2017-11-28 17:57:31 +0000";
layers = (
{
hints = (
{
place = "{130, 70}";
},
{
place = "{435, 70}";
},
{
horizontal = 1;
place = "{522, 50}";
},
{
horizontal = 1;
place = "{21, 21}";
target = up;
type = BottomGhost;
}
);
layerId = UUID0;
paths = (
{
closed = 1;
nodes = (
"435 572 LINE",
"435 0 LINE",
"505 0 LINE",
"505 572 LINE"
);
},
{
closed = 1;
nodes = (
"130 572 LINE",
"130 0 LINE",
"200 0 LINE",
"200 572 LINE"
);
},
{
closed = 1;
nodes = (
"70 522 LINE",
"565 522 LINE",
"565 572 LINE",
"70 572 LINE"
);
}
);
width = 635;
},
{
layerId = UUID1;
paths = (
{
closed = 1;
nodes = (
"405 572 LINE",
"405 0 LINE",
"555 0 LINE",
"555 572 LINE"
);
},
{
closed = 1;
nodes = (
"100 572 LINE",
"100 0 LINE",
"250 0 LINE",
"250 572 LINE"
);
},
{
closed = 1;
nodes = (
"40 476 LINE",
"616 476 LINE",
"616 572 LINE",
"40 572 LINE"
);
}
);
width = 656;
}
);
unicode = 03C0;
},
{
glyphname = zero;
lastChange = "2017-11-28 17:57:31 +0000";
layers = (
{
hints = (
{
place = "{63, 69}";
},
{
place = "{497, 69}";
},
{
horizontal = 1;
place = "{-14, 59}";
},
{
horizontal = 1;
place = "{684, 60}";
}
);
layerId = UUID0;
paths = (
{
closed = 1;
nodes = (
"520 -14 OFFCURVE",
"566 159 OFFCURVE",
"566 365 CURVE SMOOTH",
"566 570 OFFCURVE",
"520 744 OFFCURVE",
"314 744 CURVE SMOOTH",
"109 744 OFFCURVE",
"63 570 OFFCURVE",
"63 365 CURVE SMOOTH",
"63 159 OFFCURVE",
"109 -14 OFFCURVE",
"314 -14 CURVE SMOOTH"
);
},
{
closed = 1;
nodes = (
"168 46 OFFCURVE",
"132 181 OFFCURVE",
"132 365 CURVE SMOOTH",
"132 549 OFFCURVE",
"168 684 OFFCURVE",
"314 684 CURVE SMOOTH",
"461 684 OFFCURVE",
"497 549 OFFCURVE",
"497 365 CURVE SMOOTH",
"497 181 OFFCURVE",
"461 46 OFFCURVE",
"314 46 CURVE SMOOTH"
);
}
);
width = 630;
},
{
layerId = UUID1;
paths = (
{
closed = 1;
nodes = (
"551 -14 OFFCURVE",
"603 153 OFFCURVE",
"603 365 CURVE SMOOTH",
"603 576 OFFCURVE",
"551 745 OFFCURVE",
"325 745 CURVE SMOOTH",
"100 745 OFFCURVE",
"48 576 OFFCURVE",
"48 365 CURVE SMOOTH",
"48 153 OFFCURVE",
"100 -14 OFFCURVE",
"325 -14 CURVE SMOOTH"
);
},
{
closed = 1;
nodes = (
"223 102 OFFCURVE",
"200 195 OFFCURVE",
"200 365 CURVE SMOOTH",
"200 535 OFFCURVE",
"223 629 OFFCURVE",
"325 629 CURVE SMOOTH",
"428 629 OFFCURVE",
"452 535 OFFCURVE",
"452 365 CURVE SMOOTH",
"452 195 OFFCURVE",
"428 102 OFFCURVE",
"325 102 CURVE SMOOTH"
);
}
);
width = 650;
}
);
unicode = 0030;
},
{
glyphname = one;
lastChange = "2017-11-28 17:57:31 +0000";
layers = (
{
hints = (
{
place = "{299, 72}";
},
{
horizontal = 1;
place = "{0, 60}";
},
{
horizontal = 1;
place = "{33, 27}";
},
{
horizontal = 1;
place = "{730, -20}";
target = down;
type = TopGhost;
}
);
layerId = UUID0;
paths = (
{
closed = 1;
nodes = (
"146 0 LINE",
"525 0 LINE",
"525 60 LINE",
"146 60 LINE"
);
},
{
closed = 1;
nodes = (
"371 33 LINE",
"371 730 LINE",
"320 730 LINE",
"299 661 LINE",
"299 33 LINE"
);
},
{
closed = 1;
nodes = (
"152 630 LINE",
"321 630 LINE",
"320 730 LINE",
"282 703 OFFCURVE",
"225 683 OFFCURVE",
"152 675 CURVE"
);
}
);
width = 630;
},
{
layerId = UUID1;
paths = (
{
closed = 1;
nodes = (
"127 0 LINE",
"565 0 LINE",
"565 117 LINE",
"127 117 LINE"
);
},
{
closed = 1;
nodes = (
"422 33 LINE",
"422 730 LINE",
"301 730 LINE",
"270 661 LINE",
"270 33 LINE"
);
},
{
closed = 1;
nodes = (
"123 587 LINE",
"292 587 LINE",
"301 730 LINE",
"263 703 OFFCURVE",
"196 683 OFFCURVE",
"123 675 CURVE"
);
}
);
width = 650;
}
);
unicode = 0031;
},
{
glyphname = two;
lastChange = "2017-11-28 17:57:31 +0000";
layers = (
{
hints = (
{
place = "{470, 70}";
},
{
horizontal = 1;
place = "{0, 60}";
},
{
horizontal = 1;
place = "{685, 59}";
}
);
layerId = UUID0;
paths = (
{
closed = 1;
nodes = (
"163 552 LINE",
"168 632 OFFCURVE",
"211 685 OFFCURVE",
"318 685 CURVE SMOOTH",
"424 685 OFFCURVE",
"470 631 OFFCURVE",
"470 553 CURVE SMOOTH",
"470 480 OFFCURVE",
"426 427 OFFCURVE",
"372 368 CURVE SMOOTH",
"84 58 LINE",
"84 0 LINE",
"547 0 LINE",
"547 60 LINE",
"179 60 LINE",
"406 303 LINE SMOOTH",
"473 375 OFFCURVE",
"540 456 OFFCURVE",
"540 551 CURVE SMOOTH",
"540 668 OFFCURVE",
"466 744 OFFCURVE",
"317 744 CURVE SMOOTH",
"181 744 OFFCURVE",
"111 673 OFFCURVE",
"101 562 CURVE"
);
}
);
width = 630;
},
{
layerId = UUID1;
paths = (
{
closed = 1;
nodes = (
"202 519 LINE",
"206 588 OFFCURVE",
"236 626 OFFCURVE",
"314 626 CURVE SMOOTH",
"384 626 OFFCURVE",
"415 587 OFFCURVE",
"415 537 CURVE SMOOTH",
"415 487 OFFCURVE",
"379 449 OFFCURVE",
"324 389 CURVE SMOOTH",
"64 105 LINE",
"64 0 LINE",
"577 0 LINE",
"577 117 LINE",
"270 117 LINE",
"464 328 LINE SMOOTH",
"527 397 OFFCURVE",
"565 458 OFFCURVE",
"565 536 CURVE SMOOTH",
"565 658 OFFCURVE",
"486 744 OFFCURVE",
"326 744 CURVE SMOOTH",
"163 744 OFFCURVE",
"82 673 OFFCURVE",
"71 538 CURVE"
);
}
);
width = 650;
}
);
unicode = 0032;
},
{
glyphname = three;
lastChange = "2017-11-28 17:57:31 +0000";
layers = (
{
hints = (
{
place = "{480, 69}";
},
{
horizontal = 1;
place = "{-14, 59}";
},
{
horizontal = 1;
place = "{334, 45}";
},
{
horizontal = 1;
place = "{685, 59}";
}
);
layerId = UUID0;
paths = (
{
closed = 1;
nodes = (
"149 550 LINE",
"155 631 OFFCURVE",
"207 685 OFFCURVE",
"306 685 CURVE SMOOTH",
"422 685 OFFCURVE",
"470 625 OFFCURVE",
"470 535 CURVE SMOOTH",
"470 453 OFFCURVE",
"418 388 OFFCURVE",
"329 388 CURVE SMOOTH",
"231 388 LINE",
"231 343 LINE",
"328 343 LINE SMOOTH",
"441 343 OFFCURVE",
"540 418 OFFCURVE",
"540 534 CURVE SMOOTH",
"540 662 OFFCURVE",
"462 744 OFFCURVE",
"304 744 CURVE SMOOTH",
"172 744 OFFCURVE",
"97 671 OFFCURVE",
"88 559 CURVE"
);
},
{
closed = 1;
nodes = (
"75 161 LINE",
"87 53 OFFCURVE",
"160 -14 OFFCURVE",
"304 -14 CURVE SMOOTH",
"456 -14 OFFCURVE",
"549 54 OFFCURVE",
"549 181 CURVE SMOOTH",
"549 316 OFFCURVE",
"452 379 OFFCURVE",
"340 379 CURVE SMOOTH",
"231 379 LINE",
"231 334 LINE",
"328 334 LINE SMOOTH",
"442 334 OFFCURVE",
"480 264 OFFCURVE",
"480 179 CURVE SMOOTH",
"480 95 OFFCURVE",
"419 45 OFFCURVE",
"306 45 CURVE SMOOTH",
"202 45 OFFCURVE",
"147 93 OFFCURVE",
"137 168 CURVE"
);
}
);
width = 630;
},
{
layerId = UUID1;
paths = (
{
closed = 1;
nodes = (
"199 519 LINE",
"203 593 OFFCURVE",
"241 626 OFFCURVE",
"307 626 CURVE SMOOTH",
"380 626 OFFCURVE",
"420 587 OFFCURVE",
"420 525 CURVE SMOOTH",
"420 457 OFFCURVE",
"392 416 OFFCURVE",
"290 416 CURVE SMOOTH",
"221 416 LINE",
"221 333 LINE",
"308 333 LINE SMOOTH",
"442 333 OFFCURVE",
"570 391 OFFCURVE",
"570 524 CURVE SMOOTH",
"570 652 OFFCURVE",
"485 744 OFFCURVE",
"319 744 CURVE SMOOTH",
"157 744 OFFCURVE",
"78 679 OFFCURVE",
"68 536 CURVE"
);
},
{
closed = 1;
nodes = (
"55 182 LINE",
"68 45 OFFCURVE",
"152 -14 OFFCURVE",
"317 -14 CURVE SMOOTH",
"477 -14 OFFCURVE",
"579 74 OFFCURVE",
"579 191 CURVE SMOOTH",
"579 333 OFFCURVE",
"462 389 OFFCURVE",
"319 389 CURVE SMOOTH",
"221 389 LINE",
"221 306 LINE",
"289 306 LINE SMOOTH",
"366 306 OFFCURVE",
"430 288 OFFCURVE",
"430 203 CURVE SMOOTH",
"430 134 OFFCURVE",
"387 104 OFFCURVE",
"307 104 CURVE SMOOTH",
"235 104 OFFCURVE",
"193 133 OFFCURVE",
"186 199 CURVE"
);
}
);
width = 650;
}
);
unicode = 0033;
},
{
glyphname = four;
lastChange = "2017-11-28 17:57:31 +0000";
layers = (
{
hints = (
{
place = "{401, 71}";
},
{
horizontal = 1;
place = "{166, 60}";
},
{
horizontal = 1;
place = "{730, -20}";
target = down;
type = TopGhost;
},
{
horizontal = 1;
place = "{21, 21}";
target = up;
type = BottomGhost;
}
);
layerId = UUID0;
paths = (
{
closed = 1;
nodes = (
"371 730 LINE",
"36 226 LINE",
"36 166 LINE",
"565 166 LINE",
"565 226 LINE",
"115 226 LINE",
"446 730 LINE"
);
},
{
closed = 1;
nodes = (
"472 0 LINE",
"472 730 LINE",
"401 730 LINE",
"401 0 LINE"
);
}
);
width = 630;
},
{
layerId = UUID1;
paths = (
{
closed = 1;
nodes = (
"288 730 LINE",
"16 259 LINE",
"16 151 LINE",
"585 151 LINE",
"585 268 LINE",
"186 268 LINE",
"446 730 LINE"
);
},
{
closed = 1;
nodes = (
"512 0 LINE",
"512 730 LINE",
"366 730 LINE",
"366 0 LINE"
);
}
);
width = 650;
}
);
unicode = 0034;
},
{
glyphname = five;
lastChange = "2017-11-28 17:57:31 +0000";
layers = (
{
hints = (
{
place = "{102, 62}";
},
{
place = "{116, 82}";
},
{
place = "{497, 70}";
},
{
horizontal = 1;
place = "{-14, 59}";
},
{
horizontal = 1;
place = "{374, 59}";
},
{
horizontal = 1;
place = "{670, 60}";
}
);
layerId = UUID0;
paths = (
{
closed = 1;
nodes = (
"102 186 LINE",
"110 60 OFFCURVE",
"184 -14 OFFCURVE",
"327 -14 CURVE SMOOTH",
"488 -14 OFFCURVE",
"567 84 OFFCURVE",
"567 214 CURVE SMOOTH",
"567 363 OFFCURVE",
"460 433 OFFCURVE",
"231 433 CURVE SMOOTH",
"183 433 LINE",
"198 670 LINE",
"527 670 LINE",
"527 730 LINE",
"139 730 LINE",
"116 374 LINE",
"235 374 LINE SMOOTH",
"433 374 OFFCURVE",
"497 312 OFFCURVE",
"497 214 CURVE SMOOTH",
"497 118 OFFCURVE",
"446 45 OFFCURVE",
"327 45 CURVE SMOOTH",
"215 45 OFFCURVE",
"169 103 OFFCURVE",
"164 192 CURVE"
);
}
);
width = 630;
},
{
layerId = UUID1;
paths = (
{
closed = 1;
nodes = (
"82 213 LINE",
"90 70 OFFCURVE",
"164 -14 OFFCURVE",
"327 -14 CURVE SMOOTH",
"509 -14 OFFCURVE",
"595 97 OFFCURVE",
"595 214 CURVE SMOOTH",
"595 361 OFFCURVE",
"504 463 OFFCURVE",
"278 463 CURVE SMOOTH",
"235 463 LINE",
"246 613 LINE",
"547 613 LINE",
"547 730 LINE",
"119 730 LINE",
"94 341 LINE",
"219 341 LINE SMOOTH",
"406 341 OFFCURVE",
"443 285 OFFCURVE",
"443 214 CURVE SMOOTH",
"443 153 OFFCURVE",
"410 102 OFFCURVE",
"327 102 CURVE SMOOTH",
"249 102 OFFCURVE",
"217 147 OFFCURVE",
"213 224 CURVE"
);
}
);
width = 650;
}
);
unicode = 0035;
},
{
glyphname = six;
lastChange = "2017-11-28 17:57:31 +0000";
layers = (
{
hints = (
{
place = "{87, 70}";
},
{
place = "{499, 61}";
},
{
place = "{499, 77}";
},
{
horizontal = 1;
place = "{-14, 59}";
},
{
horizontal = 1;
place = "{359, 56}";
},
{
horizontal = 1;
place = "{684, 60}";
}
);
layerId = UUID0;
paths = (
{
closed = 1;
nodes = (
"560 548 LINE",
"551 678 OFFCURVE",
"476 744 OFFCURVE",
"329 744 CURVE SMOOTH",
"144 744 OFFCURVE",
"87 574 OFFCURVE",
"87 340 CURVE SMOOTH",
"87 124 OFFCURVE",
"154 -14 OFFCURVE",
"340 -14 CURVE SMOOTH",
"499 -14 OFFCURVE",
"576 79 OFFCURVE",
"576 218 CURVE SMOOTH",
"576 326 OFFCURVE",
"519 415 OFFCURVE",
"330 415 CURVE SMOOTH",
"276 415 OFFCURVE",
"192 402 OFFCURVE",
"121 374 CURVE",
"121 319 LINE",
"201 348 OFFCURVE",
"252 359 OFFCURVE",
"333 359 CURVE SMOOTH",
"461 359 OFFCURVE",
"506 296 OFFCURVE",
"506 218 CURVE SMOOTH",
"506 113 OFFCURVE",
"457 45 OFFCURVE",
"336 45 CURVE SMOOTH",
"206 45 OFFCURVE",
"157 142 OFFCURVE",
"157 360 CURVE SMOOTH",
"157 537 OFFCURVE",
"186 684 OFFCURVE",
"332 684 CURVE SMOOTH",
"435 684 OFFCURVE",
"493 642 OFFCURVE",
"499 541 CURVE"
);
}
);
width = 630;
},
{
layerId = UUID1;
paths = (
{
closed = 1;
nodes = (
"582 529 LINE",
"574 674 OFFCURVE",
"493 744 OFFCURVE",
"335 744 CURVE SMOOTH",
"115 744 OFFCURVE",
"57 589 OFFCURVE",
"57 333 CURVE SMOOTH",
"57 123 OFFCURVE",
"129 -14 OFFCURVE",
"335 -14 CURVE SMOOTH",
"515 -14 OFFCURVE",
"598 70 OFFCURVE",
"599 221 CURVE SMOOTH",
"599 352 OFFCURVE",
"532 439 OFFCURVE",
"359 439 CURVE SMOOTH",
"297 439 OFFCURVE",
"235 431 OFFCURVE",
"159 411 CURVE",
"159 299 LINE",
"218 319 OFFCURVE",
"264 328 OFFCURVE",
"320 328 CURVE SMOOTH",
"421 328 OFFCURVE",
"451 277 OFFCURVE",
"451 221 CURVE SMOOTH",
"451 144 OFFCURVE",
"417 102 OFFCURVE",
"333 102 CURVE SMOOTH",
"240 102 OFFCURVE",
"205 165 OFFCURVE",
"205 366 CURVE SMOOTH",
"205 531 OFFCURVE",
"223 627 OFFCURVE",
"334 627 CURVE SMOOTH",
"411 627 OFFCURVE",
"448 589 OFFCURVE",
"451 516 CURVE"
);
}
);
width = 650;
}
);
unicode = 0036;
},
{
glyphname = seven;
lastChange = "2017-11-28 17:57:31 +0000";
layers = (
{
hints = (
{
horizontal = 1;
place = "{670, 60}";
},
{
horizontal = 1;
place = "{21, 21}";
target = up;
type = BottomGhost;
}
);
layerId = UUID0;
paths = (
{
closed = 1;
nodes = (
"260 0 LINE",
"549 672 LINE",
"549 730 LINE",
"85 730 LINE",
"85 670 LINE",
"472 670 LINE",
"183 0 LINE"
);
}
);
width = 630;
},
{
layerId = UUID1;
paths = (
{
closed = 1;
nodes = (
"302 0 LINE",
"575 630 LINE",
"575 730 LINE",
"64 730 LINE",
"64 613 LINE",
"411 613 LINE",
"140 0 LINE"
);
}
);
width = 650;
}
);
unicode = 0037;
},
{
glyphname = eight;
lastChange = "2017-11-28 17:57:31 +0000";
layers = (
{
hints = (
{
place = "{84, 60}";
},
{
place = "{488, 59}";
},
{
horizontal = 1;
place = "{-14, 60}";
},
{
horizontal = 1;
place = "{684, 60}";
}
);
layerId = UUID0;
paths = (
{
closed = 1;
nodes = (
"277 384 LINE",
"148 364 OFFCURVE",
"74 298 OFFCURVE",
"74 185 CURVE SMOOTH",
"74 69 OFFCURVE",
"165 -14 OFFCURVE",
"316 -14 CURVE SMOOTH",
"466 -14 OFFCURVE",
"557 69 OFFCURVE",
"557 185 CURVE SMOOTH",
"557 298 OFFCURVE",
"496 365 OFFCURVE",
"367 385 CURVE SMOOTH",
"277 399 LINE SMOOTH",
"182 414 OFFCURVE",
"153 461 OFFCURVE",
"153 535 CURVE SMOOTH",
"153 616 OFFCURVE",
"200 684 OFFCURVE",
"316 684 CURVE SMOOTH",
"431 684 OFFCURVE",
"478 616 OFFCURVE",
"478 535 CURVE SMOOTH",
"478 461 OFFCURVE",
"432 403 OFFCURVE",
"336 389 CURVE",
"344 348 LINE",
"473 369 OFFCURVE",
"547 431 OFFCURVE",
"547 534 CURVE SMOOTH",
"547 649 OFFCURVE",
"473 744 OFFCURVE",
"316 744 CURVE SMOOTH",
"158 744 OFFCURVE",
"84 649 OFFCURVE",
"84 534 CURVE SMOOTH",
"84 431 OFFCURVE",
"145 366 OFFCURVE",
"274 345 CURVE SMOOTH",
"366 330 LINE SMOOTH",
"457 315 OFFCURVE",
"488 264 OFFCURVE",
"488 184 CURVE SMOOTH",
"488 108 OFFCURVE",
"429 46 OFFCURVE",
"315 46 CURVE SMOOTH",
"200 46 OFFCURVE",
"144 108 OFFCURVE",
"144 184 CURVE SMOOTH",
"144 270 OFFCURVE",
"190 331 OFFCURVE",
"285 345 CURVE"
);
}
);
width = 630;
},
{
layerId = UUID1;
paths = (
{
closed = 1;
nodes = (
"287 401 LINE",
"139 379 OFFCURVE",
"54 316 OFFCURVE",
"54 191 CURVE SMOOTH",
"54 75 OFFCURVE",
"156 -14 OFFCURVE",
"326 -14 CURVE SMOOTH",
"495 -14 OFFCURVE",
"597 75 OFFCURVE",
"597 191 CURVE SMOOTH",
"597 316 OFFCURVE",
"526 383 OFFCURVE",
"377 407 CURVE SMOOTH",
"307 418 LINE SMOOTH",
"236 429 OFFCURVE",
"215 465 OFFCURVE",
"215 522 CURVE SMOOTH",
"215 583 OFFCURVE",
"246 631 OFFCURVE",
"326 631 CURVE SMOOTH",
"405 631 OFFCURVE",
"436 583 OFFCURVE",
"436 522 CURVE SMOOTH",
"436 465 OFFCURVE",
"408 417 OFFCURVE",
"346 406 CURVE",
"354 325 LINE",
"502 348 OFFCURVE",
"587 409 OFFCURVE",
"587 533 CURVE SMOOTH",
"587 649 OFFCURVE",
"503 744 OFFCURVE",
"326 744 CURVE SMOOTH",
"148 744 OFFCURVE",
"64 649 OFFCURVE",
"64 533 CURVE SMOOTH",
"64 409 OFFCURVE",
"135 347 OFFCURVE",
"284 323 CURVE SMOOTH",
"353 312 LINE SMOOTH",
"424 301 OFFCURVE",
"446 258 OFFCURVE",
"446 195 CURVE SMOOTH",
"446 140 OFFCURVE",
"406 99 OFFCURVE",
"325 99 CURVE SMOOTH",
"244 99 OFFCURVE",
"206 140 OFFCURVE",
"206 195 CURVE SMOOTH",
"206 262 OFFCURVE",
"234 311 OFFCURVE",
"295 322 CURVE"
);
}
);
width = 650;
}
);
unicode = 0038;
},
{
glyphname = nine;
lastChange = "2017-11-28 17:57:31 +0000";
layers = (
{
hints = (
{
place = "{60, 69}";
},
{
place = "{474, 69}";
},
{
horizontal = 1;
place = "{-14, 59}";
},
{
horizontal = 1;
place = "{304, 58}";
},
{
horizontal = 1;
place = "{684, 60}";
}
);
layerId = UUID0;
paths = (
{
closed = 1;
nodes = (
"68 180 LINE",
"76 60 OFFCURVE",
"149 -14 OFFCURVE",
"295 -14 CURVE SMOOTH",
"494 -14 OFFCURVE",
"543 156 OFFCURVE",
"543 367 CURVE SMOOTH",
"543 604 OFFCURVE",
"487 744 OFFCURVE",
"308 744 CURVE SMOOTH",
"146 744 OFFCURVE",
"60 641 OFFCURVE",
"60 513 CURVE SMOOTH",
"60 412 OFFCURVE",
"113 304 OFFCURVE",
"303 304 CURVE SMOOTH",
"370 304 OFFCURVE",
"435 317 OFFCURVE",
"498 338 CURVE",
"499 391 LINE",
"418 369 OFFCURVE",
"377 362 OFFCURVE",
"304 362 CURVE SMOOTH",
"171 362 OFFCURVE",
"130 446 OFFCURVE",
"130 515 CURVE SMOOTH",
"130 610 OFFCURVE",
"188 684 OFFCURVE",
"307 684 CURVE SMOOTH",
"428 684 OFFCURVE",
"474 600 OFFCURVE",
"474 374 CURVE SMOOTH",
"474 136 OFFCURVE",
"420 45 OFFCURVE",
"293 45 CURVE SMOOTH",
"192 45 OFFCURVE",
"134 96 OFFCURVE",
"129 187 CURVE"
);
}
);
width = 630;
},
{
layerId = UUID1;
paths = (
{
closed = 1;
nodes = (
"62 197 LINE",
"69 55 OFFCURVE",
"155 -14 OFFCURVE",
"312 -14 CURVE SMOOTH",
"538 -14 OFFCURVE",
"593 130 OFFCURVE",
"593 396 CURVE SMOOTH",
"593 603 OFFCURVE",
"530 744 OFFCURVE",
"328 744 CURVE SMOOTH",
"148 744 OFFCURVE",
"49 640 OFFCURVE",
"49 502 CURVE SMOOTH",
"49 384 OFFCURVE",
"110 288 OFFCURVE",
"291 288 CURVE SMOOTH",
"355 288 OFFCURVE",
"414 295 OFFCURVE",
"489 319 CURVE",
"490 428 LINE",
"431 409 OFFCURVE",
"386 401 OFFCURVE",
"331 401 CURVE SMOOTH",
"230 401 OFFCURVE",
"201 458 OFFCURVE",
"201 509 CURVE SMOOTH",
"201 578 OFFCURVE",
"242 627 OFFCURVE",
"326 627 CURVE SMOOTH",
"421 627 OFFCURVE",
"442 537 OFFCURVE",
"442 368 CURVE SMOOTH",
"442 184 OFFCURVE",
"422 102 OFFCURVE",
"312 102 CURVE SMOOTH",
"231 102 OFFCURVE",
"195 141 OFFCURVE",
"192 212 CURVE"
);
}
);
width = 650;
}
);
unicode = 0039;
},
{
glyphname = zero.dnom;
lastChange = "2017-11-28 20:09:49 +0000";
layers = (
{
hints = (
{
place = "{48, 65}";
},
{
place = "{277, 65}";
},
{
horizontal = 1;
place = "{-115, 51}";
},
{
horizontal = 1;
place = "{255, 51}";
}
);
layerId = UUID0;
paths = (
{
closed = 1;
nodes = (
"316 -8 OFFCURVE",
"344 86 OFFCURVE",
"344 203 CURVE SMOOTH",
"344 319 OFFCURVE",
"316 413 OFFCURVE",
"197 413 CURVE SMOOTH",
"78 413 OFFCURVE",
"50 319 OFFCURVE",
"50 203 CURVE SMOOTH",
"50 86 OFFCURVE",
"78 -8 OFFCURVE",
"197 -8 CURVE SMOOTH"
);
},
{
closed = 1;
nodes = (
"130 43 OFFCURVE",
"115 105 OFFCURVE",
"115 203 CURVE SMOOTH",
"115 300 OFFCURVE",
"130 362 OFFCURVE",
"197 362 CURVE SMOOTH",
"264 362 OFFCURVE",
"279 300 OFFCURVE",
"279 203 CURVE SMOOTH",
"279 105 OFFCURVE",
"264 43 OFFCURVE",
"197 43 CURVE SMOOTH"
);
}
);
width = 394;
},
{
layerId = UUID1;
paths = (
{
closed = 1;
nodes = (
"332 -8 OFFCURVE",
"363 80 OFFCURVE",
"363 203 CURVE SMOOTH",
"363 322 OFFCURVE",
"332 414 OFFCURVE",
"193 414 CURVE SMOOTH",
"54 414 OFFCURVE",
"23 322 OFFCURVE",
"23 203 CURVE SMOOTH",
"23 80 OFFCURVE",
"54 -8 OFFCURVE",
"193 -8 CURVE SMOOTH"
);
},
{
closed = 1;
nodes = (
"157 86 OFFCURVE",
"150 117 OFFCURVE",
"150 203 CURVE SMOOTH",
"150 289 OFFCURVE",
"157 319 OFFCURVE",
"193 319 CURVE SMOOTH",
"229 319 OFFCURVE",
"236 289 OFFCURVE",
"236 203 CURVE SMOOTH",
"236 117 OFFCURVE",
"229 86 OFFCURVE",
"193 86 CURVE SMOOTH"
);
}
);
width = 386;
}
);
},
{
glyphname = one.dnom;
lastChange = "2017-11-28 17:57:31 +0000";
layers = (
{
hints = (
{
place = "{175, 67}";
},
{
horizontal = 1;
place = "{-86, 21}";
target = up;
type = BottomGhost;
},
{
horizontal = 1;
place = "{298, -20}";
target = down;
type = TopGhost;
}
);
layerId = UUID0;
paths = (
{
closed = 1;
nodes = (
"242 0 LINE",
"242 405 LINE",
"190 405 LINE",
"175 367 LINE",
"175 0 LINE"
);
},
{
closed = 1;
nodes = (
"93 335 LINE",
"187 335 LINE",
"190 405 LINE",
"169 390 OFFCURVE",
"134 379 OFFCURVE",
"93 375 CURVE"
);
}
);
width = 392;
},
{
layerId = UUID1;
paths = (
{
closed = 1;
nodes = (
"269 0 LINE",
"269 405 LINE",
"164 405 LINE",
"142 367 LINE",
"142 0 LINE"
);
},
{
closed = 1;
nodes = (
"60 303 LINE",
"154 303 LINE",
"164 405 LINE",
"143 390 OFFCURVE",
"101 379 OFFCURVE",
"60 375 CURVE"
);
}
);
width = 386;
}
);
},
{
glyphname = two.dnom;
lastChange = "2017-11-28 17:57:31 +0000";
layers = (
{
hints = (
{
place = "{262, 63}";
},
{
horizontal = 1;
place = "{-107, 52}";
},
{
horizontal = 1;
place = "{255, 52}";
}
);
layerId = UUID0;
paths = (
{
closed = 1;
nodes = (
"121 302 LINE",
"125 340 OFFCURVE",
"144 362 OFFCURVE",
"193 362 CURVE SMOOTH",
"240 362 OFFCURVE",
"262 337 OFFCURVE",
"262 302 CURVE SMOOTH",
"262 268 OFFCURVE",
"240 237 OFFCURVE",
"209 204 CURVE SMOOTH",
"58 41 LINE",
"58 0 LINE",
"331 0 LINE",
"331 52 LINE",
"145 52 LINE",
"258 174 LINE SMOOTH",
"295 214 OFFCURVE",
"325 254 OFFCURVE",
"325 302 CURVE SMOOTH",
"325 368 OFFCURVE",
"283 414 OFFCURVE",
"196 414 CURVE SMOOTH",
"113 414 OFFCURVE",
"71 375 OFFCURVE",
"65 307 CURVE"
);
}
);
width = 392;
},
{
layerId = UUID1;
paths = (
{
closed = 1;
nodes = (
"141 277 LINE",
"143 307 OFFCURVE",
"154 317 OFFCURVE",
"178 317 CURVE SMOOTH",
"200 317 OFFCURVE",
"209 304 OFFCURVE",
"209 288 CURVE SMOOTH",
"209 268 OFFCURVE",
"201 248 OFFCURVE",
"166 212 CURVE SMOOTH",
"33 73 LINE",
"33 0 LINE",
"344 0 LINE",
"344 95 LINE",
"205 95 LINE",
"276 174 LINE SMOOTH",
"320 223 OFFCURVE",
"335 256 OFFCURVE",
"335 291 CURVE SMOOTH",
"335 361 OFFCURVE",
"289 414 OFFCURVE",
"194 414 CURVE SMOOTH",
"90 414 OFFCURVE",
"40 376 OFFCURVE",
"32 290 CURVE"
);
}
);
width = 386;
}
);
},
{
glyphname = three.dnom;
lastChange = "2017-11-28 17:57:31 +0000";
layers = (
{
hints = (
{
place = "{273, 65}";
},
{
horizontal = 1;
place = "{-115, 49}";
},
{
horizontal = 1;
place = "{73, 31}";
},
{
horizontal = 1;
place = "{256, 51}";
}
);
layerId = UUID0;
paths = (
{
closed = 1;
nodes = (
"122 301 LINE",
"127 338 OFFCURVE",
"154 363 OFFCURVE",
"196 363 CURVE SMOOTH",
"247 363 OFFCURVE",
"268 335 OFFCURVE",
"268 294 CURVE SMOOTH",
"268 257 OFFCURVE",
"245 221 OFFCURVE",
"194 221 CURVE SMOOTH",
"166 221 LINE",
"166 191 LINE",
"199 191 LINE SMOOTH",
"268 191 OFFCURVE",
"332 225 OFFCURVE",
"332 294 CURVE SMOOTH",
"332 365 OFFCURVE",
"287 414 OFFCURVE",
"197 414 CURVE SMOOTH",
"119 414 OFFCURVE",
"71 377 OFFCURVE",
"66 308 CURVE"
);
},
{
closed = 1;
nodes = (
"58 99 LINE",
"65 28 OFFCURVE",
"112 -8 OFFCURVE",
"196 -8 CURVE SMOOTH",
"282 -8 OFFCURVE",
"338 36 OFFCURVE",
"338 104 CURVE SMOOTH",
"338 181 OFFCURVE",
"277 211 OFFCURVE",
"205 211 CURVE SMOOTH",
"166 211 LINE",
"166 180 LINE",
"193 180 LINE SMOOTH",
"248 180 OFFCURVE",
"273 146 OFFCURVE",
"273 106 CURVE SMOOTH",
"273 65 OFFCURVE",
"246 41 OFFCURVE",
"193 41 CURVE SMOOTH",
"144 41 OFFCURVE",
"116 65 OFFCURVE",
"113 106 CURVE"
);
}
);
width = 392;
},
{
layerId = UUID1;
paths = (
{
closed = 1;
nodes = (
"151 278 LINE",
"154 309 OFFCURVE",
"172 317 OFFCURVE",
"189 317 CURVE SMOOTH",
"209 317 OFFCURVE",
"223 303 OFFCURVE",
"223 285 CURVE SMOOTH",
"223 257 OFFCURVE",
"206 237 OFFCURVE",
"154 237 CURVE SMOOTH",
"149 237 LINE",
"149 183 LINE",
"174 183 LINE SMOOTH",
"259 183 OFFCURVE",
"345 204 OFFCURVE",
"345 286 CURVE SMOOTH",
"345 358 OFFCURVE",
"294 414 OFFCURVE",
"198 414 CURVE SMOOTH",
"94 414 OFFCURVE",
"47 384 OFFCURVE",
"41 292 CURVE"
);
},
{
closed = 1;
nodes = (
"33 115 LINE",
"39 22 OFFCURVE",
"90 -8 OFFCURVE",
"196 -8 CURVE SMOOTH",
"288 -8 OFFCURVE",
"350 52 OFFCURVE",
"350 111 CURVE SMOOTH",
"350 194 OFFCURVE",
"275 218 OFFCURVE",
"179 218 CURVE SMOOTH",
"149 218 LINE",
"149 164 LINE",
"153 164 LINE SMOOTH",
"206 164 OFFCURVE",
"225 147 OFFCURVE",
"225 122 CURVE SMOOTH",
"225 98 OFFCURVE",
"211 86 OFFCURVE",
"184 86 CURVE SMOOTH",
"160 86 OFFCURVE",
"144 95 OFFCURVE",
"142 129 CURVE"
);
}
);
width = 386;
}
);
},
{
glyphname = four.dnom;
lastChange = "2017-11-28 17:57:31 +0000";
layers = (
{
hints = (
{
place = "{230, 62}";
},
{
horizontal = 1;
place = "{-25, 52}";
},
{
horizontal = 1;
place = "{298, -20}";
target = down;
type = TopGhost;
},
{
horizontal = 1;
place = "{-86, 21}";
target = up;
type = BottomGhost;
}
);
layerId = UUID0;
paths = (
{
closed = 1;
nodes = (
"194 405 LINE",
"31 131 LINE",
"31 82 LINE",
"338 82 LINE",
"338 134 LINE",
"96 134 LINE",
"256 405 LINE"
);
},
{
closed = 1;
nodes = (
"292 0 LINE",
"292 405 LINE",
"230 405 LINE",
"230 0 LINE"
);
}
);
width = 392;
},
{
layerId = UUID1;
paths = (
{
closed = 1;
nodes = (
"129 405 LINE",
"6 151 LINE",
"6 66 LINE",
"343 66 LINE",
"343 160 LINE",
"127 160 LINE",
"242 405 LINE"
);
},
{
closed = 1;
nodes = (
"313 0 LINE",
"313 405 LINE",
"198 405 LINE",
"198 0 LINE"
);
}
);
width = 386;
}
);
},
{
glyphname = five.dnom;
lastChange = "2017-11-28 17:57:31 +0000";
layers = (
{
hints = (
{
place = "{65, 54}";
},
{
place = "{72, 68}";
},
{
place = "{273, 66}";
},
{
horizontal = 1;
place = "{-115, 50}";
},
{
horizontal = 1;
place = "{94, 44}";
},
{
horizontal = 1;
place = "{246, 52}";
}
);
layerId = UUID0;
paths = (
{
closed = 1;
nodes = (
"65 111 LINE",
"70 39 OFFCURVE",
"104 -8 OFFCURVE",
"197 -8 CURVE SMOOTH",
"304 -8 OFFCURVE",
"339 47 OFFCURVE",
"339 119 CURVE SMOOTH",
"339 206 OFFCURVE",
"280 245 OFFCURVE",
"158 245 CURVE SMOOTH",
"134 245 LINE",
"140 353 LINE",
"314 353 LINE",
"314 405 LINE",
"85 405 LINE",
"72 201 LINE",
"139 201 LINE SMOOTH",
"244 201 OFFCURVE",
"273 168 OFFCURVE",
"273 120 CURVE SMOOTH",
"273 76 OFFCURVE",
"256 42 OFFCURVE",
"197 42 CURVE SMOOTH",
"140 42 OFFCURVE",
"121 73 OFFCURVE",
"119 118 CURVE"
);
}
);
width = 392;
},
{
layerId = UUID1;
paths = (
{
closed = 1;
nodes = (
"47 129 LINE",
"52 45 OFFCURVE",
"85 -8 OFFCURVE",
"193 -8 CURVE SMOOTH",
"318 -8 OFFCURVE",
"358 47 OFFCURVE",
"358 119 CURVE SMOOTH",
"358 217 OFFCURVE",
"304 263 OFFCURVE",
"192 263 CURVE SMOOTH",
"170 263 LINE",
"174 309 LINE",
"327 309 LINE",
"327 405 LINE",
"67 405 LINE",
"53 183 LINE",
"124 183 LINE SMOOTH",
"208 183 OFFCURVE",
"229 162 OFFCURVE",
"229 128 CURVE SMOOTH",
"229 107 OFFCURVE",
"223 87 OFFCURVE",
"193 87 CURVE SMOOTH",
"166 87 OFFCURVE",
"155 105 OFFCURVE",
"154 142 CURVE"
);
}
);
width = 386;
}
);
},
{
glyphname = six.dnom;
lastChange = "2017-11-28 17:57:31 +0000";
layers = (
{
hints = (
{
place = "{49, 63}";
},
{
place = "{273, 64}";
},
{
horizontal = 1;
place = "{-115, 51}";
},
{
horizontal = 1;
place = "{82, 49}";
},
{
horizontal = 1;
place = "{255, 52}";
}
);
layerId = UUID0;
paths = (
{
closed = 1;
nodes = (
"330 308 LINE",
"324 379 OFFCURVE",
"280 414 OFFCURVE",
"195 414 CURVE SMOOTH",
"81 414 OFFCURVE",
"49 322 OFFCURVE",
"49 176 CURVE SMOOTH",
"49 68 OFFCURVE",
"88 -8 OFFCURVE",
"197 -8 CURVE SMOOTH",
"292 -8 OFFCURVE",
"337 49 OFFCURVE",
"337 122 CURVE SMOOTH",
"337 183 OFFCURVE",
"302 238 OFFCURVE",
"203 238 CURVE SMOOTH",
"170 238 OFFCURVE",
"131 232 OFFCURVE",
"89 219 CURVE",
"89 171 LINE",
"127 184 OFFCURVE",
"154 189 OFFCURVE",
"191 189 CURVE SMOOTH",
"254 189 OFFCURVE",
"273 155 OFFCURVE",
"273 122 CURVE SMOOTH",
"273 77 OFFCURVE",
"251 43 OFFCURVE",
"195 43 CURVE SMOOTH",
"136 43 OFFCURVE",
"112 86 OFFCURVE",
"112 199 CURVE SMOOTH",
"112 294 OFFCURVE",
"125 362 OFFCURVE",
"196 362 CURVE SMOOTH",
"243 362 OFFCURVE",
"271 343 OFFCURVE",
"275 302 CURVE"
);
}
);
width = 392;
},
{
layerId = UUID1;
paths = (
{
closed = 1;
nodes = (
"342 292 LINE",
"336 376 OFFCURVE",
"287 414 OFFCURVE",
"197 414 CURVE SMOOTH",
"55 414 OFFCURVE",
"23 334 OFFCURVE",
"23 174 CURVE SMOOTH",
"23 68 OFFCURVE",
"65 -8 OFFCURVE",
"189 -8 CURVE SMOOTH",
"299 -8 OFFCURVE",
"350 43 OFFCURVE",
"351 123 CURVE SMOOTH",
"352 200 OFFCURVE",
"311 256 OFFCURVE",
"222 256 CURVE SMOOTH",
"183 256 OFFCURVE",
"161 255 OFFCURVE",
"116 248 CURVE",
"115 155 LINE",
"137 162 OFFCURVE",
"160 166 OFFCURVE",
"178 166 CURVE SMOOTH",
"220 166 OFFCURVE",
"229 141 OFFCURVE",
"229 123 CURVE SMOOTH",
"229 99 OFFCURVE",
"218 86 OFFCURVE",
"191 86 CURVE SMOOTH",
"158 86 OFFCURVE",
"146 103 OFFCURVE",
"146 202 CURVE SMOOTH",
"146 291 OFFCURVE",
"150 319 OFFCURVE",
"194 319 CURVE SMOOTH",
"220 319 OFFCURVE",
"231 303 OFFCURVE",
"233 279 CURVE"
);
}
);
width = 386;
}
);
},
{
glyphname = seven.dnom;
lastChange = "2017-11-28 17:57:31 +0000";
layers = (
{
hints = (
{
horizontal = 1;
place = "{246, 52}";
},
{
horizontal = 1;
place = "{-86, 21}";
target = up;
type = BottomGhost;
}
);
layerId = UUID0;
paths = (
{
closed = 1;
nodes = (
"183 0 LINE",
"338 359 LINE",
"338 405 LINE",
"65 405 LINE",
"65 353 LINE",
"267 353 LINE",
"112 0 LINE"
);
}
);
width = 392;
},
{
layerId = UUID1;
paths = (
{
closed = 1;
nodes = (
"210 0 LINE",
"352 327 LINE",
"352 405 LINE",
"44 405 LINE",
"44 309 LINE",
"215 309 LINE",
"74 0 LINE"
);
}
);
width = 386;
}
);
},
{
glyphname = eight.dnom;
lastChange = "2017-11-28 17:57:31 +0000";
layers = (
{
hints = (
{
place = "{57, 60}";
},
{
place = "{274, 60}";
},
{
horizontal = 1;
place = "{-115, 49}";
},
{
horizontal = 1;
place = "{257, 50}";
}
);
layerId = UUID0;
paths = (
{
closed = 1;
nodes = (
"174 219 LINE",
"96 207 OFFCURVE",
"52 172 OFFCURVE",
"52 105 CURVE SMOOTH",
"52 40 OFFCURVE",
"106 -8 OFFCURVE",
"196 -8 CURVE SMOOTH",
"285 -8 OFFCURVE",
"339 40 OFFCURVE",
"339 105 CURVE SMOOTH",
"339 172 OFFCURVE",
"302 208 OFFCURVE",
"224 221 CURVE SMOOTH",
"181 228 LINE SMOOTH",
"136 235 OFFCURVE",
"122 256 OFFCURVE",
"122 292 CURVE SMOOTH",
"122 331 OFFCURVE",
"143 364 OFFCURVE",
"196 364 CURVE SMOOTH",
"249 364 OFFCURVE",
"269 331 OFFCURVE",
"269 292 CURVE SMOOTH",
"269 256 OFFCURVE",
"250 229 OFFCURVE",
"207 221 CURVE",
"211 186 LINE",
"289 198 OFFCURVE",
"334 233 OFFCURVE",
"334 296 CURVE SMOOTH",
"334 361 OFFCURVE",
"290 414 OFFCURVE",
"196 414 CURVE SMOOTH",
"102 414 OFFCURVE",
"57 361 OFFCURVE",
"57 296 CURVE SMOOTH",
"57 233 OFFCURVE",
"94 195 OFFCURVE",
"173 184 CURVE SMOOTH",
"216 178 LINE SMOOTH",
"261 172 OFFCURVE",
"274 144 OFFCURVE",
"274 106 CURVE SMOOTH",
"274 70 OFFCURVE",
"249 41 OFFCURVE",
"195 41 CURVE SMOOTH",
"142 41 OFFCURVE",
"117 70 OFFCURVE",
"117 106 CURVE SMOOTH",
"117 147 OFFCURVE",
"137 176 OFFCURVE",
"179 184 CURVE"
);
}
);
width = 392;
},
{
layerId = UUID1;
paths = (
{
closed = 1;
nodes = (
"171 232 LINE",
"79 219 OFFCURVE",
"26 185 OFFCURVE",
"26 108 CURVE SMOOTH",
"26 45 OFFCURVE",
"88 -8 OFFCURVE",
"193 -8 CURVE SMOOTH",
"297 -8 OFFCURVE",
"359 45 OFFCURVE",
"359 108 CURVE SMOOTH",
"359 185 OFFCURVE",
"314 220 OFFCURVE",
"221 237 CURVE SMOOTH",
"195 242 LINE SMOOTH",
"166 247 OFFCURVE",
"158 259 OFFCURVE",
"158 282 CURVE SMOOTH",
"158 306 OFFCURVE",
"166 324 OFFCURVE",
"193 324 CURVE SMOOTH",
"218 324 OFFCURVE",
"227 306 OFFCURVE",
"227 282 CURVE SMOOTH",
"227 259 OFFCURVE",
"221 239 OFFCURVE",
"204 234 CURVE",
"208 169 LINE",
"301 182 OFFCURVE",
"354 217 OFFCURVE",
"354 296 CURVE SMOOTH",
"354 361 OFFCURVE",
"302 414 OFFCURVE",
"193 414 CURVE SMOOTH",
"83 414 OFFCURVE",
"31 361 OFFCURVE",
"31 296 CURVE SMOOTH",
"31 217 OFFCURVE",
"77 184 OFFCURVE",
"169 168 CURVE SMOOTH",
"197 163 LINE SMOOTH",
"226 158 OFFCURVE",
"232 141 OFFCURVE",
"232 114 CURVE SMOOTH",
"232 94 OFFCURVE",
"220 82 OFFCURVE",
"192 82 CURVE SMOOTH",
"164 82 OFFCURVE",
"153 94 OFFCURVE",
"153 114 CURVE SMOOTH",
"153 142 OFFCURVE",
"159 151 OFFCURVE",
"176 167 CURVE"
);
}
);
width = 386;
}
);
},
{
glyphname = nine.dnom;
lastChange = "2017-11-28 17:57:31 +0000";
layers = (
{
hints = (
{
place = "{50, 61}";
},
{
place = "{273, 67}";
},
{
horizontal = 1;
place = "{-115, 52}";
},
{
horizontal = 1;
place = "{57, 50}";
},
{
horizontal = 1;
place = "{254, 53}";
}
);
layerId = UUID0;
paths = (
{
closed = 1;
nodes = (
"53 103 LINE",
"57 32 OFFCURVE",
"104 -8 OFFCURVE",
"189 -8 CURVE SMOOTH",
"309 -8 OFFCURVE",
"340 80 OFFCURVE",
"340 217 CURVE SMOOTH",
"340 337 OFFCURVE",
"306 414 OFFCURVE",
"197 414 CURVE SMOOTH",
"101 414 OFFCURVE",
"50 356 OFFCURVE",
"50 283 CURVE SMOOTH",
"50 222 OFFCURVE",
"82 164 OFFCURVE",
"186 164 CURVE SMOOTH",
"221 164 OFFCURVE",
"255 168 OFFCURVE",
"295 181 CURVE",
"295 230 LINE",
"257 218 OFFCURVE",
"233 214 OFFCURVE",
"199 214 CURVE SMOOTH",
"135 214 OFFCURVE",
"116 253 OFFCURVE",
"116 284 CURVE SMOOTH",
"116 329 OFFCURVE",
"141 361 OFFCURVE",
"196 361 CURVE SMOOTH",
"257 361 OFFCURVE",
"273 315 OFFCURVE",
"273 209 CURVE SMOOTH",
"273 94 OFFCURVE",
"253 44 OFFCURVE",
"188 44 CURVE SMOOTH",
"139 44 OFFCURVE",
"113 67 OFFCURVE",
"111 108 CURVE"
);
}
);
width = 400;
},
{
layerId = UUID1;
paths = (
{
closed = 1;
nodes = (
"33 117 LINE",
"36 26 OFFCURVE",
"92 -8 OFFCURVE",
"184 -8 CURVE SMOOTH",
"324 -8 OFFCURVE",
"358 62 OFFCURVE",
"358 231 CURVE SMOOTH",
"358 338 OFFCURVE",
"319 414 OFFCURVE",
"195 414 CURVE SMOOTH",
"85 414 OFFCURVE",
"24 355 OFFCURVE",
"24 275 CURVE SMOOTH",
"24 200 OFFCURVE",
"60 151 OFFCURVE",
"157 151 CURVE SMOOTH",
"190 151 OFFCURVE",
"220 151 OFFCURVE",
"269 167 CURVE",
"269 258 LINE",
"248 249 OFFCURVE",
"221 244 OFFCURVE",
"200 244 CURVE SMOOTH",
"162 244 OFFCURVE",
"153 261 OFFCURVE",
"153 280 CURVE SMOOTH",
"153 304 OFFCURVE",
"162 318 OFFCURVE",
"190 318 CURVE SMOOTH",
"228 318 OFFCURVE",
"229 273 OFFCURVE",
"229 219 CURVE SMOOTH",
"229 134 OFFCURVE",
"230 87 OFFCURVE",
"182 87 CURVE SMOOTH",
"154 87 OFFCURVE",
"145 101 OFFCURVE",
"144 128 CURVE"
);
}
);
width = 386;
}
);
},
{
glyphname = fraction;
lastChange = "2017-11-28 17:57:31 +0000";
layers = (
{
hints = (
{
horizontal = 1;
place = "{-45, 21}";
target = up;
type = BottomGhost;
},
{
horizontal = 1;
place = "{735, -20}";
target = down;
type = TopGhost;
}
);
layerId = UUID0;
paths = (
{
closed = 1;
nodes = (
"-100 0 LINE",
"-48 0 LINE",
"251 730 LINE",
"198 730 LINE"
);
}
);
width = 151;
},
{
layerId = UUID1;
paths = (
{
closed = 1;
nodes = (
"-100 0 LINE",
"-8 0 LINE",
"291 730 LINE",
"198 730 LINE"
);
}
);
width = 191;
}
);
unicode = 2044;
},
{
glyphname = period;
lastChange = "2017-11-28 17:57:31 +0000";
layers = (
{
hints = (
{
place = "{65, 96}";
},
{
horizontal = 1;
place = "{13, 21}";
target = up;
type = BottomGhost;
},
{
horizontal = 1;
place = "{103, -20}";
target = down;
type = TopGhost;
}
);
layerId = UUID0;
paths = (
{
closed = 1;
nodes = (
"158 -8 OFFCURVE",
"161 21 OFFCURVE",
"161 47 CURVE SMOOTH",
"161 74 OFFCURVE",
"158 103 OFFCURVE",
"112 103 CURVE SMOOTH",
"68 103 OFFCURVE",
"65 74 OFFCURVE",
"65 47 CURVE SMOOTH",
"65 21 OFFCURVE",
"68 -8 OFFCURVE",
"112 -8 CURVE SMOOTH"
);
}
);
width = 226;
},
{
layerId = UUID1;
paths = (
{
closed = 1;
nodes = (
"192 -8 OFFCURVE",
"196 37 OFFCURVE",
"196 76 CURVE SMOOTH",
"196 116 OFFCURVE",
"192 161 OFFCURVE",
"117 161 CURVE SMOOTH",
"45 161 OFFCURVE",
"40 116 OFFCURVE",
"40 76 CURVE SMOOTH",
"40 37 OFFCURVE",
"45 -8 OFFCURVE",
"117 -8 CURVE SMOOTH"
);
}
);
width = 236;
}
);
leftKerningGroup = comma;
unicode = 002E;
},
{
glyphname = comma;
lastChange = "2017-11-28 17:57:31 +0000";
layers = (
{
hints = (
{
place = "{65, 96}";
},
{
place = "{77, 84}";
},
{
horizontal = 1;
place = "{-99, 21}";
target = up;
type = BottomGhost;
},
{
horizontal = 1;
place = "{103, -20}";
target = down;
type = TopGhost;
}
);
layerId = UUID0;
paths = (
{
closed = 1;
nodes = (
"65 25 OFFCURVE",
"77 5 OFFCURVE",
"77 -14 CURVE SMOOTH",
"77 -57 OFFCURVE",
"59 -74 OFFCURVE",
"38 -93 CURVE",
"61 -120 LINE",
"61 -120 OFFCURVE",
"161 -51 OFFCURVE",
"161 50 CURVE SMOOTH",
"161 75 OFFCURVE",
"158 103 OFFCURVE",
"112 103 CURVE SMOOTH",
"68 103 OFFCURVE",
"65 75 OFFCURVE",
"65 50 CURVE SMOOTH"
);
}
);
width = 226;
},
{
layerId = UUID1;
paths = (
{
closed = 1;
nodes = (
"40 39 OFFCURVE",
"62 11 OFFCURVE",
"62 -19 CURVE SMOOTH",
"62 -50 OFFCURVE",
"38 -75 OFFCURVE",
"14 -98 CURVE",
"52 -142 LINE",
"125 -85 OFFCURVE",
"186 -16 OFFCURVE",
"186 80 CURVE SMOOTH",
"186 118 OFFCURVE",
"182 161 OFFCURVE",
"112 161 CURVE SMOOTH",
"45 161 OFFCURVE",
"40 118 OFFCURVE",
"40 80 CURVE SMOOTH"
);
}
);
width = 226;
}
);
leftKerningGroup = comma;
rightKerningGroup = comma;
unicode = 002C;
},
{
glyphname = exclam;
lastChange = "2017-11-28 17:57:31 +0000";
layers = (
{
hints = (
{
place = "{135, 62}";
},
{
horizontal = 1;
place = "{13, 21}";
target = up;
type = BottomGhost;
},
{
horizontal = 1;
place = "{730, -20}";
target = down;
type = TopGhost;
}
);
layerId = UUID0;
paths = (
{
closed = 1;
nodes = (
"203 -8 OFFCURVE",
"206 21 OFFCURVE",
"206 47 CURVE SMOOTH",
"206 74 OFFCURVE",
"203 103 OFFCURVE",
"157 103 CURVE SMOOTH",
"113 103 OFFCURVE",
"110 74 OFFCURVE",
"110 47 CURVE SMOOTH",
"110 21 OFFCURVE",
"113 -8 OFFCURVE",
"157 -8 CURVE SMOOTH"
);
},
{
closed = 1;
nodes = (
"117 730 LINE",
"117 572 LINE",
"135 185 LINE",
"179 185 LINE",
"197 572 LINE",
"197 730 LINE"
);
}
);
width = 316;
},
{
layerId = UUID1;
paths = (
{
closed = 1;
nodes = (
"221 -8 OFFCURVE",
"226 37 OFFCURVE",
"226 76 CURVE SMOOTH",
"226 116 OFFCURVE",
"221 161 OFFCURVE",
"147 161 CURVE SMOOTH",
"75 161 OFFCURVE",
"70 116 OFFCURVE",
"70 76 CURVE SMOOTH",
"70 37 OFFCURVE",
"75 -8 OFFCURVE",
"147 -8 CURVE SMOOTH"
);
},
{
closed = 1;
nodes = (
"65 730 LINE",
"65 542 LINE",
"103 215 LINE",
"191 215 LINE",
"229 542 LINE",
"229 730 LINE"
);
}
);
width = 294;
}
);
unicode = 0021;
},
{
glyphname = question;
lastChange = "2017-11-28 17:57:31 +0000";
layers = (
{
hints = (
{
horizontal = 1;
origin = "{1, 18}";
target = "{1, 3}";
},
{
horizontal = 1;
origin = "{0, 11}";
target = "{0, 5}";
},
{
place = "{196.5, 55}";
},
{
origin = "{1, 6}";
target = "{1, 15}";
},
{
origin = "{0, 8}";
target = "{0, 2}";
}
);
layerId = UUID0;
paths = (
{
closed = 1;
nodes = (
"268 -8 OFFCURVE",
"271 21 OFFCURVE",
"271 47 CURVE SMOOTH",
"271 74 OFFCURVE",
"268 103 OFFCURVE",
"222 103 CURVE SMOOTH",
"178 103 OFFCURVE",
"175 74 OFFCURVE",
"175 47 CURVE SMOOTH",
"175 21 OFFCURVE",
"178 -8 OFFCURVE",
"222 -8 CURVE SMOOTH"
);
},
{
closed = 1;
nodes = (
"102 589 LINE",
"114 646 OFFCURVE",
"154 688 OFFCURVE",
"238 688 CURVE SMOOTH",
"342 688 OFFCURVE",
"384 608 OFFCURVE",
"384 533 CURVE SMOOTH",
"384 440 OFFCURVE",
"323 380 OFFCURVE",
"193 335 CURVE",
"200 185 LINE",
"246 185 LINE",
"257 311 LINE",
"364 350 OFFCURVE",
"452 415 OFFCURVE",
"452 535 CURVE SMOOTH",
"452 641 OFFCURVE",
"383 744 OFFCURVE",
"239 744 CURVE SMOOTH",
"123 744 OFFCURVE",
"57 684 OFFCURVE",
"42 598 CURVE"
);
}
);
width = 484;
},
{
layerId = UUID1;
paths = (
{
closed = 1;
nodes = (
"280 -8 OFFCURVE",
"285 37 OFFCURVE",
"285 76 CURVE SMOOTH",
"285 116 OFFCURVE",
"280 161 OFFCURVE",
"206 161 CURVE SMOOTH",
"134 161 OFFCURVE",
"129 116 OFFCURVE",
"129 76 CURVE SMOOTH",
"129 37 OFFCURVE",
"134 -8 OFFCURVE",
"206 -8 CURVE SMOOTH"
);
},
{
closed = 1;
nodes = (
"143 547 LINE",
"147 600 OFFCURVE",
"172 632 OFFCURVE",
"229 632 CURVE SMOOTH",
"289 632 OFFCURVE",
"312 575 OFFCURVE",
"312 532 CURVE SMOOTH",
"312 458 OFFCURVE",
"271 409 OFFCURVE",
"148 373 CURVE",
"158 215 LINE",
"251 215 LINE",
"262 321 LINE",
"370 351 OFFCURVE",
"462 421 OFFCURVE",
"462 535 CURVE SMOOTH",
"462 641 OFFCURVE",
"387 744 OFFCURVE",
"229 744 CURVE SMOOTH",
"99 744 OFFCURVE",
"25 678 OFFCURVE",
"14 564 CURVE"
);
}
);
width = 464;
}
);
unicode = 003F;
},
{
glyphname = asterisk;
lastChange = "2017-11-28 20:06:17 +0000";
layers = (
{
hints = (
{
horizontal = 1;
place = "{779, -20}";
target = down;
type = TopGhost;
},
{
horizontal = 1;
place = "{577, -20}";
target = down;
type = TopGhost;
},
{
horizontal = 1;
place = "{327, 21}";
target = up;
type = BottomGhost;
}
);
layerId = UUID0;
paths = (
{
closed = 1;
nodes = (
"236 779 LINE",
"236 700 LINE",
"264 577 LINE",
"288 577 LINE",
"316 700 LINE",
"316 779 LINE"
);
},
{
closed = 1;
nodes = (
"27 570 LINE",
"102 545 LINE",
"228 534 LINE",
"236 556 LINE",
"127 621 LINE",
"52 645 LINE"
);
},
{
closed = 1;
nodes = (
"162 306 LINE",
"209 370 LINE",
"258 486 LINE",
"239 501 LINE",
"144 418 LINE",
"98 353 LINE"
);
},
{
closed = 1;
nodes = (
"454 353 LINE",
"408 418 LINE",
"313 500 LINE",
"293 486 LINE",
"343 370 LINE",
"390 306 LINE"
);
},
{
closed = 1;
nodes = (
"500 645 LINE",
"424 621 LINE",
"317 556 LINE",
"324 533 LINE",
"450 545 LINE",
"525 570 LINE"
);
}
);
width = 552;
},
{
layerId = UUID1;
paths = (
{
closed = 1;
nodes = (
"209 779 LINE",
"209 680 LINE",
"257 577 LINE",
"301 577 LINE",
"349 680 LINE",
"349 779 LINE"
);
},
{
closed = 1;
nodes = (
"23 550 LINE",
"118 518 LINE",
"228 524 LINE",
"242 566 LINE",
"157 634 LINE",
"62 665 LINE"
);
},
{
closed = 1;
nodes = (
"186 290 LINE",
"246 374 LINE",
"269 480 LINE",
"234 507 LINE",
"139 454 LINE",
"80 369 LINE"
);
},
{
closed = 1;
nodes = (
"478 369 LINE",
"419 454 LINE",
"324 506 LINE",
"288 480 LINE",
"312 374 LINE",
"372 290 LINE"
);
},
{
closed = 1;
nodes = (
"496 665 LINE",
"400 634 LINE",
"317 566 LINE",
"330 523 LINE",
"440 518 LINE",
"535 550 LINE"
);
}
);
width = 558;
}
);
unicode = 002A;
},
{
glyphname = numbersign;
lastChange = "2017-11-28 17:57:31 +0000";
layers = (
{
hints = (
{
horizontal = 1;
place = "{180, 59}";
},
{
horizontal = 1;
place = "{490, 59}";
},
{
horizontal = 1;
place = "{-55, 21}";
target = up;
type = BottomGhost;
},
{
horizontal = 1;
place = "{805, -20}";
target = down;
type = TopGhost;
}
);
layerId = UUID0;
paths = (
{
closed = 1;
nodes = (
"128 -76 LINE",
"199 -76 LINE",
"359 805 LINE",
"288 805 LINE"
);
},
{
closed = 1;
nodes = (
"438 -76 LINE",
"509 -76 LINE",
"669 805 LINE",
"598 805 LINE"
);
},
{
closed = 1;
nodes = (
"60 180 LINE",
"671 180 LINE",
"681 239 LINE",
"70 239 LINE"
);
},
{
closed = 1;
nodes = (
"114 490 LINE",
"725 490 LINE",
"735 549 LINE",
"124 549 LINE"
);
}
);
width = 795;
},
{
layerId = UUID1;
paths = (
{
closed = 1;
nodes = (
"99 -76 LINE",
"250 -76 LINE",
"410 805 LINE",
"259 805 LINE"
);
},
{
closed = 1;
nodes = (
"409 -76 LINE",
"560 -76 LINE",
"720 805 LINE",
"569 805 LINE"
);
},
{
closed = 1;
nodes = (
"40 150 LINE",
"702 150 LINE",
"723 266 LINE",
"61 266 LINE"
);
},
{
closed = 1;
nodes = (
"97 463 LINE",
"758 463 LINE",
"779 579 LINE",
"118 579 LINE"
);
}
);
width = 819;
}
);
unicode = 0023;
},
{
glyphname = slash;
lastChange = "2017-11-28 17:57:31 +0000";
layers = (
{
hints = (
{
horizontal = 1;
place = "{-85, 21}";
target = up;
type = BottomGhost;
},
{
horizontal = 1;
place = "{775, -20}";
target = down;
type = TopGhost;
}
);
layerId = UUID0;
paths = (
{
closed = 1;
nodes = (
"0 -106 LINE",
"71 -106 LINE",
"308 775 LINE",
"237 775 LINE"
);
}
);
width = 308;
},
{
layerId = UUID1;
paths = (
{
closed = 1;
nodes = (
"-10 -106 LINE",
"141 -106 LINE",
"378 775 LINE",
"227 775 LINE"
);
}
);
width = 368;
}
);
unicode = 002F;
},
{
glyphname = parenleft;
lastChange = "2017-11-28 17:57:31 +0000";
layers = (
{
hints = (
{
place = "{65, 77}";
},
{
horizontal = 1;
place = "{-66, 62}";
},
{
horizontal = 1;
place = "{673, 62}";
}
);
layerId = UUID0;
paths = (
{
closed = 1;
nodes = (
"289 -4 LINE",
"156 -4 OFFCURVE",
"142 163 OFFCURVE",
"142 335 CURVE SMOOTH",
"142 506 OFFCURVE",
"156 673 OFFCURVE",
"289 673 CURVE",
"289 735 LINE",
"88 735 OFFCURVE",
"65 536 OFFCURVE",
"65 335 CURVE SMOOTH",
"65 132 OFFCURVE",
"88 -66 OFFCURVE",
"289 -66 CURVE"
);
}
);
width = 294;
},
{
layerId = UUID1;
paths = (
{
closed = 1;
nodes = (
"314 36 LINE",
"199 36 OFFCURVE",
"187 184 OFFCURVE",
"187 335 CURVE SMOOTH",
"187 485 OFFCURVE",
"199 633 OFFCURVE",
"314 633 CURVE",
"314 735 LINE",
"61 735 OFFCURVE",
"30 536 OFFCURVE",
"30 335 CURVE SMOOTH",
"30 132 OFFCURVE",
"61 -66 OFFCURVE",
"314 -66 CURVE"
);
}
);
width = 324;
}
);
unicode = 0028;
},
{
glyphname = braceleft;
lastChange = "2017-11-28 17:57:31 +0000";
layers = (
{
hints = (
{
place = "{88, 82}";
},
{
horizontal = 1;
place = "{-66, 62}";
},
{
horizontal = 1;
place = "{674, 62}";
}
);
layerId = UUID0;
paths = (
{
closed = 1;
nodes = (
"121 338 LINE",
"146 338 OFFCURVE",
"170 362 OFFCURVE",
"170 404 CURVE SMOOTH",
"170 446 OFFCURVE",
"162 476 OFFCURVE",
"162 526 CURVE SMOOTH",
"162 612 OFFCURVE",
"190 674 OFFCURVE",
"289 674 CURVE",
"289 736 LINE",
"136 736 OFFCURVE",
"88 646 OFFCURVE",
"88 533 CURVE SMOOTH",
"88 487 OFFCURVE",
"96 449 OFFCURVE",
"96 409 CURVE SMOOTH",
"96 369 OFFCURVE",
"49 360 OFFCURVE",
"21 360 CURVE",
"21 310 LINE",
"49 310 OFFCURVE",
"96 301 OFFCURVE",
"96 261 CURVE SMOOTH",
"96 221 OFFCURVE",
"88 183 OFFCURVE",
"88 137 CURVE SMOOTH",
"88 24 OFFCURVE",
"136 -66 OFFCURVE",
"289 -66 CURVE",
"289 -4 LINE",
"190 -4 OFFCURVE",
"162 58 OFFCURVE",
"162 144 CURVE SMOOTH",
"162 194 OFFCURVE",
"170 224 OFFCURVE",
"170 266 CURVE SMOOTH",
"170 308 OFFCURVE",
"146 332 OFFCURVE",
"121 332 CURVE"
);
}
);
width = 294;
},
{
layerId = UUID1;
paths = (
{
closed = 1;
nodes = (
"180 344 LINE",
"205 344 OFFCURVE",
"229 366 OFFCURVE",
"229 404 CURVE SMOOTH",
"229 440 OFFCURVE",
"221 465 OFFCURVE",
"221 508 CURVE SMOOTH",
"221 581 OFFCURVE",
"246 634 OFFCURVE",
"328 634 CURVE",
"328 736 LINE",
"133 736 OFFCURVE",
"67 646 OFFCURVE",
"67 533 CURVE SMOOTH",
"67 492 OFFCURVE",
"75 459 OFFCURVE",
"75 423 CURVE SMOOTH",
"75 388 OFFCURVE",
"30 380 OFFCURVE",
"10 380 CURVE",
"10 290 LINE",
"30 290 OFFCURVE",
"75 282 OFFCURVE",
"75 247 CURVE SMOOTH",
"75 211 OFFCURVE",
"67 178 OFFCURVE",
"67 137 CURVE SMOOTH",
"67 24 OFFCURVE",
"133 -66 OFFCURVE",
"328 -66 CURVE",
"328 36 LINE",
"246 36 OFFCURVE",
"221 92 OFFCURVE",
"221 169 CURVE SMOOTH",
"221 215 OFFCURVE",
"229 242 OFFCURVE",
"229 280 CURVE SMOOTH",
"229 317 OFFCURVE",
"205 339 OFFCURVE",
"180 339 CURVE"
);
}
);
width = 338;
}
);
unicode = 007B;
},
{
glyphname = bracketleft;
lastChange = "2017-11-28 17:57:31 +0000";
layers = (
{
hints = (
{
place = "{80, 73}";
},
{
horizontal = 1;
place = "{-66, 53}";
},
{
horizontal = 1;
place = "{682, 53}";
}
);
layerId = UUID0;
paths = (
{
closed = 1;
nodes = (
"80 -66 LINE",
"153 -66 LINE",
"153 735 LINE",
"80 735 LINE"
);
},
{
closed = 1;
nodes = (
"136 682 LINE",
"279 682 LINE",
"279 735 LINE",
"136 735 LINE"
);
},
{
closed = 1;
nodes = (
"136 -66 LINE",
"279 -66 LINE",
"279 -13 LINE",
"136 -13 LINE"
);
}
);
width = 284;
},
{
layerId = UUID1;
paths = (
{
closed = 1;
nodes = (
"70 -66 LINE",
"223 -66 LINE",
"223 735 LINE",
"70 735 LINE"
);
},
{
closed = 1;
nodes = (
"206 633 LINE",
"329 633 LINE",
"329 735 LINE",
"206 735 LINE"
);
},
{
closed = 1;
nodes = (
"206 -66 LINE",
"329 -66 LINE",
"329 36 LINE",
"206 36 LINE"
);
}
);
width = 339;
}
);
unicode = 005B;
},
{
glyphname = hyphen;
lastChange = "2017-11-28 17:57:31 +0000";
layers = (
{
hints = (
{
horizontal = 1;
place = "{288, 60}";
}
);
layerId = UUID0;
paths = (
{
closed = 1;
nodes = (
"70 288 LINE",
"422 288 LINE",
"422 348 LINE",
"70 348 LINE"
);
}
);
width = 492;
},
{
layerId = UUID1;
paths = (
{
closed = 1;
nodes = (
"60 268 LINE",
"412 268 LINE",
"412 368 LINE",
"60 368 LINE"
);
}
);
width = 472;
}
);
unicode = 002D;
},
{
glyphname = endash;
lastChange = "2017-11-28 17:57:31 +0000";
layers = (
{
hints = (
{
horizontal = 1;
place = "{288, 60}";
}
);
layerId = UUID0;
paths = (
{
closed = 1;
nodes = (
"70 288 LINE",
"510 288 LINE",
"510 348 LINE",
"70 348 LINE"
);
}
);
width = 580;
},
{
layerId = UUID1;
paths = (
{
closed = 1;
nodes = (
"60 268 LINE",
"500 268 LINE",
"500 368 LINE",
"60 368 LINE"
);
}
);
width = 560;
}
);
unicode = 2013;
},
{
glyphname = emdash;
lastChange = "2017-11-28 17:57:31 +0000";
layers = (
{
hints = (
{
horizontal = 1;
place = "{288, 60}";
}
);
layerId = UUID0;
paths = (
{
closed = 1;
nodes = (
"70 288 LINE",
"843 288 LINE",
"843 348 LINE",
"70 348 LINE"
);
}
);
width = 913;
},
{
layerId = UUID1;
paths = (
{
closed = 1;
nodes = (
"60 268 LINE",
"833 268 LINE",
"833 368 LINE",
"60 368 LINE"
);
}
);
width = 893;
}
);
unicode = 2014;
},
{
glyphname = underscore;
lastChange = "2017-11-28 17:57:31 +0000";
layers = (
{
hints = (
{
horizontal = 1;
place = "{-60, 60}";
}
);
layerId = UUID0;
paths = (
{
closed = 1;
nodes = (
"70 -60 LINE",
"510 -60 LINE",
"510 0 LINE",
"70 0 LINE"
);
}
);
width = 580;
},
{
layerId = UUID1;
paths = (
{
closed = 1;
nodes = (
"60 -100 LINE",
"500 -100 LINE",
"500 0 LINE",
"60 0 LINE"
);
}
);
width = 560;
}
);
unicode = 005F;
},
{
glyphname = quoteleft;
lastChange = "2017-11-28 17:57:31 +0000";
layers = (
{
hints = (
{
place = "{80, 96}";
},
{
horizontal = 1;
place = "{783, -20}";
target = down;
type = TopGhost;
},
{
horizontal = 1;
place = "{576, 21}";
target = up;
type = BottomGhost;
}
);
layerId = UUID0;
paths = (
{
closed = 1;
nodes = (
"176 638 OFFCURVE",
"165 658 OFFCURVE",
"165 677 CURVE SMOOTH",
"165 720 OFFCURVE",
"182 737 OFFCURVE",
"203 756 CURVE",
"180 783 LINE",
"180 783 OFFCURVE",
"80 714 OFFCURVE",
"80 613 CURVE SMOOTH",
"80 585 OFFCURVE",
"83 555 OFFCURVE",
"129 555 CURVE SMOOTH",
"173 555 OFFCURVE",
"176 585 OFFCURVE",
"176 613 CURVE SMOOTH"
);
}
);
width = 283;
},
{
layerId = UUID1;
paths = (
{
closed = 1;
nodes = (
"196 607 OFFCURVE",
"174 630 OFFCURVE",
"174 660 CURVE SMOOTH",
"174 687 OFFCURVE",
"195 720 OFFCURVE",
"222 739 CURVE",
"184 783 LINE",
"111 729 OFFCURVE",
"50 658 OFFCURVE",
"50 555 CURVE SMOOTH",
"50 515 OFFCURVE",
"62 472 OFFCURVE",
"127 472 CURVE SMOOTH",
"192 472 OFFCURVE",
"196 515 OFFCURVE",
"196 555 CURVE SMOOTH"
);
}
);
width = 272;
}
);
leftKerningGroup = quotedbl;
rightKerningGroup = quotedbl;
unicode = 2018;
},
{
glyphname = guilsinglleft;
lastChange = "2017-11-28 17:57:31 +0000";
layers = (
{
hints = (
{
horizontal = 1;
place = "{518, -20}";
target = down;
type = TopGhost;
},
{
horizontal = 1;
place = "{133, 21}";
target = up;
type = BottomGhost;
}
);
layerId = UUID0;
paths = (
{
closed = 1;
nodes = (
"245 472 LINE",
"198 518 LINE",
"30 331 LINE",
"30 299 LINE",
"198 112 LINE",
"245 158 LINE",
"121 315 LINE"
);
}
);
width = 305;
},
{
layerId = UUID1;
paths = (
{
closed = 1;
nodes = (
"273 464 LINE",
"203 533 LINE",
"20 341 LINE",
"20 289 LINE",
"203 97 LINE",
"273 166 LINE",
"161 315 LINE"
);
}
);
width = 305;
}
);
leftKerningGroup = guilsinglleft;
rightKerningGroup = guilsinglleft;
unicode = 2039;
},
{
glyphname = quotesingle;
lastChange = "2017-11-28 18:10:51 +0000";
layers = (
{
hints = (
{
horizontal = 1;
place = "{730, -20}";
target = down;
type = TopGhost;
},
{
horizontal = 1;
place = "{512, 21}";
target = up;
type = BottomGhost;
}
);
layerId = UUID0;
paths = (
{
closed = 1;
nodes = (
"80 770 LINE",
"80 720 LINE",
"98 531 LINE",
"142 531 LINE",
"160 720 LINE",
"160 770 LINE"
);
}
);
width = 240;
},
{
layerId = UUID1;
paths = (
{
closed = 1;
nodes = (
"40 770 LINE",
"40 700 LINE",
"68 501 LINE",
"152 501 LINE",
"180 700 LINE",
"180 770 LINE"
);
}
);
width = 220;
}
);
leftKerningGroup = quotedbl;
rightKerningGroup = quotedbl;
unicode = 0027;
},
{
glyphname = "leftanglebracket-math";
lastChange = "2017-11-28 17:57:31 +0000";
layers = (
{
layerId = UUID0;
paths = (
{
closed = 1;
nodes = (
"232 735 LINE",
"70 338 LINE",
"230 -66 LINE",
"308 -66 LINE",
"145 338 LINE",
"308 735 LINE"
);
}
);
width = 338;
},
{
layerId = UUID1;
paths = (
{
closed = 1;
nodes = (
"188 735 LINE",
"50 323 LINE",
"182 -66 LINE",
"344 -66 LINE",
"212 323 LINE",
"344 735 LINE"
);
}
);
width = 364;
}
);
unicode = 27E8;
},
{
glyphname = cedi;
lastChange = "2017-11-28 18:04:51 +0000";
layers = (
{
components = (
{
name = bar;
transform = "{0.63, 0, 0, 1.08565, 223, 2}";
}
);
hints = (
{
horizontal = 1;
origin = "{0, 9}";
target = "{0, 16}";
},
{
horizontal = 1;
origin = "{0, 3}";
target = "{0, 22}";
},
{
origin = "{0, 6}";
target = "{0, 19}";
},
{
origin = "{0, 13}";
target = "{0, 12}";
}
);
layerId = UUID0;
paths = (
{
closed = 1;
nodes = (
"542 562 LINE",
"528 675 OFFCURVE",
"470 744 OFFCURVE",
"338 744 CURVE SMOOTH",
"132 744 OFFCURVE",
"84 601 OFFCURVE",
"84 366 CURVE SMOOTH",
"84 130 OFFCURVE",
"132 -14 OFFCURVE",
"338 -14 CURVE SMOOTH",
"487 -14 OFFCURVE",
"538 81 OFFCURVE",
"546 209 CURVE",
"487 212 LINE",
"484 120 OFFCURVE",
"444 46 OFFCURVE",
"338 46 CURVE SMOOTH",
"182 46 OFFCURVE",
"156 168 OFFCURVE",
"156 366 CURVE SMOOTH",
"156 563 OFFCURVE",
"182 684 OFFCURVE",
"338 684 CURVE SMOOTH",
"430 684 OFFCURVE",
"473 627 OFFCURVE",
"483 550 CURVE"
);
}
);
userData = {
RMXScaler = {
adjustSpace = 22;
width = 91.2;
};
};
width = 630;
},
{
components = (
{
name = bar;
transform = "{0.63, 0, 0, 1.08565, 243, 2}";
}
);
layerId = UUID1;
paths = (
{
closed = 1;
nodes = (
"588 518 LINE",
"574 656 OFFCURVE",
"528 744 OFFCURVE",
"358 744 CURVE SMOOTH",
"141 744 OFFCURVE",
"79 610 OFFCURVE",
"79 365 CURVE SMOOTH",
"79 120 OFFCURVE",
"141 -14 OFFCURVE",
"358 -14 CURVE SMOOTH",
"539 -14 OFFCURVE",
"581 91 OFFCURVE",
"591 256 CURVE",
"468 262 LINE",
"466 167 OFFCURVE",
"444 108 OFFCURVE",
"358 108 CURVE SMOOTH",
"258 108 OFFCURVE",
"231 185 OFFCURVE",
"231 365 CURVE SMOOTH",
"231 545 OFFCURVE",
"258 622 OFFCURVE",
"358 622 CURVE SMOOTH",
"432 622 OFFCURVE",
"460 576 OFFCURVE",
"466 500 CURVE"
);
}
);
userData = {
RMXScaler = {
adjustSpace = 32;
width = 91.2;
};
};
width = 650;
}
);
unicode = 20B5;
userData = {
RMXScaler = {
source = C;
};
};
},
{
glyphname = cent;
lastChange = "2017-11-28 18:04:51 +0000";
layers = (
{
hints = (
{
place = "{93, 70}";
},
{
place = "{322, 50}";
},
{
place = "{506, 57}";
},
{
horizontal = 1;
place = "{38, 31}";
},
{
horizontal = 1;
place = "{632, 60}";
},
{
horizontal = 1;
place = "{659, 33}";
},
{
horizontal = 1;
place = "{38, 60}";
},
{
horizontal = 1;
place = "{810, -20}";
target = down;
type = TopGhost;
},
{
horizontal = 1;
place = "{-60, 21}";
target = up;
type = BottomGhost;
}
);
layerId = UUID0;
paths = (
{
closed = 1;
nodes = (
"519 38 OFFCURVE",
"562 116 OFFCURVE",
"571 228 CURVE",
"514 231 LINE",
"511 150 OFFCURVE",
"477 98 OFFCURVE",
"341 98 CURVE SMOOTH",
"178 98 OFFCURVE",
"163 225 OFFCURVE",
"163 365 CURVE SMOOTH",
"163 505 OFFCURVE",
"173 632 OFFCURVE",
"357 632 CURVE SMOOTH",
"471 632 OFFCURVE",
"502 565 OFFCURVE",
"506 484 CURVE",
"563 487 LINE",
"555 600 OFFCURVE",
"514 692 OFFCURVE",
"357 692 CURVE SMOOTH",
"119 692 OFFCURVE",
"93 534 OFFCURVE",
"93 365 CURVE SMOOTH",
"93 196 OFFCURVE",
"122 38 OFFCURVE",
"341 38 CURVE SMOOTH"
);
},
{
closed = 1;
nodes = (
"372 659 LINE",
"372 810 LINE",
"322 810 LINE",
"322 659 LINE"
);
},
{
closed = 1;
nodes = (
"322 69 LINE",
"322 -81 LINE",
"372 -81 LINE",
"372 69 LINE"
);
}
);
width = 630;
},
{
layerId = UUID1;
paths = (
{
closed = 1;
nodes = (
"511 38 OFFCURVE",
"581 122 OFFCURVE",
"591 246 CURVE",
"473 254 LINE",
"471 189 OFFCURVE",
"432 153 OFFCURVE",
"345 153 CURVE SMOOTH",
"250 153 OFFCURVE",
"221 250 OFFCURVE",
"221 365 CURVE SMOOTH",
"221 480 OFFCURVE",
"242 577 OFFCURVE",
"356 577 CURVE SMOOTH",
"423 577 OFFCURVE",
"463 528 OFFCURVE",
"465 461 CURVE",
"583 467 LINE",
"574 591 OFFCURVE",
"511 692 OFFCURVE",
"356 692 CURVE SMOOTH",
"126 692 OFFCURVE",
"71 534 OFFCURVE",
"71 365 CURVE SMOOTH",
"71 196 OFFCURVE",
"124 38 OFFCURVE",
"337 38 CURVE SMOOTH"
);
},
{
closed = 1;
nodes = (
"387 659 LINE",
"387 810 LINE",
"287 810 LINE",
"287 659 LINE"
);
},
{
closed = 1;
nodes = (
"287 69 LINE",
"287 -81 LINE",
"387 -81 LINE",
"387 69 LINE"
);
}
);
width = 650;
}
);
unicode = 00A2;
},
{
glyphname = colonsign;
lastChange = "2017-11-28 18:04:51 +0000";
layers = (
{
components = (
{
name = bar;
transform = "{0.4, 0, 0.28641, 1.08565, 107, 2}";
},
{
name = bar;
transform = "{0.4, 0, 0.28641, 1.08565, 227, 2}";
}
);
hints = (
{
horizontal = 1;
origin = "{0, 9}";
target = "{0, 16}";
},
{
horizontal = 1;
origin = "{0, 3}";
target = "{0, 22}";
},
{
origin = "{0, 6}";
target = "{0, 19}";
},
{
origin = "{0, 13}";
target = "{0, 12}";
}
);
layerId = UUID0;
paths = (
{
closed = 1;
nodes = (
"478 711 LINE",
"441 733 OFFCURVE",
"395 744 OFFCURVE",
"338 744 CURVE SMOOTH",
"132 744 OFFCURVE",
"84 601 OFFCURVE",
"84 366 CURVE SMOOTH",
"84 130 OFFCURVE",
"132 -14 OFFCURVE",
"338 -14 CURVE SMOOTH",
"487 -14 OFFCURVE",
"538 81 OFFCURVE",
"546 209 CURVE",
"487 212 LINE",
"484 120 OFFCURVE",
"444 46 OFFCURVE",
"338 46 CURVE SMOOTH",
"182 46 OFFCURVE",
"156 168 OFFCURVE",
"156 366 CURVE SMOOTH",
"156 563 OFFCURVE",
"182 684 OFFCURVE",
"338 684 CURVE SMOOTH",
"393 684 OFFCURVE",
"435 668 OFFCURVE",
"466 641 CURVE"
);
}
);
userData = {
RMXScaler = {
adjustSpace = 22;
width = 91.2;
};
};
width = 630;
},
{
components = (
{
name = bar;
transform = "{0.43, 0, 0.28641, 1.08565, 127, 2}";
},
{
name = bar;
transform = "{0.43, 0, 0.28641, 1.08565, 257, 2}";
}
);
layerId = UUID1;
paths = (
{
closed = 1;
nodes = (
"523 700 LINE",
"482 729 OFFCURVE",
"428 744 OFFCURVE",
"358 744 CURVE SMOOTH",
"141 744 OFFCURVE",
"79 610 OFFCURVE",
"79 365 CURVE SMOOTH",
"79 120 OFFCURVE",
"141 -14 OFFCURVE",
"358 -14 CURVE SMOOTH",
"539 -14 OFFCURVE",
"581 91 OFFCURVE",
"591 256 CURVE",
"468 262 LINE",
"466 167 OFFCURVE",
"444 108 OFFCURVE",
"358 108 CURVE SMOOTH",
"258 108 OFFCURVE",
"231 185 OFFCURVE",
"231 365 CURVE SMOOTH",
"231 545 OFFCURVE",
"258 622 OFFCURVE",
"358 622 CURVE SMOOTH",
"421 622 OFFCURVE",
"460 602 OFFCURVE",
"481 567 CURVE"
);
}
);
userData = {
RMXScaler = {
adjustSpace = 32;
width = 91.2;
};
};
width = 650;
}
);
unicode = 20A1;
},
{
glyphname = currency;
lastChange = "2017-11-28 18:04:51 +0000";
layers = (
{
hints = (
{
place = "{121, 63}";
},
{
place = "{456, 63}";
},
{
horizontal = 1;
place = "{161, 59}";
},
{
horizontal = 1;
place = "{510, 59}";
},
{
horizontal = 1;
place = "{616, -20}";
target = down;
type = TopGhost;
},
{
horizontal = 1;
place = "{135, 21}";
target = up;
type = BottomGhost;
}
);
layerId = UUID0;
paths = (
{
closed = 1;
nodes = (
"215 220 OFFCURVE",
"184 294 OFFCURVE",
"184 365 CURVE SMOOTH",
"184 436 OFFCURVE",
"216 510 OFFCURVE",
"326 510 CURVE SMOOTH",
"425 510 OFFCURVE",
"456 436 OFFCURVE",
"456 365 CURVE SMOOTH",
"456 294 OFFCURVE",
"424 220 OFFCURVE",
"313 220 CURVE SMOOTH"
);
},
{
closed = 1;
nodes = (
"175 569 OFFCURVE",
"121 470 OFFCURVE",
"121 365 CURVE SMOOTH",
"121 260 OFFCURVE",
"174 161 OFFCURVE",
"313 161 CURVE SMOOTH",
"464 161 OFFCURVE",
"519 260 OFFCURVE",
"519 365 CURVE SMOOTH",
"519 470 OFFCURVE",
"466 569 OFFCURVE",
"326 569 CURVE SMOOTH"
);
},
{
closed = 1;
nodes = (
"566 581 LINE",
"531 616 LINE",
"430 515 LINE",
"465 480 LINE"
);
},
{
closed = 1;
nodes = (
"468 248 LINE",
"432 212 LINE",
"531 114 LINE",
"566 149 LINE"
);
},
{
closed = 1;
nodes = (
"99 616 LINE",
"64 581 LINE",
"172 472 LINE",
"208 508 LINE"
);
},
{
closed = 1;
nodes = (
"210 225 LINE",
"175 260 LINE",
"64 149 LINE",
"99 114 LINE"
);
}
);
width = 630;
},
{
layerId = UUID1;
paths = (
{
closed = 1;
nodes = (
"255 260 OFFCURVE",
"234 314 OFFCURVE",
"234 365 CURVE SMOOTH",
"234 416 OFFCURVE",
"256 470 OFFCURVE",
"336 470 CURVE SMOOTH",
"405 470 OFFCURVE",
"426 416 OFFCURVE",
"426 365 CURVE SMOOTH",
"426 314 OFFCURVE",
"404 260 OFFCURVE",
"323 260 CURVE SMOOTH"
);
},
{
closed = 1;
nodes = (
"163 599 OFFCURVE",
"101 485 OFFCURVE",
"101 365 CURVE SMOOTH",
"101 245 OFFCURVE",
"163 131 OFFCURVE",
"323 131 CURVE SMOOTH",
"496 131 OFFCURVE",
"559 245 OFFCURVE",
"559 365 CURVE SMOOTH",
"559 485 OFFCURVE",
"497 599 OFFCURVE",
"336 599 CURVE SMOOTH"
);
},
{
closed = 1;
nodes = (
"615 584 LINE",
"544 655 LINE",
"412 523 LINE",
"483 452 LINE"
);
},
{
closed = 1;
nodes = (
"486 275 LINE",
"415 204 LINE",
"544 75 LINE",
"615 146 LINE"
);
},
{
closed = 1;
nodes = (
"106 655 LINE",
"35 584 LINE",
"164 455 LINE",
"235 526 LINE"
);
},
{
closed = 1;
nodes = (
"238 207 LINE",
"167 278 LINE",
"35 146 LINE",
"106 75 LINE"
);
}
);
width = 650;
}
);
unicode = 00A4;
},
{
glyphname = dollar;
lastChange = "2017-11-28 18:04:51 +0000";
layers = (
{
hints = (
{
place = "{84, 62}";
},
{
place = "{96, 70}";
},
{
place = "{291, 51}";
},
{
place = "{479, 62}";
},
{
horizontal = 1;
place = "{-7, 20}";
},
{
horizontal = 1;
place = "{677, 59}";
},
{
horizontal = 1;
place = "{-7, 60}";
},
{
horizontal = 1;
place = "{843, -20}";
target = down;
type = TopGhost;
},
{
horizontal = 1;
place = "{-92, 21}";
target = up;
type = BottomGhost;
}
);
layerId = UUID0;
paths = (
{
closed = 1;
nodes = (
"369 323 LINE",
"449 309 OFFCURVE",
"482 265 OFFCURVE",
"482 200 CURVE SMOOTH",
"482 108 OFFCURVE",
"447 53 OFFCURVE",
"318 53 CURVE SMOOTH",
"189 53 OFFCURVE",
"146 106 OFFCURVE",
"146 204 CURVE",
"84 200 LINE",
"84 72 OFFCURVE",
"142 -7 OFFCURVE",
"318 -7 CURVE SMOOTH",
"494 -7 OFFCURVE",
"551 76 OFFCURVE",
"551 200 CURVE SMOOTH",
"551 309 OFFCURVE",
"499 372 OFFCURVE",
"366 391 CURVE SMOOTH",
"266 405 LINE SMOOTH",
"191 416 OFFCURVE",
"166 465 OFFCURVE",
"166 529 CURVE SMOOTH",
"166 622 OFFCURVE",
"198 677 OFFCURVE",
"318 677 CURVE SMOOTH",
"438 677 OFFCURVE",
"479 625 OFFCURVE",
"479 527 CURVE",
"541 531 LINE",
"541 660 OFFCURVE",
"484 736 OFFCURVE",
"316 736 CURVE SMOOTH",
"149 736 OFFCURVE",
"96 660 OFFCURVE",
"96 529 CURVE SMOOTH",
"96 420 OFFCURVE",
"144 359 OFFCURVE",
"269 339 CURVE SMOOTH"
);
},
{
closed = 1;
nodes = (
"342 718 LINE",
"342 843 LINE",
"291 843 LINE",
"291 718 LINE"
);
},
{
closed = 1;
nodes = (
"291 13 LINE",
"291 -113 LINE",
"342 -113 LINE",
"342 13 LINE"
);
}
);
width = 630;
},
{
layerId = UUID1;
paths = (
{
closed = 1;
nodes = (
"349 296 LINE",
"416 285 OFFCURVE",
"443 251 OFFCURVE",
"443 200 CURVE SMOOTH",
"443 140 OFFCURVE",
"414 106 OFFCURVE",
"323 106 CURVE SMOOTH",
"231 106 OFFCURVE",
"203 147 OFFCURVE",
"203 214 CURVE",
"71 204 LINE",
"71 66 OFFCURVE",
"134 -7 OFFCURVE",
"328 -7 CURVE SMOOTH",
"521 -7 OFFCURVE",
"592 76 OFFCURVE",
"592 200 CURVE SMOOTH",
"592 326 OFFCURVE",
"529 403 OFFCURVE",
"390 421 CURVE SMOOTH",
"305 432 LINE SMOOTH",
"243 440 OFFCURVE",
"224 473 OFFCURVE",
"224 523 CURVE SMOOTH",
"224 584 OFFCURVE",
"250 618 OFFCURVE",
"333 618 CURVE SMOOTH",
"416 618 OFFCURVE",
"442 583 OFFCURVE",
"442 515 CURVE",
"574 525 LINE",
"574 664 OFFCURVE",
"511 736 OFFCURVE",
"326 736 CURVE SMOOTH",
"141 736 OFFCURVE",
"74 655 OFFCURVE",
"74 523 CURVE SMOOTH",
"74 397 OFFCURVE",
"132 329 OFFCURVE",
"265 309 CURVE SMOOTH"
);
},
{
closed = 1;
nodes = (
"378 708 LINE",
"378 843 LINE",
"277 843 LINE",
"277 708 LINE"
);
},
{
closed = 1;
nodes = (
"277 23 LINE",
"277 -113 LINE",
"378 -113 LINE",
"378 23 LINE"
);
}
);
width = 650;
}
);
unicode = 0024;
},
{
glyphname = dong;
lastChange = "2017-11-28 18:04:51 +0000";
layers = (
{
hints = (
{
place = "{60, 70}";
},
{
place = "{446, 70}";
},
{
horizontal = 1;
place = "{-14, 59}";
},
{
horizontal = 1;
place = "{529, 57}";
},
{
horizontal = 1;
place = "{21, 21}";
target = up;
type = BottomGhost;
},
{
horizontal = 1;
place = "{770, -20}";
target = down;
type = TopGhost;
}
);
layerId = UUID0;
paths = (
{
closed = 1;
nodes = (
"351 -13 OFFCURVE",
"441 65 OFFCURVE",
"484 125 CURVE",
"468 166 LINE",
"405 90 OFFCURVE",
"344 45 OFFCURVE",
"260 45 CURVE SMOOTH",
"165 45 OFFCURVE",
"130 135 OFFCURVE",
"130 257 CURVE SMOOTH",
"130 379 OFFCURVE",
"165 469 OFFCURVE",
"290 469 CURVE SMOOTH",
"334 469 OFFCURVE",
"402 458 OFFCURVE",
"466 419 CURVE",
"488 465 LINE",
"432 499 OFFCURVE",
"356 526 OFFCURVE",
"280 526 CURVE SMOOTH",
"102 526 OFFCURVE",
"60 395 OFFCURVE",
"60 257 CURVE SMOOTH",
"60 118 OFFCURVE",
"96 -13 OFFCURVE",
"241 -13 CURVE SMOOTH"
);
},
{
closed = 1;
nodes = (
"469 0 LINE",
"516 0 LINE",
"516 730 LINE",
"446 730 LINE",
"446 96 LINE"
);
},
{
closed = 1;
nodes = (
"609 599 LINE",
"609 649 LINE",
"284 649 LINE",
"284 599 LINE"
);
},
{
closed = 1;
nodes = (
"516 -140 LINE",
"516 -90 LINE",
"80 -90 LINE",
"80 -140 LINE"
);
}
);
width = 630;
},
{
layerId = UUID1;
paths = (
{
closed = 1;
nodes = (
"351 -13 OFFCURVE",
"439 74 OFFCURVE",
"480 153 CURVE",
"464 238 LINE",
"415 151 OFFCURVE",
"358 100 OFFCURVE",
"298 100 CURVE SMOOTH",
"218 100 OFFCURVE",
"190 167 OFFCURVE",
"190 257 CURVE SMOOTH",
"190 358 OFFCURVE",
"223 412 OFFCURVE",
"318 412 CURVE SMOOTH",
"358 412 OFFCURVE",
"400 405 OFFCURVE",
"458 378 CURVE",
"479 477 LINE",
"428 504 OFFCURVE",
"354 526 OFFCURVE",
"277 526 CURVE SMOOTH",
"84 526 OFFCURVE",
"40 395 OFFCURVE",
"40 257 CURVE SMOOTH",
"40 118 OFFCURVE",
"76 -13 OFFCURVE",
"236 -13 CURVE SMOOTH"
);
},
{
closed = 1;
nodes = (
"452 0 LINE",
"549 0 LINE",
"549 730 LINE",
"399 730 LINE",
"399 72 LINE"
);
},
{
closed = 1;
nodes = (
"599 576 LINE",
"599 672 LINE",
"240 672 LINE",
"240 576 LINE"
);
},
{
closed = 1;
nodes = (
"549 -186 LINE",
"549 -90 LINE",
"60 -90 LINE",
"60 -186 LINE"
);
}
);
width = 650;
}
);
unicode = 20AB;
userData = {
RMXScaler = {
source = dcroat;
};
};
},
{
glyphname = euro;
lastChange = "2017-11-28 18:04:51 +0000";
layers = (
{
hints = (
{
horizontal = 1;
origin = "{0, 18}";
target = "{0, 25}";
},
{
horizontal = 1;
origin = "{1, 0}";
target = "{1, 3}";
},
{
horizontal = 1;
origin = "{2, 0}";
target = "{2, 3}";
},
{
horizontal = 1;
origin = "{0, 12}";
target = "{0, 5}";
},
{
place = "{123, 70}";
},
{
origin = "{0, 22}";
target = "{0, 21}";
}
);
layerId = UUID0;
paths = (
{
closed = 1;
nodes = (
"218 45 OFFCURVE",
"192 178 OFFCURVE",
"192 365 CURVE SMOOTH",
"192 551 OFFCURVE",
"218 685 OFFCURVE",
"374 685 CURVE SMOOTH",
"458 685 OFFCURVE",
"527 643 OFFCURVE",
"527 566 CURVE",
"589 569 LINE",
"586 682 OFFCURVE",
"506 744 OFFCURVE",
"374 744 CURVE SMOOTH",
"159 744 OFFCURVE",
"122 571 OFFCURVE",
"122 365 CURVE SMOOTH",
"122 158 OFFCURVE",
"159 -14 OFFCURVE",
"374 -14 CURVE SMOOTH",
"507 -14 OFFCURVE",
"587 48 OFFCURVE",
"589 163 CURVE",
"528 166 LINE",
"528 87 OFFCURVE",
"459 45 OFFCURVE",
"374 45 CURVE SMOOTH"
);
},
{
closed = 1;
nodes = (
"53 275 LINE",
"443 275 LINE",
"443 321 LINE",
"53 321 LINE"
);
},
{
closed = 1;
nodes = (
"53 409 LINE",
"443 409 LINE",
"443 455 LINE",
"53 455 LINE"
);
}
);
width = 630;
},
{
layerId = UUID1;
paths = (
{
closed = 1;
nodes = (
"267 103 OFFCURVE",
"244 210 OFFCURVE",
"244 365 CURVE SMOOTH",
"244 519 OFFCURVE",
"267 626 OFFCURVE",
"370 626 CURVE SMOOTH",
"438 626 OFFCURVE",
"487 596 OFFCURVE",
"487 536 CURVE",
"619 545 LINE",
"616 667 OFFCURVE",
"544 744 OFFCURVE",
"371 744 CURVE SMOOTH",
"152 744 OFFCURVE",
"94 571 OFFCURVE",
"94 365 CURVE SMOOTH",
"94 158 OFFCURVE",
"152 -14 OFFCURVE",
"370 -14 CURVE SMOOTH",
"545 -14 OFFCURVE",
"618 63 OFFCURVE",
"620 187 CURVE",
"488 196 LINE",
"488 134 OFFCURVE",
"439 103 OFFCURVE",
"370 103 CURVE SMOOTH"
);
},
{
closed = 1;
nodes = (
"33 241 LINE",
"423 241 LINE",
"423 331 LINE",
"33 331 LINE"
);
},
{
closed = 1;
nodes = (
"33 399 LINE",
"423 399 LINE",
"423 489 LINE",
"33 489 LINE"
);
}
);
width = 650;
}
);
unicode = 20AC;
},
{
glyphname = florin;
lastChange = "2017-11-28 18:04:51 +0000";
layers = (
{
hints = (
{
place = "{254, 72}";
},
{
horizontal = 1;
place = "{-218, 62}";
},
{
horizontal = 1;
place = "{319, 50}";
},
{
horizontal = 1;
place = "{685, 59}";
}
);
layerId = UUID0;
paths = (
{
closed = 1;
nodes = (
"125 319 LINE",
"501 319 LINE",
"501 369 LINE",
"125 369 LINE"
);
},
{
closed = 1;
nodes = (
"558 713 LINE",
"526 733 OFFCURVE",
"483 744 OFFCURVE",
"438 744 CURVE SMOOTH",
"313 744 OFFCURVE",
"254 674 OFFCURVE",
"254 521 CURVE SMOOTH",
"254 -10 LINE SMOOTH",
"254 -117 OFFCURVE",
"222 -156 OFFCURVE",
"136 -156 CURVE",
"140 -218 LINE",
"285 -218 OFFCURVE",
"326 -148 OFFCURVE",
"326 -10 CURVE SMOOTH",
"326 521 LINE SMOOTH",
"326 641 OFFCURVE",
"373 685 OFFCURVE",
"436 685 CURVE SMOOTH",
"474 685 OFFCURVE",
"505 677 OFFCURVE",
"533 661 CURVE"
);
}
);
width = 630;
},
{
layerId = UUID1;
paths = (
{
closed = 1;
nodes = (
"120 294 LINE",
"526 294 LINE",
"526 394 LINE",
"120 394 LINE"
);
},
{
closed = 1;
nodes = (
"587 705 LINE",
"551 728 OFFCURVE",
"502 744 OFFCURVE",
"440 744 CURVE SMOOTH",
"286 744 OFFCURVE",
"222 667 OFFCURVE",
"222 513 CURVE SMOOTH",
"222 30 LINE SMOOTH",
"222 -59 OFFCURVE",
"206 -87 OFFCURVE",
"106 -87 CURVE",
"116 -218 LINE",
"332 -218 OFFCURVE",
"374 -146 OFFCURVE",
"374 28 CURVE SMOOTH",
"374 513 LINE SMOOTH",
"374 581 OFFCURVE",
"397 626 OFFCURVE",
"462 626 CURVE SMOOTH",
"496 626 OFFCURVE",
"525 615 OFFCURVE",
"545 601 CURVE"
);
}
);
width = 650;
}
);
unicode = 0192;
},
{
glyphname = franc;
lastChange = "2017-11-28 18:04:51 +0000";
layers = (
{
hints = (
{
horizontal = 1;
origin = "{0, 0}";
target = "{0, 3}";
},
{
horizontal = 1;
origin = "{1, 0}";
target = "{1, 3}";
},
{
horizontal = 1;
origin = "{2, 6}";
target = "{2, 3}";
},
{
origin = "{2, 0}";
target = "{2, 1}";
}
);
layerId = UUID0;
paths = (
{
closed = 1;
nodes = (
"212 0 LINE",
"212 694 LINE",
"189 671 LINE",
"530 671 LINE",
"530 730 LINE",
"140 730 LINE",
"140 0 LINE"
);
},
{
closed = 1;
nodes = (
"400 117 LINE",
"400 163 LINE",
"50 163 LINE",
"50 117 LINE"
);
},
{
closed = 1;
nodes = (
"510 341 LINE",
"510 401 LINE",
"180 401 LINE",
"180 341 LINE"
);
}
);
width = 630;
},
{
layerId = UUID1;
paths = (
{
closed = 1;
nodes = (
"282 0 LINE",
"282 642 LINE",
"254 614 LINE",
"560 614 LINE",
"560 730 LINE",
"130 730 LINE",
"130 0 LINE"
);
},
{
closed = 1;
nodes = (
"431 87 LINE",
"431 177 LINE",
"40 177 LINE",
"40 87 LINE"
);
},
{
closed = 1;
nodes = (
"524 314 LINE",
"524 428 LINE",
"200 428 LINE",
"200 314 LINE"
);
}
);
width = 650;
}
);
unicode = 20A3;
},
{
glyphname = guarani;
lastChange = "2017-11-28 18:04:51 +0000";
layers = (
{
components = (
{
name = bar;
transform = "{0.63, 0, 0, 1.08565, 204, 2}";
}
);
hints = (
{
horizontal = 1;
origin = "{0, 24}";
target = "{0, 5}";
},
{
horizontal = 1;
origin = "{0, 0}";
target = "{0, 8}";
},
{
horizontal = 1;
origin = "{0, 18}";
target = "{0, 11}";
},
{
origin = "{0, 21}";
target = "{0, 8}";
},
{
origin = "{0, 14}";
target = "{0, 27}";
}
);
layerId = UUID0;
paths = (
{
closed = 1;
nodes = (
"316 315 LINE",
"493 315 LINE",
"470 341 LINE",
"470 128 OFFCURVE",
"422 46 OFFCURVE",
"316 46 CURVE SMOOTH",
"168 46 OFFCURVE",
"142 158 OFFCURVE",
"142 365 CURVE SMOOTH",
"142 562 OFFCURVE",
"168 684 OFFCURVE",
"324 684 CURVE SMOOTH",
"416 684 OFFCURVE",
"459 627 OFFCURVE",
"469 550 CURVE",
"528 562 LINE",
"514 675 OFFCURVE",
"456 744 OFFCURVE",
"324 744 CURVE SMOOTH",
"118 744 OFFCURVE",
"70 601 OFFCURVE",
"70 366 CURVE SMOOTH",
"70 133 OFFCURVE",
"109 -14 OFFCURVE",
"315 -14 CURVE SMOOTH",
"475 -14 OFFCURVE",
"541 81 OFFCURVE",
"541 365 CURVE",
"316 365 LINE"
);
}
);
userData = {
RMXScaler = {
adjustSpace = -1;
width = 91.2;
};
};
width = 630;
},
{
components = (
{
name = bar;
transform = "{0.63, 0, 0, 1.08565, 203, 2}";
}
);
layerId = UUID1;
paths = (
{
closed = 1;
nodes = (
"345 279 LINE",
"472 279 LINE",
"434 310 LINE",
"434 163 OFFCURVE",
"396 108 OFFCURVE",
"315 108 CURVE SMOOTH",
"225 108 OFFCURVE",
"200 198 OFFCURVE",
"200 365 CURVE SMOOTH",
"200 545 OFFCURVE",
"227 622 OFFCURVE",
"327 622 CURVE SMOOTH",
"401 622 OFFCURVE",
"429 576 OFFCURVE",
"435 500 CURVE",
"557 518 LINE",
"543 656 OFFCURVE",
"497 744 OFFCURVE",
"327 744 CURVE SMOOTH",
"110 744 OFFCURVE",
"48 610 OFFCURVE",
"48 365 CURVE SMOOTH",
"48 131 OFFCURVE",
"109 -14 OFFCURVE",
"314 -14 CURVE SMOOTH",
"524 -14 OFFCURVE",
"573 105 OFFCURVE",
"573 375 CURVE",
"345 375 LINE"
);
}
);
userData = {
RMXScaler = {
adjustSpace = 7;
width = 91.2;
};
};
width = 650;
}
);
unicode = 20B2;
userData = {
RMXScaler = {
source = G;
};
};
},
{
glyphname = kip;
lastChange = "2017-11-28 18:04:51 +0000";
layers = (
{
hints = (
{
horizontal = 1;
origin = "{2, 0}";
target = "{2, 3}";
},
{
horizontal = 1;
origin = "{0, 0}";
target = down;
type = TopGhost;
},
{
origin = "{0, 1}";
target = "{0, 2}";
}
);
layerId = UUID0;
paths = (
{
closed = 1;
nodes = (
"143 730 LINE",
"143 0 LINE",
"215 0 LINE",
"215 730 LINE"
);
},
{
closed = 1;
nodes = (
"570 0 LINE",
"338 378 LINE",
"262 378 LINE",
"492 0 LINE"
);
},
{
closed = 1;
nodes = (
"68 347 LINE",
"539 347 LINE",
"539 393 LINE",
"68 393 LINE"
);
},
{
closed = 1;
nodes = (
"482 730 LINE",
"263 353 LINE",
"336 353 LINE",
"558 730 LINE"
);
}
);
userData = {
RMXScaler = {
adjustSpace = 44;
width = 91.2;
};
};
width = 630;
},
{
layerId = UUID1;
paths = (
{
closed = 1;
nodes = (
"113 730 LINE",
"113 0 LINE",
"265 0 LINE",
"265 730 LINE"
);
},
{
closed = 1;
nodes = (
"629 0 LINE",
"404 387 LINE",
"243 387 LINE",
"467 0 LINE"
);
},
{
closed = 1;
nodes = (
"65 326 LINE",
"579 326 LINE",
"579 416 LINE",
"65 416 LINE"
);
},
{
closed = 1;
nodes = (
"452 730 LINE",
"253 353 LINE",
"405 353 LINE",
"608 730 LINE"
);
}
);
userData = {
RMXScaler = {
adjustSpace = 24;
width = 91.2;
};
};
width = 650;
}
);
unicode = 20AD;
userData = {
RMXScaler = {
source = K;
};
};
},
{
glyphname = lira;
lastChange = "2017-11-28 18:04:51 +0000";
layers = (
{
hints = (
{
place = "{70, 145}";
},
{
place = "{143, 72}";
},
{
place = "{495, 62}";
},
{
horizontal = 1;
place = "{0, 60}";
},
{
horizontal = 1;
place = "{214, 46}";
},
{
horizontal = 1;
place = "{368, 46}";
},
{
horizontal = 1;
place = "{685, 59}";
}
);
layerId = UUID0;
paths = (
{
closed = 1;
nodes = (
"70 214 LINE",
"481 214 LINE",
"481 260 LINE",
"70 260 LINE"
);
},
{
closed = 1;
nodes = (
"70 368 LINE",
"481 368 LINE",
"481 414 LINE",
"70 414 LINE"
);
},
{
closed = 1;
nodes = (
"91 0 LINE",
"576 0 LINE",
"576 60 LINE",
"165 60 LINE",
"205 90 OFFCURVE",
"215 122 OFFCURVE",
"215 186 CURVE SMOOTH",
"215 532 LINE SMOOTH",
"215 628 OFFCURVE",
"240 685 OFFCURVE",
"350 685 CURVE SMOOTH",
"451 685 OFFCURVE",
"495 639 OFFCURVE",
"495 529 CURVE",
"557 533 LINE",
"557 675 OFFCURVE",
"500 744 OFFCURVE",
"346 744 CURVE SMOOTH",
"194 744 OFFCURVE",
"143 666 OFFCURVE",
"143 532 CURVE SMOOTH",
"143 177 LINE SMOOTH",
"143 139 OFFCURVE",
"136 99 OFFCURVE",
"91 59 CURVE"
);
}
);
width = 630;
},
{
layerId = UUID1;
paths = (
{
closed = 1;
nodes = (
"69 200 LINE",
"481 200 LINE",
"481 290 LINE",
"69 290 LINE"
);
},
{
closed = 1;
nodes = (
"69 358 LINE",
"481 358 LINE",
"481 448 LINE",
"69 448 LINE"
);
},
{
closed = 1;
nodes = (
"71 0 LINE",
"606 0 LINE",
"606 117 LINE",
"240 117 LINE",
"270 144 OFFCURVE",
"285 168 OFFCURVE",
"285 225 CURVE SMOOTH",
"285 522 LINE SMOOTH",
"285 586 OFFCURVE",
"301 626 OFFCURVE",
"374 626 CURVE SMOOTH",
"441 626 OFFCURVE",
"465 590 OFFCURVE",
"465 535 CURVE",
"597 545 LINE",
"597 671 OFFCURVE",
"542 744 OFFCURVE",
"366 744 CURVE SMOOTH",
"191 744 OFFCURVE",
"133 656 OFFCURVE",
"133 522 CURVE SMOOTH",
"133 201 LINE SMOOTH",
"133 165 OFFCURVE",
"116 117 OFFCURVE",
"71 89 CURVE"
);
}
);
width = 650;
}
);
unicode = 20A4;
},
{
glyphname = liraTurkish;
lastChange = "2017-11-28 18:04:51 +0000";
layers = (
{
hints = (
{
horizontal = 1;
origin = "{0, 12}";
target = "{0, 8}";
},
{
horizontal = 1;
origin = "{2, 1}";
target = down;
type = TopGhost;
},
{
horizontal = 1;
origin = "{0, 11}";
target = down;
type = TopGhost;
},
{
origin = "{0, 12}";
target = "{0, 9}";
},
{
origin = "{0, 4}";
target = "{0, 3}";
}
);
layerId = UUID0;
paths = (
{
closed = 1;
nodes = (
"336 0 LINE SMOOTH",
"490 0 OFFCURVE",
"547 69 OFFCURVE",
"547 211 CURVE",
"485 215 LINE",
"485 105 OFFCURVE",
"441 59 OFFCURVE",
"340 59 CURVE SMOOTH",
"199 59 LINE",
"222 36 LINE",
"222 730 LINE",
"150 730 LINE",
"150 0 LINE"
);
},
{
closed = 1;
nodes = (
"431 378 LINE",
"431 426 LINE",
"60 276 LINE",
"60 228 LINE"
);
},
{
closed = 1;
nodes = (
"431 532 LINE",
"431 580 LINE",
"60 430 LINE",
"60 382 LINE"
);
}
);
width = 630;
},
{
layerId = UUID1;
paths = (
{
closed = 1;
nodes = (
"342 0 LINE SMOOTH",
"518 0 OFFCURVE",
"573 73 OFFCURVE",
"573 199 CURVE",
"441 209 LINE",
"441 153 OFFCURVE",
"417 116 OFFCURVE",
"350 116 CURVE SMOOTH",
"224 116 LINE",
"252 88 LINE",
"252 730 LINE",
"100 730 LINE",
"100 0 LINE"
);
},
{
closed = 1;
nodes = (
"441 342 LINE",
"441 436 LINE",
"36 286 LINE",
"36 192 LINE"
);
},
{
closed = 1;
nodes = (
"441 504 LINE",
"441 598 LINE",
"36 448 LINE",
"36 354 LINE"
);
}
);
width = 650;
}
);
unicode = 20BA;
},
{
glyphname = manat;
lastChange = "2017-11-28 18:04:51 +0000";
layers = (
{
components = (
{
name = bar;
transform = "{0.63, 0, 0, 0.70917, 214, 180}";
}
);
hints = (
{
horizontal = 1;
origin = "{0, 4}";
target = "{0, 13}";
},
{
origin = "{0, 17}";
target = "{0, 0}";
},
{
origin = "{0, 8}";
target = "{0, 9}";
}
);
layerId = UUID0;
paths = (
{
closed = 1;
nodes = (
"153 0 LINE",
"153 389 LINE SMOOTH",
"153 506 OFFCURVE",
"220 535 OFFCURVE",
"315 535 CURVE SMOOTH",
"409 535 OFFCURVE",
"477 506 OFFCURVE",
"477 389 CURVE SMOOTH",
"477 0 LINE",
"549 0 LINE",
"549 391 LINE SMOOTH",
"549 567 OFFCURVE",
"437 595 OFFCURVE",
"315 595 CURVE SMOOTH",
"193 595 OFFCURVE",
"81 567 OFFCURVE",
"81 391 CURVE SMOOTH",
"81 0 LINE"
);
}
);
userData = {
RMXScaler = {
adjustSpace = -5;
height = 80;
width = 92;
};
};
width = 630;
},
{
components = (
{
name = bar;
transform = "{0.63, 0, 0, 0.70917, 218, 180}";
}
);
layerId = UUID1;
paths = (
{
closed = 1;
nodes = (
"218 0 LINE",
"218 376 LINE SMOOTH",
"218 453 OFFCURVE",
"255 472 OFFCURVE",
"325 472 CURVE SMOOTH",
"392 472 OFFCURVE",
"432 455 OFFCURVE",
"432 376 CURVE SMOOTH",
"432 0 LINE",
"584 0 LINE",
"584 391 LINE SMOOTH",
"584 567 OFFCURVE",
"461 595 OFFCURVE",
"325 595 CURVE SMOOTH",
"189 595 OFFCURVE",
"66 567 OFFCURVE",
"66 391 CURVE SMOOTH",
"66 0 LINE"
);
}
);
userData = {
RMXScaler = {
height = 80;
width = 92;
};
};
width = 650;
}
);
unicode = 20BC;
userData = {
RMXScaler = {
source = U;
};
};
},
{
glyphname = naira;
lastChange = "2017-11-28 18:04:51 +0000";
layers = (
{
hints = (
{
horizontal = 1;
place = "{0, 63}";
},
{
horizontal = 1;
origin = "{3, 0}";
target = "{3, 3}";
},
{
horizontal = 1;
place = "{668, 62}";
},
{
origin = "{0, 1}";
target = "{0, 2}";
},
{
origin = "{1, 1}";
target = "{1, 2}";
}
);
layerId = UUID0;
paths = (
{
closed = 1;
nodes = (
"90 730 LINE",
"90 0 LINE",
"162 0 LINE",
"162 730 LINE"
);
},
{
closed = 1;
nodes = (
"468 730 LINE",
"468 0 LINE",
"540 0 LINE",
"540 730 LINE"
);
},
{
closed = 1;
nodes = (
"137 730 LINE",
"429 0 LINE",
"493 0 LINE",
"201 730 LINE"
);
},
{
closed = 1;
nodes = (
"20 347 LINE",
"610 347 LINE",
"610 393 LINE",
"20 393 LINE"
);
}
);
userData = {
RMXScaler = {
width = 85;
};
};
width = 630;
},
{
layerId = UUID1;
paths = (
{
closed = 1;
nodes = (
"70 730 LINE",
"70 0 LINE",
"222 0 LINE",
"222 730 LINE"
);
},
{
closed = 1;
nodes = (
"428 730 LINE",
"428 0 LINE",
"580 0 LINE",
"580 730 LINE"
);
},
{
closed = 1;
nodes = (
"196 730 LINE",
"325 0 LINE",
"454 0 LINE",
"325 730 LINE"
);
},
{
closed = 1;
nodes = (
"10 326 LINE",
"640 326 LINE",
"640 416 LINE",
"10 416 LINE"
);
}
);
userData = {
RMXScaler = {
width = 85;
};
};
width = 650;
}
);
unicode = 20A6;
userData = {
RMXScaler = {
source = N;
};
};
},
{
glyphname = peseta;
lastChange = "2017-11-28 18:04:51 +0000";
layers = (
{
hints = (
{
horizontal = 1;
origin = "{0, 10}";
target = "{0, 9}";
},
{
horizontal = 1;
origin = "{1, 0}";
target = "{1, 3}";
},
{
horizontal = 1;
origin = "{0, 18}";
target = "{0, 1}";
},
{
origin = "{0, 19}";
target = "{0, 20}";
}
);
layerId = UUID0;
paths = (
{
closed = 1;
nodes = (
"192 694 LINE",
"170 671 LINE",
"314 671 LINE SMOOTH",
"423 671 OFFCURVE",
"456 596 OFFCURVE",
"456 502 CURVE SMOOTH",
"456 409 OFFCURVE",
"423 334 OFFCURVE",
"314 334 CURVE SMOOTH",
"178 334 LINE",
"178 275 LINE",
"316 275 LINE SMOOTH",
"487 275 OFFCURVE",
"528 385 OFFCURVE",
"528 502 CURVE SMOOTH",
"528 620 OFFCURVE",
"487 730 OFFCURVE",
"316 730 CURVE SMOOTH",
"120 730 LINE",
"120 0 LINE",
"192 0 LINE"
);
},
{
closed = 1;
nodes = (
"20 481 LINE",
"610 481 LINE",
"610 527 LINE",
"20 527 LINE"
);
}
);
userData = {
RMXScaler = {
adjustSpace = 36;
width = 95;
};
};
width = 630;
},
{
layerId = UUID1;
paths = (
{
closed = 1;
nodes = (
"242 642 LINE",
"215 614 LINE",
"319 614 LINE SMOOTH",
"388 614 OFFCURVE",
"420 570 OFFCURVE",
"420 492 CURVE SMOOTH",
"420 415 OFFCURVE",
"388 371 OFFCURVE",
"319 371 CURVE SMOOTH",
"227 371 LINE",
"227 255 LINE",
"347 255 LINE SMOOTH",
"521 255 OFFCURVE",
"572 370 OFFCURVE",
"572 492 CURVE SMOOTH",
"572 615 OFFCURVE",
"521 730 OFFCURVE",
"347 730 CURVE SMOOTH",
"90 730 LINE",
"90 0 LINE",
"242 0 LINE"
);
},
{
closed = 1;
nodes = (
"10 447 LINE",
"640 447 LINE",
"640 537 LINE",
"10 537 LINE"
);
}
);
userData = {
RMXScaler = {
adjustSpace = 29;
width = 95;
};
};
width = 650;
}
);
unicode = 20A7;
userData = {
RMXScaler = {
source = P;
};
};
},
{
glyphname = peso;
lastChange = "2017-11-28 18:04:51 +0000";
layers = (
{
hints = (
{
horizontal = 1;
origin = "{0, 10}";
target = "{0, 9}";
},
{
horizontal = 1;
origin = "{3, 2}";
target = "{3, 1}";
},
{
horizontal = 1;
origin = "{4, 2}";
target = "{4, 1}";
},
{
horizontal = 1;
origin = "{0, 18}";
target = "{0, 1}";
},
{
origin = "{0, 19}";
target = "{0, 20}";
},
{
origin = "{0, 5}";
target = "{0, 14}";
}
);
layerId = UUID0;
paths = (
{
closed = 1;
nodes = (
"192 694 LINE",
"170 671 LINE",
"314 671 LINE SMOOTH",
"423 671 OFFCURVE",
"456 596 OFFCURVE",
"456 502 CURVE SMOOTH",
"456 409 OFFCURVE",
"423 334 OFFCURVE",
"314 334 CURVE SMOOTH",
"178 334 LINE",
"178 275 LINE",
"316 275 LINE SMOOTH",
"487 275 OFFCURVE",
"528 385 OFFCURVE",
"528 502 CURVE SMOOTH",
"528 620 OFFCURVE",
"487 730 OFFCURVE",
"316 730 CURVE SMOOTH",
"120 730 LINE",
"120 0 LINE",
"192 0 LINE"
);
},
{
closed = 1;
nodes = (
"487 551 LINE",
"610 551 LINE",
"610 597 LINE",
"487 597 LINE"
);
},
{
closed = 1;
nodes = (
"487 411 LINE",
"610 411 LINE",
"610 457 LINE",
"487 457 LINE"
);
},
{
closed = 1;
nodes = (
"156 457 LINE",
"20 457 LINE",
"20 411 LINE",
"156 411 LINE"
);
},
{
closed = 1;
nodes = (
"156 597 LINE",
"20 597 LINE",
"20 551 LINE",
"156 551 LINE"
);
}
);
userData = {
RMXScaler = {
adjustSpace = 36;
width = 95;
};
};
width = 630;
},
{
layerId = UUID1;
paths = (
{
closed = 1;
nodes = (
"242 642 LINE",
"215 614 LINE",
"319 614 LINE SMOOTH",
"388 614 OFFCURVE",
"420 570 OFFCURVE",
"420 492 CURVE SMOOTH",
"420 415 OFFCURVE",
"388 371 OFFCURVE",
"319 371 CURVE SMOOTH",
"227 371 LINE",
"227 255 LINE",
"347 255 LINE SMOOTH",
"521 255 OFFCURVE",
"572 370 OFFCURVE",
"572 492 CURVE SMOOTH",
"572 615 OFFCURVE",
"521 730 OFFCURVE",
"347 730 CURVE SMOOTH",
"90 730 LINE",
"90 0 LINE",
"242 0 LINE"
);
},
{
closed = 1;
nodes = (
"477 547 LINE",
"640 547 LINE",
"640 637 LINE",
"477 637 LINE"
);
},
{
closed = 1;
nodes = (
"477 347 LINE",
"640 347 LINE",
"640 437 LINE",
"477 437 LINE"
);
},
{
closed = 1;
nodes = (
"164 437 LINE",
"10 437 LINE",
"10 347 LINE",
"164 347 LINE"
);
},
{
closed = 1;
nodes = (
"164 637 LINE",
"10 637 LINE",
"10 547 LINE",
"164 547 LINE"
);
}
);
userData = {
RMXScaler = {
adjustSpace = 29;
width = 95;
};
};
width = 650;
}
);
unicode = 20B1;
},
{
glyphname = ruble;
lastChange = "2017-11-28 18:04:51 +0000";
layers = (
{
hints = (
{
horizontal = 1;
origin = "{1, 0}";
target = "{1, 3}";
},
{
horizontal = 1;
origin = "{0, 10}";
target = "{0, 9}";
},
{
horizontal = 1;
origin = "{0, 18}";
target = "{0, 1}";
},
{
horizontal = 1;
origin = "{2, 0}";
target = "{2, 3}";
},
{
origin = "{0, 19}";
target = "{0, 20}";
},
{
origin = "{0, 5}";
target = "{0, 14}";
}
);
layerId = UUID0;
paths = (
{
closed = 1;
nodes = (
"192 694 LINE",
"170 671 LINE",
"314 671 LINE SMOOTH",
"423 671 OFFCURVE",
"456 596 OFFCURVE",
"456 502 CURVE SMOOTH",
"456 409 OFFCURVE",
"423 334 OFFCURVE",
"314 334 CURVE SMOOTH",
"178 334 LINE",
"178 275 LINE",
"316 275 LINE SMOOTH",
"487 275 OFFCURVE",
"528 385 OFFCURVE",
"528 502 CURVE SMOOTH",
"528 620 OFFCURVE",
"487 730 OFFCURVE",
"316 730 CURVE SMOOTH",
"120 730 LINE",
"120 0 LINE",
"192 0 LINE"
);
},
{
closed = 1;
nodes = (
"20 117 LINE",
"370 117 LINE",
"370 163 LINE",
"20 163 LINE"
);
},
{
closed = 1;
nodes = (
"20 281 LINE",
"163 281 LINE",
"163 327 LINE",
"20 327 LINE"
);
}
);
userData = {
RMXScaler = {
adjustSpace = 36;
width = 95;
};
};
width = 630;
},
{
layerId = UUID1;
paths = (
{
closed = 1;
nodes = (
"242 642 LINE",
"215 614 LINE",
"319 614 LINE SMOOTH",
"388 614 OFFCURVE",
"420 570 OFFCURVE",
"420 492 CURVE SMOOTH",
"420 415 OFFCURVE",
"388 371 OFFCURVE",
"319 371 CURVE SMOOTH",
"227 371 LINE",
"227 255 LINE",
"347 255 LINE SMOOTH",
"521 255 OFFCURVE",
"572 370 OFFCURVE",
"572 492 CURVE SMOOTH",
"572 615 OFFCURVE",
"521 730 OFFCURVE",
"347 730 CURVE SMOOTH",
"90 730 LINE",
"90 0 LINE",
"242 0 LINE"
);
},
{
closed = 1;
nodes = (
"10 87 LINE",
"401 87 LINE",
"401 177 LINE",
"10 177 LINE"
);
},
{
closed = 1;
nodes = (
"10 268 LINE",
"173 268 LINE",
"173 358 LINE",
"10 358 LINE"
);
}
);
userData = {
RMXScaler = {
adjustSpace = 29;
width = 95;
};
};
width = 650;
}
);
unicode = 20BD;
},
{
glyphname = rupeeIndian;
lastChange = "2017-11-28 18:04:51 +0000";
layers = (
{
hints = (
{
horizontal = 1;
place = "{277, 57}";
},
{
horizontal = 1;
origin = "{1, 2}";
target = "{1, 1}";
},
{
horizontal = 1;
origin = "{2, 1}";
target = "{2, 2}";
},
{
origin = "{0, 4}";
target = "{0, 11}";
}
);
layerId = UUID0;
paths = (
{
closed = 1;
nodes = (
"174 684 LINE",
"284 684 LINE SMOOTH",
"393 684 OFFCURVE",
"426 603 OFFCURVE",
"426 502 CURVE SMOOTH",
"426 409 OFFCURVE",
"393 334 OFFCURVE",
"284 334 CURVE",
"286 275 LINE",
"457 275 OFFCURVE",
"498 385 OFFCURVE",
"498 502 CURVE SMOOTH",
"498 620 OFFCURVE",
"457 730 OFFCURVE",
"286 730 CURVE SMOOTH",
"174 730 LINE"
);
},
{
closed = 1;
nodes = (
"580 532 LINE",
"48 532 LINE",
"48 486 LINE",
"580 486 LINE"
);
},
{
closed = 1;
nodes = (
"580 730 LINE",
"48 730 LINE",
"48 684 LINE",
"580 684 LINE"
);
},
{
closed = 1;
nodes = (
"538 0 LINE",
"284 334 LINE",
"208 334 LINE",
"460 0 LINE"
);
}
);
userData = {
RMXScaler = {
adjustSpace = 36;
width = 95;
};
};
width = 630;
},
{
layerId = UUID1;
paths = (
{
closed = 1;
nodes = (
"141 640 LINE",
"289 640 LINE SMOOTH",
"358 640 OFFCURVE",
"390 587 OFFCURVE",
"390 492 CURVE SMOOTH",
"390 390 OFFCURVE",
"358 332 OFFCURVE",
"289 332 CURVE",
"317 216 LINE",
"491 216 OFFCURVE",
"542 350 OFFCURVE",
"542 492 CURVE SMOOTH",
"542 615 OFFCURVE",
"491 730 OFFCURVE",
"317 730 CURVE SMOOTH",
"141 730 LINE"
);
},
{
closed = 1;
nodes = (
"610 530 LINE",
"48 530 LINE",
"48 440 LINE",
"610 440 LINE"
);
},
{
closed = 1;
nodes = (
"610 730 LINE",
"48 730 LINE",
"48 640 LINE",
"610 640 LINE"
);
},
{
closed = 1;
nodes = (
"536 0 LINE",
"289 332 LINE",
"128 332 LINE",
"374 0 LINE"
);
}
);
userData = {
RMXScaler = {
adjustSpace = 29;
width = 95;
};
};
width = 650;
}
);
unicode = 20B9;
},
{
glyphname = sterling;
lastChange = "2017-11-28 18:04:51 +0000";
layers = (
{
hints = (
{
place = "{143, 72}";
},
{
place = "{495, 62}";
},
{
horizontal = 1;
place = "{0, 60}";
},
{
horizontal = 1;
place = "{319, 51}";
},
{
horizontal = 1;
place = "{685, 59}";
}
);
layerId = UUID0;
paths = (
{
closed = 1;
nodes = (
"70 319 LINE",
"481 319 LINE",
"481 370 LINE",
"70 370 LINE"
);
},
{
closed = 1;
nodes = (
"91 0 LINE",
"576 0 LINE",
"576 60 LINE",
"165 60 LINE",
"205 90 OFFCURVE",
"215 122 OFFCURVE",
"215 186 CURVE SMOOTH",
"215 532 LINE SMOOTH",
"215 628 OFFCURVE",
"240 685 OFFCURVE",
"350 685 CURVE SMOOTH",
"451 685 OFFCURVE",
"495 639 OFFCURVE",
"495 529 CURVE",
"557 533 LINE",
"557 675 OFFCURVE",
"500 744 OFFCURVE",
"346 744 CURVE SMOOTH",
"194 744 OFFCURVE",
"143 666 OFFCURVE",
"143 532 CURVE SMOOTH",
"143 177 LINE SMOOTH",
"143 139 OFFCURVE",
"136 99 OFFCURVE",
"91 59 CURVE"
);
}
);
width = 630;
},
{
layerId = UUID1;
paths = (
{
closed = 1;
nodes = (
"70 293 LINE",
"481 293 LINE",
"481 394 LINE",
"70 394 LINE"
);
},
{
closed = 1;
nodes = (
"71 0 LINE",
"606 0 LINE",
"606 117 LINE",
"240 117 LINE",
"270 144 OFFCURVE",
"285 168 OFFCURVE",
"285 225 CURVE SMOOTH",
"285 522 LINE SMOOTH",
"285 586 OFFCURVE",
"301 626 OFFCURVE",
"374 626 CURVE SMOOTH",
"441 626 OFFCURVE",
"465 580 OFFCURVE",
"465 509 CURVE",
"597 519 LINE",
"597 661 OFFCURVE",
"542 744 OFFCURVE",
"366 744 CURVE SMOOTH",
"191 744 OFFCURVE",
"133 656 OFFCURVE",
"133 522 CURVE SMOOTH",
"133 200 LINE SMOOTH",
"133 164 OFFCURVE",
"116 117 OFFCURVE",
"71 89 CURVE"
);
}
);
width = 650;
}
);
unicode = 00A3;
},
